<svg width="223" height="141" viewBox="0 0 223 141" fill="none" xmlns="http://www.w3.org/2000/svg">
<ellipse cx="143.886" cy="63.064" rx="50.1621" ry="50.4772" fill="white"/>
<path opacity="0.4" d="M202.659 128.992C200.71 128.929 198.857 128.128 197.471 126.748L185.592 112.863C183.045 110.534 182.837 106.575 185.125 103.989C186.196 102.905 187.653 102.295 189.172 102.295C190.69 102.295 192.147 102.905 193.218 103.989L208.157 115.942C210.309 118.145 210.974 121.415 209.853 124.29C208.732 127.166 206.036 129.11 202.97 129.253L202.659 128.992Z" fill="white"/>
<path d="M24.9466 126.437H0V15.1976H71.7017V38.7321H24.7897V62.2666H66.0535V84.8597H24.9466V126.437Z" fill="white"/>
</svg>
