<svg width="32" height="32" viewBox="0 0 32 32" fill="none" xmlns="http://www.w3.org/2000/svg">
<path d="M8.63561 15.7398V8.72815C8.63561 8.47582 8.84221 8.27173 9.09689 8.27173C9.35157 8.27173 9.55816 8.47582 9.55816 8.72815V15.7473H10.5925V8.72815C10.5925 8.45023 10.8203 8.22481 11.1008 8.22481C11.382 8.22481 11.6092 8.45056 11.6092 8.72815V15.7473H12.6435V8.72815C12.6435 8.45023 12.8717 8.22481 13.1525 8.22481C13.4334 8.22481 13.6609 8.45056 13.6609 8.72815V15.7473H14.6952V8.72815C14.6952 8.47582 14.9018 8.27173 15.1562 8.27173C15.4108 8.27173 15.6171 8.47582 15.6171 8.72815V15.7398C15.6171 17.3026 14.5679 18.6214 13.1287 19.0476V29.6755C14.1029 29.8861 15.1124 30 16.1493 30C17.7769 30 19.3398 29.7234 20.7966 29.2204V23.386H17.8134C17.8134 23.386 18.2876 8.33998 22.8012 8.33998V17.2364V23.386V28.3522C27.2581 25.993 30.2987 21.3422 30.2987 16C30.2987 8.28059 23.9512 2 16.1493 2C8.34744 2 2 8.28059 2 16C2 21.9689 5.79632 27.0748 11.1247 29.0845V19.0476C9.6855 18.6214 8.63561 17.3026 8.63561 15.7398Z" fill="#F8FBFC"/>
</svg>
