<svg width="64" height="64" viewBox="0 0 64 64" fill="none" xmlns="http://www.w3.org/2000/svg">
<path fill-rule="evenodd" clip-rule="evenodd" d="M60 32C60 47.464 47.4639 60 32 60C16.5361 60 4 47.464 4 32C4 16.536 16.5361 4 32 4C47.4639 4 60 16.536 60 32ZM31.9985 25.2184L31.9951 25.1573L31.9883 25.0963L31.9849 25.065L30.8599 18.315C30.8501 18.2554 30.8354 18.1967 30.8159 18.1397C30.7881 18.0573 30.751 17.9783 30.7046 17.9042C30.6265 17.7787 30.5244 17.6699 30.4038 17.584C30.2837 17.498 30.1479 17.4366 30.0039 17.4033C29.8599 17.3699 29.7104 17.3653 29.5649 17.3896C29.4189 17.4139 29.2793 17.4667 29.1543 17.5449C29.0288 17.6232 28.9199 17.7254 28.834 17.8457C28.7485 17.966 28.687 18.1021 28.6538 18.246C28.6206 18.3901 28.6157 18.5392 28.6401 18.685L29.5469 24.125H26.9375V18.5C26.9375 18.2016 26.8188 17.9155 26.6079 17.7045C26.4937 17.5901 26.3569 17.503 26.2085 17.4471C26.083 17.3999 25.9492 17.375 25.8125 17.375C25.5142 17.375 25.228 17.4935 25.0171 17.7045C24.8062 17.9155 24.6875 18.2016 24.6875 18.5V24.125H22.0781L22.9849 18.685C23.0093 18.5392 23.0044 18.3901 22.9712 18.246C22.938 18.1021 22.8765 17.966 22.791 17.8457C22.7051 17.7254 22.5962 17.6232 22.4707 17.5449C22.3452 17.4667 22.2061 17.4139 22.0601 17.3896C22.0068 17.3807 21.9531 17.3757 21.8994 17.3746C21.8687 17.3739 21.8374 17.3745 21.8066 17.3764C21.7441 17.3802 21.6821 17.3892 21.6211 17.4033C21.4771 17.4366 21.3413 17.498 21.2212 17.584C21.1899 17.6062 21.1602 17.6299 21.1313 17.6552C21.0493 17.7274 20.9785 17.8112 20.9204 17.9042C20.877 17.9738 20.8413 18.0477 20.8145 18.1246C20.7925 18.1864 20.7759 18.2501 20.7651 18.315L19.6401 25.065L19.6367 25.0963L19.6299 25.1573L19.6265 25.2184L19.625 25.25L19.626 25.2798L19.6265 25.3005C19.6396 26.7368 20.1519 28.1238 21.0752 29.2242C21.9985 30.3246 23.2754 31.0701 24.6875 31.3331V45.5C24.6875 45.7983 24.8062 46.0845 25.0171 46.2955C25.228 46.5065 25.5142 46.625 25.8125 46.625C26.1108 46.625 26.397 46.5065 26.6079 46.2955C26.8188 46.0845 26.9375 45.7983 26.9375 45.5V31.3331C28.3496 31.0701 29.6265 30.3246 30.5498 29.2242C31.4731 28.1238 31.9854 26.7368 31.9985 25.3005L31.999 25.2798L32 25.25L31.9985 25.2184ZM43.8081 18.4104L43.8125 18.5V45.5C43.8125 45.7983 43.6938 46.0845 43.4829 46.2955C43.272 46.5065 42.9858 46.625 42.6875 46.625C42.3892 46.625 42.103 46.5065 41.8921 46.2955C41.7598 46.163 41.6636 46.0007 41.6104 45.8245C41.5786 45.7202 41.5625 45.611 41.5625 45.5V37.625H34.8125C34.6548 37.6249 34.4985 37.5917 34.3545 37.5275C34.2808 37.4944 34.2104 37.4537 34.1455 37.4059C34.084 37.3606 34.0269 37.309 33.9756 37.2518C33.8701 37.1345 33.7905 36.9962 33.7422 36.8459C33.6934 36.6957 33.6772 36.537 33.6938 36.3801C34.0327 33.5612 34.5854 30.7722 35.3472 28.037C37.0264 22.1099 39.3477 18.5544 42.2461 17.4651L42.2617 17.459L42.3032 17.4427L42.3218 17.4369L42.3887 17.4163L42.4346 17.4047L42.4927 17.3929L42.5508 17.3841L42.5981 17.3795L42.6675 17.376L42.6875 17.375L42.7788 17.3796L42.8252 17.3843L42.8843 17.3933L42.9385 17.4041L42.9868 17.4165L43.0464 17.4346L43.0874 17.4495L43.1484 17.4744L43.1875 17.4933L43.2437 17.5228L43.2847 17.548L43.3325 17.5792L43.3774 17.6126L43.416 17.6438C43.4307 17.6559 43.4438 17.6685 43.4575 17.6815L43.4619 17.6855L43.4941 17.7168L43.5376 17.7643L43.5664 17.7987L43.603 17.8478L43.6318 17.8898L43.6597 17.9362L43.689 17.9897L43.709 18.0307C43.7188 18.052 43.728 18.0737 43.7363 18.0957L43.7446 18.1155L43.7505 18.1345C43.7583 18.1565 43.7646 18.1788 43.771 18.2014L43.7827 18.2469L43.7944 18.3051L43.8032 18.3633L43.8081 18.4104Z" fill="#F8FBFC"/>
</svg>
