<svg width="150" height="150" viewBox="0 0 150 150" fill="none" xmlns="http://www.w3.org/2000/svg">
<path d="M60.2286 7.5C59.0252 7.5 57.9541 8.26339 57.5617 9.40098L12.5939 139.755C12.2147 140.855 13.0312 142 14.1939 142H36.3334C37.5437 142 38.6191 141.228 39.0061 140.081L48.1075 113.114H48.0962L55.2723 91.4497H55.1372L69.4134 48.7566L82.3421 9.72472C82.7049 8.62934 81.8894 7.5 80.7353 7.5H60.2286Z" fill="#FAFAFA"/>
<path d="M96.5318 26.4573C96.0911 25.1799 94.2798 25.1934 93.8584 26.4771L66.1344 110.893C65.775 111.988 66.5906 113.114 67.7426 113.114H100.102L109.03 140.066C109.412 141.221 110.492 142 111.708 142H134.016C135.178 142 135.995 140.855 135.616 139.755L96.5318 26.4573Z" fill="#FAFAFA"/>
</svg>
