<svg width="326" height="300" viewBox="0 0 326 300" fill="none" xmlns="http://www.w3.org/2000/svg">
<path d="M131.021 169.831L117.934 156.744C138.898 128.9 150.296 95.0235 150.426 60.1703H165.468C169.458 60.1703 173.284 58.5855 176.105 55.7645C178.926 52.9434 180.511 49.1173 180.511 45.1277C180.511 41.1382 178.926 37.3121 176.105 34.491C173.284 31.67 169.458 30.0852 165.468 30.0852H105.298V15.0426C105.298 11.053 103.713 7.2269 100.892 4.40587C98.0712 1.58484 94.245 0 90.2555 0C86.266 0 82.4398 1.58484 79.6188 4.40587C76.7978 7.2269 75.2129 11.053 75.2129 15.0426V30.0852H15.0426C11.053 30.0852 7.2269 31.67 4.40587 34.491C1.58484 37.3121 0 41.1382 0 45.1277C0 49.1173 1.58484 52.9434 4.40587 55.7645C7.2269 58.5855 11.053 60.1703 15.0426 60.1703H120.341C120.308 87.1068 111.954 113.375 96.423 135.383L55.808 94.6178C52.9754 91.7853 49.1336 90.1939 45.1277 90.1939C41.1219 90.1939 37.2801 91.7853 34.4475 94.6178C31.6149 97.4504 30.0236 101.292 30.0236 105.298C30.0236 109.304 31.6149 113.146 34.4475 115.978L76.4163 157.947C72.9586 161.148 69.29 164.113 65.4352 166.822L21.3605 198.412C18.7922 200.271 16.877 202.894 15.8886 205.907C14.9001 208.919 14.8888 212.167 15.8564 215.187C16.8239 218.206 18.7208 220.843 21.2761 222.72C23.8315 224.597 26.9146 225.618 30.0852 225.639C33.2202 225.618 36.2705 224.619 38.8099 222.781L82.8846 191.342C88.1252 187.622 93.1477 183.604 97.9272 179.308L109.811 191.191C111.209 192.601 112.873 193.72 114.706 194.484C116.539 195.248 118.505 195.641 120.491 195.641C122.477 195.641 124.443 195.248 126.276 194.484C128.109 193.72 129.773 192.601 131.171 191.191C132.571 189.783 133.679 188.111 134.43 186.273C135.18 184.434 135.56 182.465 135.546 180.48C135.532 178.494 135.125 176.53 134.348 174.703C133.572 172.875 132.441 171.219 131.021 169.831Z" fill="white"/>
<path d="M233.963 138.8H196.678C186.988 138.8 179.133 130.944 179.133 121.254V121.254C179.133 111.564 186.988 103.708 196.678 103.708H308.257C317.948 103.708 325.803 111.564 325.803 121.254V121.254C325.803 130.944 317.948 138.8 308.257 138.8H270.973V281.495C270.973 291.715 262.688 300 252.468 300V300C242.248 300 233.963 291.715 233.963 281.495V138.8Z" fill="white"/>
</svg>
