<svg width="190" height="191" viewBox="0 0 190 191" fill="none" xmlns="http://www.w3.org/2000/svg">
<path d="M96.9372 18.7319C60.1227 18.7319 29.6875 48.1696 29.6875 84.5905C29.6875 102.944 36.3542 119.982 47.3482 134.424C59.3642 150.354 74.3024 164.234 91.2126 175.128C95.4362 177.836 98.9092 177.646 102.758 175.128C119.572 164.234 134.51 150.354 146.63 134.424C157.616 119.982 164.291 102.944 164.291 84.5905C164.291 48.1696 133.855 18.7319 96.9372 18.7319Z" fill="#0075FF"/>
<path d="M117.991 72.9279C115.821 70.7571 109.641 73.4064 104.215 78.832L96.5065 86.5406C88.1713 94.876 80.2237 104.229 74.3185 112.394C73.9178 112.948 73.9784 113.71 74.4617 114.194L76.7258 116.458C77.209 116.941 77.9711 117.001 78.5256 116.601C86.6907 110.696 96.0434 102.748 104.379 94.4127L112.087 86.7041C117.513 81.2785 120.162 75.0987 117.991 72.9279Z" fill="white"/>
<path d="M89.3699 119.262L91.338 117.294C91.6839 116.948 91.8232 116.445 91.7041 115.971L90.4112 110.825C88.2455 112.631 86.1182 114.336 84.0627 115.922L87.4019 119.262C87.9459 119.806 88.8261 119.806 89.3699 119.262Z" fill="white"/>
<path d="M71.6578 103.517L74.9972 106.857C76.5833 104.801 78.2881 102.674 80.0949 100.508L74.9491 99.2153C74.4745 99.0961 73.9719 99.2356 73.626 99.5814L71.6578 101.549C71.1141 102.093 71.1141 102.974 71.6578 103.517Z" fill="white"/>
<path d="M90.4392 74.896L88.314 77.0212L93.2328 79.9743L94.3754 78.8319C94.9191 78.288 94.9191 77.4078 94.3754 76.8639L92.4072 74.896C91.8635 74.3521 90.9831 74.3521 90.4392 74.896Z" fill="white"/>
<path d="M116.023 98.5122L114.055 96.5442C113.511 96.0003 112.631 96.0003 112.087 96.5442L110.946 97.6859L113.898 102.605L116.023 100.48C116.567 99.9364 116.567 99.0562 116.023 98.5122Z" fill="white"/>
<path d="M117.216 113.54L106.701 96.0261L106.346 96.3813C103.697 99.0303 100.909 101.629 98.0801 104.185L112.087 118.193C112.631 118.736 113.511 118.736 114.055 118.193L117.007 115.24C117.459 114.789 117.546 114.087 117.216 113.54Z" fill="white"/>
<path d="M72.727 78.8319L86.7342 92.8391C89.2901 90.0105 91.8892 87.2219 94.5382 84.5729L94.8936 84.2175L77.3791 73.7033C76.8322 73.3737 76.1308 73.4602 75.6792 73.9119L72.7271 76.864C72.1831 77.4078 72.1831 78.2879 72.727 78.8319Z" fill="white"/>
</svg>
