<svg width="441" height="250" viewBox="0 0 441 250" fill="none" xmlns="http://www.w3.org/2000/svg">
<path d="M69.5773 45.4429H22.2647C9.96826 45.4429 0 35.4746 0 23.1782V23.1782C0 10.8817 9.96825 0.913452 22.2647 0.913452H163.854C176.151 0.913452 186.119 10.8817 186.119 23.1782V23.1782C186.119 35.4746 176.151 45.4429 163.854 45.4429H116.542V226.518C116.542 239.487 106.028 250 93.0596 250V250C80.0906 250 69.5773 239.487 69.5773 226.518V45.4429Z" fill="white"/>
<path fill-rule="evenodd" clip-rule="evenodd" d="M228.768 103.592C228.768 46.3038 276.641 0 334.548 0C392.618 0 440.491 46.3038 440.491 103.592C440.491 132.46 429.992 159.261 412.712 181.977C393.648 207.035 370.151 228.867 343.703 246.003C337.65 249.964 332.187 250.262 325.543 246.003C298.944 228.867 275.447 207.035 256.547 181.977C239.254 159.261 228.768 132.46 228.768 103.592ZM299.687 106.818C299.687 126.009 315.348 141.103 334.55 141.103C353.764 141.103 369.575 126.009 369.575 106.818C369.575 87.7755 353.764 71.9465 334.55 71.9465C315.348 71.9465 299.687 87.7755 299.687 106.818Z" fill="white"/>
</svg>
