<svg width="135" height="32" viewBox="0 0 135 32" fill="none" xmlns="http://www.w3.org/2000/svg">
<path d="M15.913 0.000236009C15.9763 0.000369992 16.0396 0.000503975 16.1048 0.000642018C17.0131 0.00372998 17.9042 0.0193279 18.7963 0.20617C18.857 0.218521 18.9176 0.230873 18.98 0.243598C21.9881 0.872784 24.7231 2.2353 26.9412 4.37147C27.0027 4.43042 27.0027 4.43042 27.0654 4.49056C27.6554 5.05905 28.1987 5.63706 28.6821 6.2987C28.7354 6.37026 28.7888 6.44182 28.8421 6.51338C29.2176 7.02261 29.5507 7.5519 29.8634 8.10159C29.8861 8.14087 29.9087 8.18015 29.9321 8.22062C31.2754 10.5674 31.8826 13.2261 31.8724 15.9115C31.8723 15.9748 31.8721 16.0381 31.872 16.1033C31.8689 17.0115 31.8533 17.9025 31.6665 18.7946C31.6479 18.8855 31.6479 18.8855 31.629 18.9783C30.9998 21.9861 29.6371 24.7208 27.5008 26.9387C27.4615 26.9797 27.4222 27.0207 27.3817 27.0629C26.8131 27.6528 26.2351 28.1961 25.5734 28.6794C25.5018 28.7328 25.4302 28.7861 25.3587 28.8395C24.8495 29.2148 24.3208 29.5494 23.7703 29.8606C23.7263 29.8856 23.6824 29.9106 23.6371 29.9364C22.1986 30.7462 20.6336 31.2901 19.0178 31.6208C18.9731 31.6299 18.9284 31.6391 18.8824 31.6485C17.9699 31.8219 17.0669 31.8717 16.1398 31.8696C15.957 31.8694 15.7743 31.8709 15.5916 31.8725C14.7601 31.8753 13.9583 31.8003 13.1385 31.6635C13.0324 31.646 13.0324 31.646 12.9242 31.6281C10.2341 31.1449 7.68186 29.9023 5.61537 28.1199C5.56904 28.0805 5.52272 28.041 5.47499 28.0004C4.63532 27.2661 3.84749 26.4734 3.19056 25.571C3.13731 25.4995 3.08404 25.428 3.03075 25.3566C2.65522 24.8474 2.32051 24.3187 2.00925 23.7681C1.98424 23.7241 1.95924 23.6802 1.93347 23.6349C1.12362 22.1966 0.57967 20.6317 0.248934 19.0161C0.239772 18.9714 0.23061 18.9267 0.221171 18.8806C0.0362729 17.9079 -0.00352575 16.946 0.000236031 15.9582C0.000370026 15.8949 0.000504022 15.8316 0.000642078 15.7664C0.00373033 14.8582 0.0193297 13.9672 0.206189 13.0751C0.218541 13.0145 0.230894 12.9539 0.243621 12.8914C0.872865 9.88359 2.23551 7.1489 4.37188 4.93099C4.41118 4.89 4.45048 4.84901 4.49097 4.80677C5.05952 4.2169 5.63758 3.67355 6.29928 3.19027C6.37085 3.13692 6.44242 3.08358 6.51398 3.03023C7.02317 2.65488 7.55181 2.32024 8.10234 2.00906C8.14631 1.98406 8.19028 1.95905 8.23559 1.93329C9.67402 1.12352 11.239 0.579616 12.8548 0.248911C12.8995 0.23975 12.9442 0.230589 12.9902 0.22115C13.963 0.0362695 14.9251 -0.00352542 15.913 0.000236009ZM18.7963 8.84373C18.7178 8.92263 18.6391 9.00151 18.5605 9.08038C18.3695 9.27203 18.1788 9.46386 17.9881 9.65581C18.2309 9.94632 18.4831 10.2217 18.7516 10.4885C18.7887 10.5256 18.8257 10.5626 18.8639 10.6008C18.9848 10.7217 19.106 10.8424 19.2272 10.963C19.3117 11.0474 19.3962 11.1318 19.4807 11.2163C19.7019 11.4373 19.9234 11.6581 20.1449 11.8788C20.3713 12.1046 20.5975 12.3306 20.8238 12.5565C21.267 12.9989 21.7103 13.4412 22.1538 13.8833C22.2221 13.8252 22.2903 13.767 22.3585 13.7088C22.3966 13.6764 22.4346 13.644 22.4737 13.6106C22.7789 13.3449 23.0641 13.0567 23.3519 12.7726C23.4313 12.6945 23.5111 12.6169 23.5912 12.5397C24.1055 12.0439 24.5069 11.6498 24.6116 10.9164C24.6013 9.81882 23.9706 9.28221 23.2387 8.53956C23.171 8.47052 23.1037 8.40108 23.0368 8.33126C22.5477 7.82133 22.0719 7.38198 21.3506 7.24823C20.1707 7.28488 19.5801 8.05459 18.7963 8.84373ZM16.2597 10.634C16.2199 10.6462 16.1801 10.6585 16.1391 10.6711C16.0084 10.7114 15.8781 10.7531 15.7479 10.7948C15.6559 10.8234 15.564 10.8521 15.4721 10.8806C15.2301 10.9559 14.9885 11.0323 14.747 11.109C14.5043 11.1858 14.2612 11.2615 14.0181 11.3373C13.4964 11.5004 12.9749 11.6642 12.4546 11.8317C12.4122 11.8453 12.3699 11.8589 12.3262 11.8729C12.1998 11.9136 12.0736 11.9548 11.9473 11.9961C11.8738 12.02 11.8003 12.044 11.7245 12.0687C11.1946 12.2619 10.8113 12.5227 10.5271 13.0129C10.2829 13.5397 10.0967 14.0884 9.91273 14.6384C9.88392 14.7239 9.85508 14.8094 9.82623 14.8948C9.74876 15.1245 9.67166 15.3543 9.59468 15.5842C9.54645 15.7282 9.49816 15.8721 9.44985 16.0161C9.29834 16.4677 9.14707 16.9194 8.99612 17.3712C8.82255 17.8907 8.64818 18.4099 8.47313 18.9289C8.3373 19.3318 8.20218 19.735 8.0676 20.1383C7.98743 20.3785 7.90697 20.6186 7.82575 20.8584C7.74945 21.0838 7.67405 21.3095 7.59931 21.5354C7.57187 21.6178 7.54411 21.7002 7.516 21.7824C7.28766 22.4493 7.28766 22.4493 7.29408 23.1464C7.33511 23.208 7.37615 23.2695 7.41842 23.3329C7.60398 23.2494 7.73482 23.1568 7.8792 23.014C7.94027 22.954 7.94027 22.954 8.00257 22.8928C8.04654 22.8489 8.09051 22.8051 8.13581 22.76C8.18264 22.7138 8.22948 22.6675 8.27772 22.6199C8.43245 22.467 8.58668 22.3137 8.74085 22.1602C8.84797 22.0538 8.9551 21.9474 9.06223 21.841C9.28663 21.6179 9.51074 21.3946 9.73471 21.171C10.0223 20.8842 10.311 20.5985 10.5999 20.3131C10.8215 20.0938 11.0423 19.8738 11.2628 19.6534C11.3689 19.5477 11.4754 19.4423 11.5821 19.3372C11.731 19.1904 11.8787 19.0426 12.0261 18.8943C12.0707 18.8509 12.1153 18.8074 12.1612 18.7627C12.2011 18.7221 12.2409 18.6816 12.282 18.6399C12.317 18.605 12.352 18.5702 12.3881 18.5343C12.4706 18.4206 12.4706 18.4206 12.4352 18.265C12.4211 18.2141 12.4069 18.1632 12.3924 18.1107C12.3433 17.4519 12.3993 16.9178 12.8043 16.3817C13.1168 16.0445 13.58 15.8406 14.0344 15.7957C14.6152 15.7794 15.1611 15.9102 15.5944 16.3173C16.0152 16.8357 16.1126 17.3992 16.0607 18.0486C15.942 18.5603 15.6643 18.9729 15.2293 19.2674C14.7435 19.5251 14.1392 19.5847 13.6056 19.4351C13.4496 19.4001 13.4496 19.4001 13.3344 19.4853C13.2984 19.5216 13.2625 19.5579 13.2255 19.5953C13.1837 19.6365 13.142 19.6777 13.099 19.7202C13.0541 19.7664 13.0093 19.8125 12.9632 19.8601C12.9152 19.908 12.8673 19.9559 12.8179 20.0052C12.6592 20.1641 12.5019 20.3243 12.3445 20.4846C12.2349 20.5949 12.1253 20.7051 12.0155 20.8152C11.7561 21.0758 11.4975 21.3373 11.2393 21.5992C10.9165 21.9266 10.5924 22.2526 10.2684 22.5788C9.69039 23.1607 9.11357 23.7437 8.53756 24.3276C8.55808 24.3892 8.5786 24.4507 8.59974 24.5141C9.10727 24.6833 9.58514 24.5466 10.0727 24.3757C10.1353 24.3546 10.1978 24.3335 10.2622 24.3118C10.4661 24.2429 10.6695 24.1726 10.873 24.1022C11.0164 24.0535 11.1598 24.0048 11.3033 23.9562C11.6628 23.8341 12.0219 23.711 12.3809 23.5875C12.666 23.4895 12.9513 23.3921 13.2366 23.2948C13.5385 23.1918 13.8404 23.0887 14.142 22.9849C14.7642 22.7712 15.3879 22.5627 16.0128 22.3572C16.1665 22.3065 16.3202 22.2558 16.4738 22.2051C16.7731 22.1064 17.0726 22.0085 17.3722 21.9109C17.5102 21.8655 17.6481 21.8201 17.786 21.7746C17.8485 21.7545 17.9109 21.7344 17.9753 21.7136C18.7303 21.463 19.3452 21.1305 19.729 20.411C19.8805 20.0397 19.9899 19.6521 20.1059 19.2686C20.1403 19.1569 20.1748 19.0451 20.2094 18.9334C20.2819 18.6984 20.3538 18.4632 20.4254 18.2279C20.5196 17.9185 20.616 17.6098 20.7131 17.3013C20.7896 17.0577 20.8653 16.8139 20.9409 16.57C20.9773 16.4528 21.014 16.3357 21.0509 16.2187C21.1025 16.0549 21.153 15.8908 21.2032 15.7265C21.2186 15.6783 21.234 15.6302 21.25 15.5806C21.2636 15.5352 21.2772 15.4899 21.2912 15.4432C21.3032 15.4043 21.3153 15.3655 21.3277 15.3255C21.3596 15.08 21.3546 14.8592 21.2121 14.6481C21.1127 14.5345 21.0086 14.4285 20.9008 14.3229C20.8409 14.262 20.8409 14.262 20.7797 14.1999C20.6479 14.0663 20.5146 13.9342 20.3813 13.8022C20.289 13.7096 20.1967 13.617 20.1045 13.5243C19.9112 13.3305 19.7172 13.1373 19.5228 12.9446C19.2737 12.6977 19.0264 12.4492 18.7796 12.2002C18.5894 12.0087 18.3983 11.8181 18.207 11.6277C18.1155 11.5364 18.0242 11.4449 17.9332 11.353C17.8058 11.2247 17.6773 11.0976 17.5485 10.9708C17.5112 10.9328 17.4739 10.8948 17.4355 10.8556C17.0662 10.4973 16.7483 10.4806 16.2597 10.634Z" fill="#7458ED"/>
<path d="M39.522 0.127441H46.7001L54.2845 23.5127L62.0495 0.127441H69.047L58.3475 31.7291H50.2665L39.522 0.127441Z" fill="white"/>
<path d="M67.7684 20.1719C67.7684 17.7642 68.25 15.6725 69.2131 13.8967C70.2063 12.0909 71.5757 10.7065 73.3213 9.74338C75.097 8.75019 77.1436 8.25359 79.4611 8.25359C81.8086 8.25359 83.8703 8.72009 85.646 9.65309C87.4518 10.556 88.8513 11.8502 89.8445 13.5356C90.8678 15.1909 91.3945 17.1472 91.4246 19.4045C91.4246 20.2171 91.3644 20.9394 91.244 21.5714H74.4048V21.752C74.5553 23.4374 75.097 24.7617 76.03 25.7248C76.963 26.6879 78.2422 27.1695 79.8674 27.1695C81.1615 27.1695 82.23 26.8986 83.0727 26.3568C83.9455 25.785 84.5173 24.9573 84.7882 23.8739H91.0634C90.8226 25.4088 90.2357 26.7932 89.3027 28.0272C88.3697 29.2612 87.1358 30.2393 85.6008 30.9617C84.0659 31.6539 82.3052 32 80.3188 32C77.7305 32 75.4883 31.5184 73.5922 30.5553C71.7262 29.5923 70.2815 28.2228 69.2582 26.4471C68.265 24.6413 67.7684 22.5496 67.7684 20.1719ZM85.0591 17.4181C84.8484 16.0035 84.2615 14.92 83.2984 14.1676C82.3654 13.3851 81.1766 12.9938 79.7319 12.9938C78.3475 12.9938 77.1737 13.4002 76.2106 14.2128C75.2776 14.9953 74.7208 16.0637 74.5402 17.4181H85.0591Z" fill="white"/>
<path d="M117.205 22.9258C116.784 25.7549 115.58 27.9821 113.593 29.6073C111.637 31.2024 109.094 32 105.964 32C103.556 32 101.449 31.5184 99.6435 30.5553C97.8377 29.5622 96.4382 28.1627 95.445 26.3568C94.4819 24.551 94.0003 22.4743 94.0003 20.1268C94.0003 17.7491 94.4819 15.6725 95.445 13.8967C96.4382 12.0909 97.8377 10.7065 99.6435 9.74338C101.479 8.75019 103.601 8.25359 106.009 8.25359C109.109 8.25359 111.637 9.05116 113.593 10.6463C115.55 12.2113 116.754 14.3933 117.205 17.1924H110.614C110.343 16.0487 109.801 15.1458 108.989 14.4836C108.176 13.7914 107.168 13.4453 105.964 13.4453C104.308 13.4453 102.984 14.0623 101.991 15.2963C100.998 16.5302 100.501 18.1404 100.501 20.1268C100.501 22.1132 100.998 23.7234 101.991 24.9573C102.984 26.1913 104.308 26.8083 105.964 26.8083C107.198 26.8083 108.221 26.4622 109.034 25.77C109.876 25.0777 110.418 24.1297 110.659 22.9258H117.205Z" fill="white"/>
<path d="M122.14 13.8967H118.303V8.52446H122.14V2.02354H128.505V8.52446H133.787V13.8967H128.505V24.0544C128.505 24.867 128.671 25.4539 129.002 25.8151C129.363 26.1763 129.95 26.3568 130.763 26.3568H134.058V31.7291H128.776C124.352 31.7291 122.14 29.517 122.14 25.0928V13.8967Z" fill="white"/>
</svg>
