<svg width="159" height="64" viewBox="0 0 159 64" fill="none" xmlns="http://www.w3.org/2000/svg">
<path d="M72.73 18.7C72.5 17.51 74.14 17.65 74.89 18.26C75.18 19.11 75.56 19.51 76.05 19.46C75.95 17.37 77.07 16.91 77.16 19.28C77.5 19.65 77.58 20.12 77.71 20.68L78.58 24.24L82.38 10.01H86.6L90.34 24.29L93.86 10.01H98.73L92.73 30.66H88.46L84.51 17.13L80.47 30.66L76.12 30.6L72.74 18.7H72.73Z" fill="#F9F6F5"/>
<path d="M129.69 23.39C128.67 23.19 127.63 23.23 126.61 23.28V30.67L122.12 30.66V9.96001L132.44 10.15C135.97 10.64 138.07 13.87 137.58 17.2C137.81 19.6 136.23 21.5 134.11 22.58L138.47 30.56L133.57 30.66L129.71 23.4L129.69 23.39ZM132.23 18.92C133.6 17.59 133.44 14.98 131.75 14.12C130.15 13.31 128.37 13.46 126.62 13.49V19.71H129.89C130.65 19.71 131.58 19.56 132.24 18.92H132.23Z" fill="#F9F6F5"/>
<path d="M115.07 29C112.52 30.94 109.23 31.36 106.25 30.55C102.8 29.61 100.47 26.8 99.73 23.35C98.99 19.9 99.45 15.92 101.68 13.1C103.62 10.65 106.14 9.66 109.15 9.67C111.57 9.69 113.82 10.24 115.69 11.98C120.07 16.05 120.18 25.12 115.07 29ZM108.44 13.69C106.12 13.64 104.59 15.83 104.15 18.01C103.63 20.59 103.79 23.24 105.49 25.38C106.74 26.96 108.99 27.29 110.89 26.67C112.69 26.08 113.88 24.35 114.23 22.26C114.89 18.27 113.55 13.81 109.76 13.72C109.37 13.35 108.66 13.35 108.45 13.69H108.44Z" fill="#F9F6F5"/>
<path d="M158.32 36.48C158.23 42.17 158.15 47.87 158.06 53.59L154.9 53.55L147.38 42.75L147.3 53.57H143.59V36.17L146.9 36.14L154.3 46.9L154.34 36.16H157.86C158.15 36.07 158.33 36.22 158.33 36.48H158.32Z" fill="#F9F6F5"/>
<path d="M114.26 52.41C111.2 54.49 106.91 54.41 104.02 52.26C102.72 51.29 102.29 49.65 102.11 48.17L105.83 48.13C106.1 50.38 108.71 51.17 110.88 50.39C111.78 50.06 112.34 49.34 112.3 48.53C112.25 47.58 111.59 47.06 110.68 46.8L105.84 45.45C104.38 45.04 103.24 43.81 102.88 42.7C102.36 41.09 102.61 39.49 103.56 38.35C105.01 36.61 106.92 35.83 109.15 35.86C112.97 35.91 115.53 37.28 115.91 41.12H112.18C112.11 40.34 111.76 39.8 111.38 39.5C110.69 38.97 107.91 38.81 107.06 39.7C106.6 40.18 106.33 41.29 106.86 41.9C107.48 42.62 108.45 42.73 109.29 42.98L112.95 44.05C114.65 44.55 115.82 46.16 116.04 47.64C116.3 49.39 115.92 51.27 114.27 52.39L114.26 52.41Z" fill="#F9F6F5"/>
<path d="M135.15 36.09C135.77 36.29 135.85 36.84 135.39 37.75C136.26 39.24 137.39 40.02 138.77 40.08C139.73 39.64 140.33 40.08 140.59 41.4C140.55 41.45 140.51 41.58 140.59 41.81C139.44 41.64 138.29 41.58 137.12 41.61L136.58 41.31C136.34 40.28 135.56 39.74 134.56 39.39C132.19 38.56 129.6 40.03 129.03 42.57C128.69 44.09 128.71 45.86 129.11 47.3C129.71 49.44 131.24 50.46 133.36 50.45C135.35 50.44 137.2 49.3 137.13 47.12H133.37V44.15L140.82 44.17C140.93 46.13 140.91 48.07 140.1 49.88C138.96 52.42 136.38 53.74 133.64 53.88C129.15 54.11 125.67 51.08 125.03 46.69C124.63 43.95 125.05 41.08 126.81 38.86C127.91 37.47 129.44 36.28 131.18 36.16C132.33 36.08 133.5 36.01 134.69 35.95L135.16 36.1L135.15 36.09Z" fill="#F9F6F5"/>
<path d="M145.07 18.94C145.28 19.23 145.42 19.29 145.49 18.89L152.68 10.01H158.08L150.45 19.17L158.2 30.63L152.87 30.65L147.21 22.16C146.86 22.68 146.6 22.9 146.35 23.19L145.8 22.96C144.9 21.16 144.26 19.32 143.89 17.44L143.86 11.33L141.89 11.31C142.03 12.14 141.96 13 141.68 13.89C142.43 14.7 142.42 15.61 141.63 16.63L141.59 29.69L143.75 29.58L143.85 24.63C144.36 23.67 145.2 23.28 145.3 24.46C145.15 24.71 145.07 25.03 145.07 25.43V30.67L141.05 30.7C140.82 30.7 140.59 30.65 140.59 30.44C140.81 23.82 140.82 16.86 140.59 10.24C140.59 10.16 140.62 9.98 140.83 9.98L145.08 10V18.94H145.07Z" fill="#F9F6F5"/>
<path d="M92.5801 39.03L92.8501 38.53L98.1101 38.42C98.1801 38.39 98.2001 37 97.9901 36.89C97.5901 36.69 89.4601 36.71 89.0601 36.9C88.8701 36.99 88.8501 38.46 88.9101 38.52C89.1101 38.71 91.3501 38.59 91.8401 38.55L92.3601 38.97C92.2901 39.02 91.8801 39.12 91.8801 39.38V43.4C92.3701 43.13 92.7301 43.12 93.1501 43.12C95.1401 43.27 97.1501 43.32 99.1901 43.25C99.4801 44.28 99.3201 45.26 99.3201 46.35H91.8701L91.8801 50.36H99.8701L99.8501 53.59H88.1601L88.0601 36.17L99.8501 36.15V39.14L92.5601 39.03H92.5801Z" fill="#F9F6F5"/>
<path d="M84.0999 39.61L84.17 40.73C85.45 41.94 84.6699 42.56 81.8299 42.59C81.5699 42.29 81.34 41.93 81.13 41.51L80.59 41.66C79.29 39.92 77.39 39.39 74.91 40.04V49.71C75.82 49.91 76.7999 49.92 77.8499 49.73L78.4999 50.16L79.0699 50.6C80.4299 49.99 82.44 51.26 81.02 52.41C80.33 52.97 71.3999 53.17 71.0299 52.83C70.9399 52.75 70.8799 52.63 70.8199 52.5V36.33L78.95 36.25C81.04 36.62 82.8899 37.83 84.1099 39.62L84.0999 39.61Z" fill="#F9F6F5"/>
<path d="M146.36 23.18L145.3 24.45C145.12 24.35 144.87 24.19 144.7 24.24C144.48 24.3 144.32 24.62 144.31 24.93L144.25 30C143.13 30.16 142.19 30.23 141.07 30.14L141.16 16.49L141.92 14.92C140.06 13.57 142.5 12.61 141.04 10.98C142.17 10.63 143.19 10.73 144.37 10.8L144.39 17.19C144.39 19.77 146.03 21.13 146.36 23.18Z" fill="#F9F6F5"/>
<path d="M118.37 52.6C118.45 52.38 118.53 52.39 118.62 52.6C118.84 47.63 118.83 42.36 118.62 37.39C118.48 37.57 118.4 37.54 118.37 37.31L118.41 36.15H122.33L122.34 53.58H118.41L118.37 52.59V52.6Z" fill="#F9F6F5"/>
<path d="M78.9401 36.24L70.9401 36.42V52.35L78.4201 52.42C79.8301 52.43 81.0301 52.4 80.9501 51.47C80.8701 50.42 78.4001 51.58 78.4901 50.16C78.4501 49.5 78.6701 49.5 78.9301 50.11C79.2401 50.08 79.5001 49.92 79.7101 49.61L79.6901 48.99C81.5401 47.21 81.4001 44.36 80.7701 42.06L81.1201 41.51C81.2501 41.65 81.5601 41.78 81.6801 42.17C83.3701 41.6 84.6901 42.34 84.5401 41.22C83.9101 41.46 83.6901 40.92 83.6901 40.5C83.6901 40.15 83.8401 39.83 84.0901 39.61C85.6301 42.39 85.8801 45.81 84.6601 48.85C83.5701 51.56 81.2301 53.45 78.2901 53.49L70.6801 53.6V36.16L78.9301 36.25L78.9401 36.24Z" fill="#F9F6F5"/>
<path d="M77.15 19.27C76.86 18.96 76.9 18.52 76.88 17.92C76.36 18.45 76.57 19.01 76.58 19.68C76.51 20.01 75.68 20 75.39 19.88C75.02 19.72 74.93 19.4 74.71 18.86C74.44 18.21 73.1 18.12 72.72 18.7L70.23 10H75.13L76.93 17.46C77.09 18.11 77.28 18.69 77.16 19.27H77.15Z" fill="#F9F6F5"/>
<path d="M92.58 39.03C92.52 39.08 92.43 39.11 92.37 38.96C91.07 39.21 89.86 39.11 88.41 38.99V36.4L98.62 36.38L98.64 38.9L92.58 39.03Z" fill="#F9F6F5"/>
<path d="M140.59 41.4L139.98 40.25C137.6 41.25 136.47 39.96 134.85 37.85C134.89 37.37 135.41 36.57 135.15 36.09C137.97 36.62 140.13 38.72 140.59 41.4Z" fill="#F9F6F5"/>
<path d="M140.59 30.44V10.23C140.66 10.21 140.85 10.3 140.85 10.51V30.14C140.85 30.34 140.69 30.43 140.59 30.43V30.44Z" fill="#F9F6F5"/>
<path d="M158.06 53.59V36.68C158.06 36.49 158.22 36.39 158.32 36.48V53.34C158.32 53.57 158.15 53.61 158.06 53.59Z" fill="#F9F6F5"/>
<path d="M118.62 52.61H118.37V37.31L118.62 37.39C118.84 42.38 118.83 47.62 118.62 52.6V52.61Z" fill="#F9F6F5"/>
<path d="M140.58 41.81L137.34 41.9C136.89 41.91 136.66 41.66 136.58 41.31C137.93 41.44 139.27 41.23 140.58 41.82V41.81Z" fill="#F9F6F5"/>
<path d="M99.2101 43.26L93.4201 43.38C93.2501 43.38 93.1401 43.24 93.1601 43.13L99.2001 43.26H99.2101Z" fill="#F9F6F5"/>
<path d="M134.67 35.94C133.53 36.39 132.4 36.06 131.16 36.15C131.12 35.99 131.31 35.89 131.58 35.89L134.67 35.94Z" fill="#F9F6F5"/>
<path d="M129.69 23.39L126.61 23.28C127.58 23.17 128.71 23.02 129.69 23.39Z" fill="#F9F6F5"/>
<path d="M145.49 18.88C145.83 18.99 145.76 19.15 145.69 19.23C145.53 19.45 145.3 19.53 145.07 19.35C144.87 19.19 144.84 19.07 145.07 18.93L145.49 18.88Z" fill="#F9F6F5"/>
<path d="M109.76 13.71L108.45 13.68C108.66 13.34 109.38 13.34 109.76 13.71Z" fill="#F9F6F5"/>
<path d="M118.62 52.61V37.4C118.72 37.4 118.87 37.47 118.87 37.66V52.35C118.87 52.54 118.72 52.61 118.62 52.61Z" fill="#F9F6F5"/>
<path d="M78.9301 50.11C79.1101 49.85 79.3901 49.7 79.7101 49.61C79.6401 49.77 79.6201 50.1 79.4401 50.26C79.2701 50.39 79.0401 50.35 78.9301 50.11Z" fill="#F9F6F5"/>
<path d="M63.44 21.46V42.13C63.39 42.35 63.31 42.35 63.2 42.13C56.37 42.05 49.55 41.97 42.75 41.88C42.61 41.66 42.65 41.39 42.87 41.05L61.93 21.89L62.76 21.77C62.36 21.36 63.08 21.22 63.45 21.45L63.44 21.46Z" fill="#B54C4A"/>
<path d="M41.98 21.2L41.81 21.7H21.56L21.26 21.2C21.1 21.11 21.11 21.02 21.28 20.94C21.42 20.71 21.5 20.73 21.54 20.98C22.29 20.38 22.93 19.69 23.46 18.89C23.34 18.74 23.18 18.5 23.26 18.38C23.79 17.69 25.05 16.52 25.74 15.9C26.3 15.09 26.86 14.76 27.44 14.91C28.1 14.59 28.62 14.07 28.94 13.41L28.75 12.89L40.94 0.67C41.19 0.51 41.47 0.44 41.76 0.56C41.29 0.2 41.28 0.0399998 41.72 0.0699998C41.69 0.31 41.88 0.31 41.97 0.27C42.19 7.04 42.19 14.37 41.97 21.2H41.98Z" fill="#133E4E"/>
<path d="M61.73 1.99V2.55L43.61 20.56L43.04 20.42C42.92 20.52 42.81 20.52 42.73 20.4C42.67 13.67 42.59 6.95 42.48 0.26C42.41 0.48 42.33 0.48 42.23 0.26C42.23 0.18 42.25 0 42.49 0L58.41 0.06L60.51 0.9C61.17 1.16 61.34 1.66 61.73 1.98V1.99Z" fill="#E03A47"/>
<path d="M63.19 42.64C63.33 47.47 63.36 52.37 63.28 57.33C63.49 57.31 63.5 57.5 63.44 57.58L63.24 58.84C62.61 60.88 61.04 62.57 58.98 63.14L57.45 63.32H42.47C42.26 63.22 42.2 63.13 42.28 63.05L42.66 61.97L60.59 44.32C61.24 43.43 61.95 42.96 62.72 42.92C62.23 42.6 62.79 42.34 63.17 42.62L63.19 42.64Z" fill="#C39036"/>
<path d="M21.01 2.00001C20.8 7.97001 20.79 14.24 21.01 20.2C21.23 20.24 21.17 20.53 21.01 20.7C14.74 20.78 8.41002 20.86 2.03002 20.95C1.57002 21.03 1.08002 21.11 0.54002 21.2C0.46002 21.36 0.38002 21.36 0.29002 21.2C0.22002 21.42 0.13002 21.41 0.0400195 21.2L0.0200195 20.97C0.0600195 20.69 0.11002 20.61 0.34002 20.77L0.72002 19.69L19.69 0.770006L20.68 0.490006C21.26 0.250006 21.2 1.59001 21.01 2.01001V2.00001Z" fill="#1B5860"/>
<path d="M20.7701 63.07C16.14 63.15 11.48 63.24 6.77005 63.32H6.28005C5.80005 63.12 5.28005 63.11 4.79005 63.28C3.62005 63.01 2.62005 62.38 1.78005 61.57L1.55005 61.09C7.73005 54.92 13.98 48.88 20.31 42.97L20.67 43.09C20.94 49.48 20.9401 56.56 20.7701 63.06V63.07Z" fill="#839145"/>
<path d="M5.73998 0.0500031C10.76 0.110003 15.76 0.190003 20.76 0.270003C20.95 0.390003 20.92 0.460003 20.68 0.490003L0.349976 20.76C0.209976 15.65 0.119976 10.47 0.0999756 5.21C0.109976 2.56 3.12998 0.0500031 5.73998 0.0500031Z" fill="#1F959E"/>
<path d="M20.45 42.91C20.69 42.82 20.79 42.87 20.68 43.1L1.79001 61.57C0.59001 60.41 0.0100098 58.97 0.0100098 57.34C0.27001 52.63 0.23001 47.61 0.0400098 42.89V42.39C0.11001 42.23 0.19001 42.23 0.28001 42.39C6.97001 42.49 13.69 42.56 20.43 42.6V42.92L20.45 42.91Z" fill="#B4CA54"/>
<path d="M63.31 5.03C63.39 10.29 63.35 15.52 63.2 20.7C56.79 20.78 50.38 20.87 43.98 20.95C43.74 21.17 43.03 21.13 42.73 20.95C42.46 21.06 42.38 20.95 42.54 20.7C42.65 20.15 42.82 20.06 43.04 20.43L61.09 2.42C61.32 2.19 61.49 2.11 61.73 2C62.52 2.66 63.3 3.86 63.31 5.03Z" fill="#A62934"/>
<path d="M38.89 63.26L21.01 63.34C20.85 63.25 20.86 63.16 21.02 63.07C21.06 62.86 21.14 62.87 21.26 63.07C21.38 62.52 21.58 62.37 21.84 62.62C21.59 62.39 21.78 62.07 21.96 61.8C27.26 56.52 32.57 51.24 37.87 45.97L38.44 46.11C39.12 45.69 39.65 45.47 39.86 46.44L39.95 62.12C41.2 62.44 41.54 62.79 40.96 63.17L38.91 63.27L38.89 63.26Z" fill="#CDAB3C"/>
<path d="M42.23 43.64C42.12 50.12 42.07 56.63 42.09 63.16L41.48 63.32L38.89 63.26C39.48 63.26 40.19 62.9 41.01 63.04C40.56 62.68 40.09 62.86 39.44 62.78L39.35 46.2L38.43 46.1C38.31 45.95 38.14 45.71 38.22 45.6C39 44.52 40.76 42.79 41.99 42.4C42.05 42.23 42.13 42.24 42.23 42.4C42.88 42.72 43 43.39 42.23 43.64Z" fill="#CBAC3B"/>
<path d="M41.72 0.0700043C41.72 0.340004 41.71 0.440004 41.76 0.560004L41.25 0.820004H22.02L21.9 19.38L21.4 19.68L21.2 19.61L21.12 1.15C20.94 0.660004 20.96 0.360004 21.19 0.270004C20.93 0.280004 20.84 0.230004 21.01 0.0200043L41.72 0.0700043Z" fill="#1E7995"/>
<path d="M63.48 21.2L63.4 21.33C56.41 21.39 49.44 21.34 42.48 21.2C42.24 20.88 42.35 20.74 42.73 20.95H43.98C50.4 20.87 56.8 20.79 63.2 20.7L63.31 5.03L63.48 21.2Z" fill="#AF3139"/>
<path d="M63.48 21.2L63.44 21.46C63.14 21.46 62.95 21.58 62.75 21.78C56.12 21.98 49.46 22.04 42.77 21.95L42.47 21.45C42.31 21.38 42.31 21.29 42.47 21.2H63.47H63.48Z" fill="#F66B67"/>
<path d="M0.290039 21.45L0.790039 21.62V40.99L0.290039 41.88C0.510039 41.95 0.500039 42.03 0.290039 42.13C0.220039 42.29 0.130039 42.29 0.0400391 42.13V21.19H0.290039C0.510039 21.26 0.500039 21.35 0.290039 21.44V21.45Z" fill="#A5EFE0"/>
<path d="M21.01 42.13C21.31 42.51 21.18 42.65 20.76 42.38L20.72 42.57C13.91 42.56 7.10004 42.49 0.290039 42.38H0.0400391V42.13H0.290039L0.330039 41.99C7.22004 41.94 14.11 41.99 21.01 42.13Z" fill="#90B172"/>
<path d="M21.02 63.07V63.34L20.76 63.33C20.55 63.25 20.55 63.16 20.78 63.08L20.68 43.11C20.43 43.22 20.4 42.97 20.45 42.92C20.17 42.57 20.62 42.49 20.94 42.65C21.05 42.66 21.14 42.68 21.14 42.69C21.2 49.42 21.14 56.41 21.01 63.08L21.02 63.07Z" fill="#768842"/>
<path d="M42.23 21.2C42.16 21.42 42.07 21.41 41.98 21.2V0.270001C42.05 0.240001 42.16 0.270001 42.23 0.270001C42.34 7.09 42.43 13.97 42.48 20.91L42.23 21.21V21.2Z" fill="#003E4E"/>
<path d="M42.29 63.06C42.52 63.02 42.53 63.23 42.48 63.32H41.48C41.94 63.08 41.99 62.68 41.99 62.07L41.97 43.9C41.97 43.7 42.15 43.6 42.23 43.63C42.43 43.65 42.73 43.72 42.73 43.86C42.9 48.98 42.88 54.51 42.78 59.66C42.96 60.91 42.79 62.04 42.29 63.06Z" fill="#C6AB3C"/>
<path d="M0.350029 20.76C0.260029 20.79 0.110029 20.88 0.0300293 20.96L0.100029 5.21001C0.100029 5.21001 0.290029 5.34001 0.290029 5.53001L0.350029 20.77V20.76Z" fill="#21ADB7"/>
<path d="M63.28 57.33L63.19 42.64C62.98 42.56 62.98 42.47 63.2 42.39C62.98 42.31 62.99 42.23 63.2 42.14H63.44L63.28 57.34V57.33Z" fill="#E2A73D"/>
<path d="M21.01 0.0200043C20.95 0.100004 20.96 0.300004 21.19 0.270004C21.12 0.740004 20.99 0.650004 20.76 0.270004H6.04999C5.85999 0.270004 5.75999 0.120004 5.73999 0.0500043L21.01 0.0300043V0.0200043Z" fill="#20A7B6"/>
<path d="M0.01 57.34L0.04 42.89C0.13 42.87 0.28 42.98 0.28 43.16V57.07C0.28 57.25 0.13 57.36 0 57.34H0.01Z" fill="#D2E95F"/>
<path d="M20.77 63.07L20.75 63.32H6.77998C6.76998 63.22 6.86998 63.07 7.04998 63.07H20.77Z" fill="#86963E"/>
<path d="M6.29005 63.32L4.80005 63.29C5.13005 62.94 5.94005 62.93 6.29005 63.32Z" fill="#96A44F"/>
<path d="M58.98 63.15C58.45 63.29 58.02 63.33 57.45 63.33C57.82 62.95 58.45 63.04 58.98 63.15Z" fill="#D5A84A"/>
<path d="M63.24 58.85C63.15 58.42 63.1 57.88 63.44 57.59C63.6 58.08 63.37 58.45 63.24 58.85Z" fill="#DEAC4E"/>
<path d="M62.7501 21.78L42.7401 41.89C42.6601 42.06 42.5701 42.05 42.4701 41.89C42.2501 35.33 42.2501 28.11 42.4701 21.45H62.4101C62.6301 21.5 62.6901 21.64 62.7501 21.78Z" fill="#EB6561"/>
<path d="M63.2 42.13C56.55 42.35 49.21 42.36 42.47 42.13C42.31 42.06 42.31 41.97 42.47 41.88H42.74H62.93C63.14 41.88 63.2 42.02 63.2 42.13Z" fill="#AD404C"/>
<path d="M41.76 0.560004L28.94 13.42C28.64 14.08 28.1 14.62 27.44 14.92L23.46 18.9C22.98 19.72 22.25 20.36 21.54 20.99C21.43 20.93 21.33 20.94 21.28 20.95C20.98 20.77 21.07 19.89 21.4 19.69L21.52 0.270004H40.96C41.3 0.270004 41.55 0.420004 41.76 0.570004V0.560004Z" fill="#1C778F"/>
<path d="M21.4001 19.68C21.4001 20.01 21.1001 20.55 21.2801 20.94L21.2601 21.2C21.1901 21.42 21.1101 21.41 21.0101 21.2C20.7901 21.13 20.7901 21.05 21.0101 20.95C20.7901 20.88 20.8001 20.8 21.0101 20.7V20.2C20.7901 14.22 20.8001 7.96999 21.0101 1.99999C21.0101 1.46999 21.2201 0.799994 20.6801 0.479995L20.7601 0.259995H21.1901L21.4001 19.67V19.68Z" fill="#1B6575"/>
<path d="M21.54 20.99C22.03 20.16 22.8 19.57 23.46 18.9C23.23 19.81 22.37 20.65 21.54 20.99Z" fill="#123B48"/>
<path d="M27.4399 14.92L28.9399 13.42C28.8699 14.19 28.2099 14.85 27.4399 14.92Z" fill="#143B45"/>
<path d="M42.54 20.7C42.77 20.66 42.78 20.87 42.73 20.95C42.58 20.95 42.48 21.05 42.48 21.2C42.41 21.42 42.33 21.41 42.23 21.2V0.270004H42.48C42.57 6.97 42.66 13.68 42.77 20.4L42.54 20.7Z" fill="#B83C48"/>
<path d="M43.04 20.43L42.54 20.7L42.48 0.259995C42.58 0.259995 42.73 0.319994 42.73 0.529994V19.7C42.73 20.04 42.88 20.27 43.04 20.43Z" fill="#E93A47"/>
<path d="M62.73 42.94L42.29 63.06L42.23 43.63V42.39C42.28 42.21 42.36 42.22 42.46 42.39C49.22 42.48 55.98 42.55 62.76 42.62L62.74 42.94H62.73Z" fill="#FAB643"/>
<path d="M63.2 42.38V42.63C62.9 42.55 62.85 42.81 62.73 42.93C62.52 42.77 62.27 42.62 61.93 42.62H42.97C42.68 42.62 42.51 42.54 42.45 42.38C49.1 42.15 56.44 42.16 63.19 42.38H63.2Z" fill="#FDC142"/>
<path d="M21.01 21.2C21.17 21.28 21.16 21.37 20.99 21.45C20.9 21.93 20.75 22.03 20.53 21.74L19.95 21.99L0.580029 21.95L0.280029 21.45V21.2H0.530029C7.26003 20.98 14.31 20.98 21 21.2H21.01Z" fill="#9DE0CD"/>
<path d="M2.03004 20.95C8.26004 20.73 14.81 20.74 21.01 20.95V21.2H0.540039C0.920039 20.8 1.53004 20.95 2.03004 20.95Z" fill="#28686E"/>
<path d="M21.01 20.7V20.95H2.03003C2.03003 20.85 2.12003 20.7 2.31003 20.7H21.01Z" fill="#17555F"/>
<path d="M21.01 20.2C20.91 20.21 20.76 20.12 20.76 19.92V2.29001C20.76 2.10001 20.92 2.00001 21.01 2.01001V20.21V20.2Z" fill="#1A5459"/>
<path d="M20.76 42.38C21.05 42.27 21.14 42.39 20.95 42.63L20.46 42.9C20.32 42.77 20.09 42.62 19.76 42.62H0.56999C0.37999 42.62 0.27999 42.47 0.28999 42.37H20.76V42.38Z" fill="#BBCE4D"/>
<path d="M63.2 20.7C63.2 20.78 63.17 20.95 62.94 20.95H43.98C43.97 20.85 44.06 20.7 44.26 20.7H63.21H63.2Z" fill="#A22731"/>
<path d="M39.7301 42.13C40.5001 42.21 41.25 42.3 41.99 42.39L38.43 46.1L21.8401 62.62L21.4501 62.71C21.4501 56.08 21.3901 49.47 21.2701 42.88C20.8701 42.65 21.1401 42.21 21.5201 42.13H39.74H39.7301ZM39.7501 42.61C39.7801 42.53 39.68 42.38 39.61 42.38L21.9901 42.4C21.9701 42.48 22.0601 42.63 22.1301 42.63L39.7501 42.6V42.61Z" fill="#FCD745"/>
<path d="M21.51 42.14C21.47 42.4 21.39 42.65 21.26 42.89C21.34 49.46 21.42 56.03 21.52 62.61L21.26 63.07C21.19 63.09 21.08 63.08 21.02 63.07L20.95 42.64C20.72 42.68 20.71 42.47 20.76 42.39C20.88 42.36 20.98 42.27 21.01 42.14C21.08 41.98 21.17 41.98 21.26 42.14H21.51Z" fill="#B9B046"/>
<path d="M21.83 62.62C21.66 62.79 21.5 62.99 21.25 63.07V42.89C21.35 42.88 21.5 42.97 21.5 43.17V62.3C21.5 62.5 21.74 62.62 21.82 62.63L21.83 62.62Z" fill="#FEDF49"/>
<path d="M42.23 42.14C42.45 42.22 42.44 42.3 42.23 42.4H41.99L39.99 42.37C39.82 42.37 39.73 42.25 39.74 42.14H42.24H42.23Z" fill="#FEFC42"/>
<path d="M42.48 21.45V41.89V42.14C42.41 42.31 42.32 42.31 42.23 42.14V21.21H42.48V21.46V21.45Z" fill="#FB7672"/>
<path d="M20.53 21.74L20.73 22.01C14.43 28.63 7.99003 35.15 1.39003 41.57H0.730029C1.08003 41.96 0.700029 42.05 0.280029 41.89V21.45H19.74C20.09 21.48 20.31 21.58 20.53 21.74Z" fill="#8FCFC2"/>
<path d="M21.27 41.88V42.13H21.01H0.290039V41.88C0.480039 41.81 0.610039 41.69 0.740039 41.56C7.45004 41.35 14.2 41.28 20.97 41.38L21.27 41.88Z" fill="#619398"/>
<path d="M63.2 42.13V42.38L42.46 42.39L42.23 42.4V42.14H42.48L63.2 42.13Z" fill="#D68148"/>
<path d="M21.15 32.67L21.27 41.88H1.06999C0.84999 41.83 0.78999 41.7 0.73999 41.56L20.53 21.73C20.66 21.6 20.82 21.51 20.99 21.44C21.15 25.08 21.21 28.82 21.15 32.66V32.67Z" fill="#6A998F"/>
<path d="M21.15 32.67L20.99 21.45L21.01 21.2H21.26L21.15 32.67Z" fill="#9BBCB6"/>
<path d="M39.75 42.61L22.13 42.64C22.06 42.64 21.96 42.49 21.99 42.41L39.61 42.39C39.68 42.39 39.78 42.54 39.75 42.62V42.61Z" fill="#FEDB47"/>
</svg>
