<svg width="150" height="151" viewBox="0 0 150 151" fill="none" xmlns="http://www.w3.org/2000/svg">
<path fill-rule="evenodd" clip-rule="evenodd" d="M98.2588 9.02034C107.088 9.61209 115.025 10.6895 120.167 12.504C121.731 13.0561 121.935 14.5499 121.961 14.9479C121.994 15.4649 121.898 15.9467 121.823 16.2589C121.659 16.9387 121.351 17.7621 120.986 18.6285C120.24 20.4023 119.054 22.8224 117.599 25.6265C114.678 31.2552 110.556 38.6503 106.372 45.9883C102.184 53.3332 97.9179 60.6472 94.6998 66.1234C93.0905 68.8619 91.7427 71.1418 90.7971 72.7374C90.3242 73.5352 89.9519 74.162 89.6977 74.5895L89.3084 75.2434C89.3084 75.2434 89.3067 75.2462 87.1596 73.9656C85.0125 72.685 85.0129 72.6844 85.0129 72.6844L85.4001 72.0339C85.6532 71.6083 86.0243 70.9837 86.4958 70.1881C87.4388 68.597 88.7834 66.3225 90.3891 63.5901C93.601 58.1244 97.8552 50.8307 102.029 43.5116C106.206 36.1858 110.287 28.8609 113.161 23.3235C114.603 20.5446 115.712 18.2701 116.378 16.6889C116.393 16.6514 116.409 16.6144 116.424 16.5781C111.928 15.3586 105.456 14.5139 97.9244 14.0091C89.2098 13.4251 79.3106 13.3088 69.8948 13.5122C60.4784 13.7157 51.5909 14.238 44.904 14.9222C41.5532 15.2651 38.8027 15.6439 36.8314 16.0331C36.4197 16.1144 36.0527 16.1941 35.7293 16.2712C36.2236 17.1538 36.9276 18.2982 37.8339 19.6908C40.098 23.17 43.4658 27.959 47.5123 33.5682C51.9397 39.7055 57.1234 46.7479 62.506 54.0608C66.9808 60.1402 71.5931 66.4064 76.0227 72.4948C81.3917 79.8741 87.0098 87.4806 92.3962 94.7691L93.0912 95.7095C98.2231 102.653 103.126 109.287 107.367 115.118C111.793 121.205 115.525 126.451 118.052 130.281C119.309 132.185 120.31 133.801 120.951 135.02C121.263 135.613 121.55 136.223 121.721 136.78C121.803 137.047 121.906 137.449 121.91 137.905C121.913 138.318 121.833 139.269 121.007 140.012C120.522 140.448 119.954 140.667 119.644 140.775C119.264 140.908 118.84 141.015 118.409 141.106C117.544 141.289 116.445 141.448 115.182 141.59C112.645 141.874 109.237 142.112 105.275 142.304C97.3399 142.689 87.031 142.898 76.6796 142.918C66.3283 142.938 55.899 142.769 47.7232 142.394C43.6402 142.207 40.0846 141.967 37.3691 141.668C36.0148 141.52 34.8279 141.352 33.8705 141.16C33.0299 140.991 32.0078 140.741 31.2601 140.274C30.596 139.859 30.2831 139.262 30.1451 138.843C30.0134 138.443 29.9976 138.086 30.0003 137.867C30.0055 137.431 30.0963 137.02 30.1726 136.729C30.3348 136.109 30.6162 135.36 30.9489 134.565C31.6274 132.943 32.6816 130.748 33.9656 128.215C36.5426 123.13 40.1447 116.484 43.791 109.902C47.4407 103.315 51.148 96.7659 53.942 91.866C55.3392 89.4156 56.5086 87.3765 57.3288 85.9497C57.7389 85.2363 58.0618 84.6759 58.2822 84.2937L58.6197 83.7091C58.6197 83.7091 58.6212 83.7066 60.7853 84.9583C62.9493 86.21 62.9491 86.2105 62.9491 86.2105L62.6135 86.7918C62.3941 87.1721 62.0724 87.7304 61.6636 88.4417C60.8458 89.8642 59.6794 91.8981 58.2855 94.3427C55.4972 99.2326 51.8008 105.762 48.1647 112.325C44.5251 118.895 40.9594 125.475 38.4256 130.475C37.1837 132.925 36.2133 134.95 35.6043 136.393C36.2443 136.497 37.0157 136.6 37.9149 136.698C40.4772 136.98 43.9124 137.214 47.9522 137.399C56.0221 137.769 66.3666 137.938 76.67 137.918C86.9732 137.898 97.1998 137.69 105.033 137.31C108.956 137.12 112.242 136.888 114.624 136.621C115.143 136.563 115.609 136.504 116.023 136.445C115.499 135.543 114.782 134.402 113.879 133.035C111.42 129.309 107.747 124.142 103.323 118.059C99.0933 112.244 94.2005 105.623 89.0634 98.6721L88.3751 97.7408C82.9899 90.4538 77.3612 82.833 71.9796 75.4364C67.5947 69.4096 62.9884 63.1513 58.5094 57.0658C53.1023 49.7194 47.8805 42.6249 43.4573 36.4934C39.4061 30.8776 35.9776 26.0054 33.6431 22.4179C32.4823 20.6341 31.5518 19.1072 30.9485 17.939C30.6538 17.3687 30.3841 16.7835 30.2188 16.2457C30.138 15.983 30.0445 15.6142 30.0287 15.2C30.0148 14.8364 30.0433 14.0201 30.6503 13.2783M60.7853 84.9583L62.9491 86.2105C63.6403 85.0153 63.2322 83.4855 62.037 82.7942C61.5001 82.4837 60.8958 82.3951 60.3303 82.5C59.6369 82.6287 59.002 83.0483 58.6212 83.7066L60.7853 84.9583ZM98.2588 9.02034C89.3569 8.42374 79.3036 8.30774 69.7867 8.51338L98.2588 9.02034ZM69.7867 8.51338C60.2705 8.71901 51.2452 9.24726 44.395 9.94821L69.7867 8.51338ZM44.395 9.94821C40.9772 10.2979 38.053 10.6954 35.863 11.1278L44.395 9.94821ZM35.863 11.1278C34.7743 11.3427 33.804 11.5783 33.0214 11.8422L35.863 11.1278ZM33.0214 11.8422C32.6309 11.9738 32.2338 12.1301 31.8702 12.3207L33.0214 11.8422ZM31.8702 12.3207C31.5443 12.4917 31.0512 12.7885 30.6503 13.2783L31.8702 12.3207ZM84.4653 25.1923C76.4988 24.9722 66.6307 25.1335 58.8688 26.1104C57.4989 26.2828 56.2486 25.3121 56.0762 23.9422C55.9038 22.5723 56.8745 21.322 58.2444 21.1495C66.3663 20.1273 76.5196 19.9708 84.6034 20.1942C88.6531 20.3061 92.2299 20.5146 94.8175 20.7655C96.1003 20.8899 97.1972 21.03 98.0039 21.1857C98.3893 21.2601 98.8166 21.3579 99.1921 21.4969C99.3644 21.5607 99.6751 21.6862 99.9882 21.9112C100.197 22.061 101.099 22.7453 101.099 24.0403C101.099 24.4697 100.989 24.8918 100.778 25.266L83.6188 55.7713C82.9419 56.9747 81.4176 57.4015 80.2142 56.7245C79.0108 56.0476 78.584 54.5233 79.261 53.3199L94.7502 25.7838C94.616 25.7699 94.4776 25.756 94.335 25.7422C91.8964 25.5057 88.4408 25.3021 84.4653 25.1923ZM85.879 76.1127C84.6932 75.4054 84.3056 73.8702 85.0129 72.6844L87.1596 73.9656L89.3055 75.2455L89.3067 75.2462C88.9463 75.8505 88.3709 76.2476 87.7364 76.3982C87.1258 76.543 86.4605 76.4595 85.879 76.1127ZM70.5997 94.5421C71.8001 95.2244 72.22 96.7506 71.5377 97.951L56.0907 125.126C56.3101 125.144 56.5404 125.162 56.7816 125.179C59.4242 125.368 63.1042 125.496 67.1742 125.555C75.3271 125.674 84.8436 125.514 90.4425 125.047C91.8185 124.933 93.0268 125.955 93.1415 127.331C93.2562 128.707 92.2337 129.915 90.8578 130.03C85.0172 130.517 75.3112 130.674 67.1014 130.555C62.9901 130.495 59.2037 130.365 56.4253 130.166C55.0485 130.068 53.8531 129.948 52.9715 129.799C52.5504 129.728 52.0801 129.631 51.6674 129.483C51.4762 129.415 51.138 129.281 50.8014 129.033C50.5242 128.829 49.7051 128.141 49.7051 126.903C49.7051 126.47 49.8176 126.044 50.0317 125.668L67.1909 95.4801C67.8732 94.2798 69.3994 93.8598 70.5997 94.5421Z" fill="#FAFAFA"/>
<path d="M30.6503 13.2783L98.2588 9.02034L69.7867 8.51338L44.395 9.94821L35.863 11.1278L33.0214 11.8422L31.8702 12.3207L30.6503 13.2783Z" fill="#FAFAFA"/>
<path d="M87.1596 73.9656C85.0125 72.685 85.0129 72.6844 85.0129 72.6844C84.3056 73.8702 84.6932 75.4054 85.879 76.1127C86.4605 76.4595 87.1258 76.543 87.7364 76.3982C88.3709 76.2476 88.9463 75.8505 89.3067 75.2462L89.3055 75.2455L87.1596 73.9656Z" fill="#FAFAFA"/>
<path d="M87.1596 73.9656C85.0125 72.685 85.0129 72.6844 85.0129 72.6844C84.3056 73.8702 84.6932 75.4054 85.879 76.1127C86.4605 76.4595 87.1258 76.543 87.7364 76.3982C88.3709 76.2476 88.9463 75.8505 89.3067 75.2462L89.3055 75.2455L87.1596 73.9656Z" fill="#FAFAFA"/>
<path d="M87.1596 73.9656C85.0125 72.685 85.0129 72.6844 85.0129 72.6844C84.3056 73.8702 84.6932 75.4054 85.879 76.1127C86.4605 76.4595 87.1258 76.543 87.7364 76.3982C88.3709 76.2476 88.9463 75.8505 89.3067 75.2462L89.3055 75.2455L87.1596 73.9656Z" fill="#FAFAFA"/>
<path d="M87.1596 73.9656C85.0125 72.685 85.0129 72.6844 85.0129 72.6844C84.3056 73.8702 84.6932 75.4054 85.879 76.1127C86.4605 76.4595 87.1258 76.543 87.7364 76.3982L89.3055 75.2455L87.1596 73.9656Z" fill="#FAFAFA"/>
</svg>
