<svg width="500" height="400" viewBox="0 0 500 400" fill="none" xmlns="http://www.w3.org/2000/svg">
<rect width="500" height="400" fill="#F3F5FF"/>
<path d="M359.761 174.551C359.655 173.95 360.057 173.376 360.659 173.269C361.26 173.163 361.834 173.565 361.94 174.166L364.821 190.538L362.643 190.922L359.761 174.551Z" fill="#212121"/>
<path d="M366.649 174.993C366.649 174.382 367.144 173.886 367.755 173.886C368.366 173.886 368.861 174.382 368.861 174.993V191.616H366.649V174.993Z" fill="#212121"/>
<path d="M375.863 174.04C376.072 173.466 376.706 173.17 377.28 173.379C377.854 173.588 378.151 174.224 377.942 174.798L372.267 190.419L370.188 189.661L375.863 174.04Z" fill="#212121"/>
<path d="M357.8 186.524C357.8 185.42 358.695 184.524 359.8 184.524H376.152C377.257 184.524 378.152 185.42 378.152 186.524V205.8H357.8V186.524Z" fill="#5770F5"/>
<path d="M358.3 186.524C358.3 185.696 358.972 185.024 359.8 185.024H376.152C376.981 185.024 377.652 185.696 377.652 186.524V205.3H358.3V186.524Z" stroke="black" stroke-opacity="0.25"/>
<path d="M357.8 195.492H378.225" stroke="black"/>
<mask id="path-7-inside-1" fill="white">
<path fill-rule="evenodd" clip-rule="evenodd" d="M330.25 206.132H276.175C274.863 206.132 273.8 205.069 273.8 203.757C273.8 202.446 274.863 201.382 276.175 201.382H328.262L341.868 162.393C342.3 161.155 343.654 160.501 344.893 160.933C346.131 161.365 346.785 162.72 346.352 163.958L331.485 206.564L330.25 206.132Z"/>
</mask>
<path fill-rule="evenodd" clip-rule="evenodd" d="M330.25 206.132H276.175C274.863 206.132 273.8 205.069 273.8 203.757C273.8 202.446 274.863 201.382 276.175 201.382H328.262L341.868 162.393C342.3 161.155 343.654 160.501 344.893 160.933C346.131 161.365 346.785 162.72 346.352 163.958L331.485 206.564L330.25 206.132Z" fill="#989EBC"/>
<path d="M330.25 206.132L330.579 205.188L330.419 205.132H330.25V206.132ZM328.262 201.382V202.382H328.972L329.206 201.712L328.262 201.382ZM341.868 162.393L340.923 162.064V162.064L341.868 162.393ZM344.893 160.933L345.222 159.989V159.989L344.893 160.933ZM346.352 163.958L345.408 163.629V163.629L346.352 163.958ZM331.485 206.564L331.155 207.508L332.1 207.837L332.429 206.893L331.485 206.564ZM330.25 205.132H276.175V207.132H330.25V205.132ZM276.175 205.132C275.416 205.132 274.8 204.517 274.8 203.757H272.8C272.8 205.621 274.311 207.132 276.175 207.132V205.132ZM274.8 203.757C274.8 202.998 275.416 202.382 276.175 202.382V200.382C274.311 200.382 272.8 201.894 272.8 203.757H274.8ZM276.175 202.382H328.262V200.382H276.175V202.382ZM329.206 201.712L342.812 162.723L340.923 162.064L327.318 201.053L329.206 201.712ZM342.812 162.723C343.062 162.006 343.846 161.627 344.563 161.877L345.222 159.989C343.462 159.375 341.538 160.304 340.923 162.064L342.812 162.723ZM344.563 161.877C345.28 162.128 345.658 162.912 345.408 163.629L347.297 164.288C347.911 162.528 346.982 160.603 345.222 159.989L344.563 161.877ZM345.408 163.629L330.541 206.234L332.429 206.893L347.297 164.288L345.408 163.629ZM331.814 205.619L330.579 205.188L329.92 207.077L331.155 207.508L331.814 205.619Z" fill="black" fill-opacity="0.25" mask="url(#path-7-inside-1)"/>
<path d="M246.3 204.804H398.3V208.482C398.3 211.243 396.061 213.482 393.3 213.482H251.3C248.539 213.482 246.3 211.243 246.3 208.482V204.804Z" fill="#3C3D4E"/>
<path d="M246.8 205.304H397.8V208.482C397.8 210.967 395.785 212.982 393.3 212.982H251.3C248.815 212.982 246.8 210.967 246.8 208.482V205.304Z" stroke="black" stroke-opacity="0.25"/>
<path d="M255.167 213.482H274.167L262.767 321.949H255.167V213.482Z" fill="#3C3D4E"/>
<path d="M369.167 213.482H388.167V321.949H381.2L369.167 213.482Z" fill="#3C3D4E"/>
<mask id="path-13-inside-2" fill="white">
<path fill-rule="evenodd" clip-rule="evenodd" d="M204.79 252.041C199.975 254.825 198.328 260.987 201.112 265.802L234.676 323.85H249.211L252.364 322.154L218.809 256.194C216.191 251.046 209.79 249.15 204.79 252.041Z"/>
</mask>
<path fill-rule="evenodd" clip-rule="evenodd" d="M204.79 252.041C199.975 254.825 198.328 260.987 201.112 265.802L234.676 323.85H249.211L252.364 322.154L218.809 256.194C216.191 251.046 209.79 249.15 204.79 252.041Z" fill="#4255B9"/>
<path d="M201.112 265.802L201.978 265.302L201.112 265.802ZM204.79 252.041L204.29 251.175L204.79 252.041ZM234.676 323.85L233.81 324.351L234.099 324.85H234.676V323.85ZM249.211 323.85V324.85H249.463L249.685 324.731L249.211 323.85ZM252.364 322.154L252.838 323.034L253.699 322.571L253.256 321.7L252.364 322.154ZM218.809 256.194L217.918 256.647L218.809 256.194ZM201.978 265.302C199.47 260.964 200.953 255.415 205.291 252.907L204.29 251.175C198.996 254.236 197.186 261.009 200.247 266.303L201.978 265.302ZM235.542 323.349L201.978 265.302L200.247 266.303L233.81 324.351L235.542 323.349ZM234.676 324.85H249.211V322.85H234.676V324.85ZM251.891 321.273L248.737 322.969L249.685 324.731L252.838 323.034L251.891 321.273ZM217.918 256.647L251.473 322.607L253.256 321.7L219.701 255.74L217.918 256.647ZM205.291 252.907C209.794 250.303 215.56 252.011 217.918 256.647L219.701 255.74C216.822 250.082 209.785 247.998 204.29 251.175L205.291 252.907Z" fill="black" fill-opacity="0.25" mask="url(#path-13-inside-2)"/>
<mask id="path-15-inside-3" fill="white">
<path fill-rule="evenodd" clip-rule="evenodd" d="M194.399 242.752L225.72 237.642C232.124 236.597 238.17 240.94 239.224 247.343C239.621 249.751 239.254 252.108 238.302 254.167C238.17 254.921 237.949 255.672 237.634 256.408L209.121 322.9L194.446 322.9L191.99 321.926L213.597 263.427L198.217 265.937L194.399 242.752Z"/>
</mask>
<path fill-rule="evenodd" clip-rule="evenodd" d="M194.399 242.752L225.72 237.642C232.124 236.597 238.17 240.94 239.224 247.343C239.621 249.751 239.254 252.108 238.302 254.167C238.17 254.921 237.949 255.672 237.634 256.408L209.121 322.9L194.446 322.9L191.99 321.926L213.597 263.427L198.217 265.937L194.399 242.752Z" fill="#4255B9"/>
<path d="M225.72 237.642L225.881 238.629L225.72 237.642ZM194.399 242.752L194.238 241.765L193.249 241.927L193.412 242.915L194.399 242.752ZM239.224 247.343L240.211 247.18L239.224 247.343ZM238.302 254.167L237.394 253.747L237.339 253.866L237.317 253.995L238.302 254.167ZM237.634 256.408L238.553 256.802L238.553 256.802L237.634 256.408ZM209.121 322.9L209.121 323.9L209.781 323.9L210.04 323.294L209.121 322.9ZM194.446 322.9L194.077 323.83L194.254 323.9L194.446 323.9L194.446 322.9ZM191.99 321.926L191.052 321.58L190.714 322.496L191.622 322.856L191.99 321.926ZM213.597 263.427L214.535 263.774L215.13 262.164L213.436 262.44L213.597 263.427ZM198.217 265.937L197.231 266.099L197.393 267.084L198.378 266.924L198.217 265.937ZM225.559 236.655L194.238 241.765L194.56 243.739L225.881 238.629L225.559 236.655ZM240.211 247.18C239.067 240.234 232.507 235.522 225.559 236.655L225.881 238.629C231.74 237.673 237.273 241.647 238.237 247.505L240.211 247.18ZM239.209 254.587C240.243 252.352 240.641 249.793 240.211 247.18L238.237 247.505C238.6 249.71 238.265 251.865 237.394 253.747L239.209 254.587ZM238.553 256.802C238.899 255.994 239.142 255.169 239.287 254.34L237.317 253.995C237.198 254.672 237 255.349 236.715 256.014L238.553 256.802ZM210.04 323.294L238.553 256.802L236.715 256.014L208.202 322.506L210.04 323.294ZM194.446 323.9L209.121 323.9L209.121 321.9L194.446 321.9L194.446 323.9ZM191.622 322.856L194.077 323.83L194.814 321.97L192.359 320.997L191.622 322.856ZM212.659 263.081L191.052 321.58L192.928 322.273L214.535 263.774L212.659 263.081ZM198.378 266.924L213.758 264.414L213.436 262.44L198.056 264.95L198.378 266.924ZM193.412 242.915L197.231 266.099L199.204 265.774L195.386 242.59L193.412 242.915Z" fill="black" fill-opacity="0.25" mask="url(#path-15-inside-3)"/>
<mask id="path-17-inside-4" fill="white">
<path fill-rule="evenodd" clip-rule="evenodd" d="M228.273 180.056L201.302 149.05L189.117 159.649L221.379 196.738C223.191 198.822 226.349 199.042 228.433 197.229L228.591 197.091C228.797 197.002 229 196.898 229.198 196.778L262.481 176.685L262.906 177.598C263.372 178.6 264.561 179.034 265.563 178.568L277.797 172.876L281.611 178.097C281.857 178.432 282.316 178.528 282.676 178.319C283.036 178.109 283.179 177.66 283.005 177.281L280.435 171.648L280.473 171.631L275.276 160.459C274.81 159.457 273.62 159.023 272.619 159.489L264.311 163.354L264.285 163.3L228.273 180.056Z"/>
</mask>
<path fill-rule="evenodd" clip-rule="evenodd" d="M228.273 180.056L201.302 149.05L189.117 159.649L221.379 196.738C223.191 198.822 226.349 199.042 228.433 197.229L228.591 197.091C228.797 197.002 229 196.898 229.198 196.778L262.481 176.685L262.906 177.598C263.372 178.6 264.561 179.034 265.563 178.568L277.797 172.876L281.611 178.097C281.857 178.432 282.316 178.528 282.676 178.319C283.036 178.109 283.179 177.66 283.005 177.281L280.435 171.648L280.473 171.631L275.276 160.459C274.81 159.457 273.62 159.023 272.619 159.489L264.311 163.354L264.285 163.3L228.273 180.056Z" fill="#633333" fill-opacity="0.8"/>
<path d="M201.302 149.05L202.057 148.394L201.4 147.639L200.646 148.295L201.302 149.05ZM228.273 180.056L227.518 180.713L228.012 181.28L228.695 180.963L228.273 180.056ZM189.117 159.649L188.461 158.895L187.706 159.551L188.363 160.305L189.117 159.649ZM221.379 196.738L220.624 197.395H220.624L221.379 196.738ZM228.433 197.229L229.089 197.984H229.089L228.433 197.229ZM228.591 197.091L228.194 196.173L228.052 196.235L227.935 196.337L228.591 197.091ZM229.198 196.778L228.681 195.922L229.198 196.778ZM262.481 176.685L263.388 176.264L262.918 175.254L261.964 175.829L262.481 176.685ZM262.906 177.598L263.812 177.176V177.176L262.906 177.598ZM265.563 178.568L265.985 179.474L265.563 178.568ZM277.797 172.876L278.604 172.286L278.12 171.623L277.375 171.969L277.797 172.876ZM281.611 178.097L282.419 177.507V177.507L281.611 178.097ZM282.676 178.319L283.179 179.183L283.179 179.183L282.676 178.319ZM283.005 177.281L282.096 177.696V177.696L283.005 177.281ZM280.435 171.648L280.014 170.742L279.114 171.16L279.526 172.063L280.435 171.648ZM280.473 171.631L280.895 172.537L281.802 172.116L281.38 171.209L280.473 171.631ZM275.276 160.459L274.369 160.88L274.369 160.88L275.276 160.459ZM272.619 159.489L272.197 158.582L272.619 159.489ZM264.311 163.354L263.413 163.792L263.843 164.675L264.733 164.26L264.311 163.354ZM264.285 163.3L265.184 162.862L264.754 161.979L263.863 162.393L264.285 163.3ZM200.548 149.706L227.518 180.713L229.027 179.4L202.057 148.394L200.548 149.706ZM189.773 160.404L201.959 149.805L200.646 148.295L188.461 158.895L189.773 160.404ZM222.133 196.082L189.872 158.993L188.363 160.305L220.624 197.395L222.133 196.082ZM227.776 196.475C226.109 197.925 223.583 197.749 222.133 196.082L220.624 197.395C222.799 199.895 226.589 200.159 229.089 197.984L227.776 196.475ZM227.935 196.337L227.776 196.475L229.089 197.984L229.248 197.846L227.935 196.337ZM228.681 195.922C228.522 196.019 228.359 196.102 228.194 196.173L228.988 198.009C229.235 197.902 229.478 197.777 229.715 197.635L228.681 195.922ZM261.964 175.829L228.681 195.922L229.715 197.635L262.998 177.541L261.964 175.829ZM263.812 177.176L263.388 176.264L261.574 177.107L261.999 178.02L263.812 177.176ZM265.141 177.661C264.64 177.894 264.045 177.677 263.812 177.176L261.999 178.02C262.698 179.522 264.482 180.173 265.985 179.474L265.141 177.661ZM277.375 171.969L265.141 177.661L265.985 179.474L278.219 173.783L277.375 171.969ZM282.419 177.507L278.604 172.286L276.989 173.466L280.804 178.687L282.419 177.507ZM282.172 177.455C282.255 177.406 282.362 177.429 282.419 177.507L280.804 178.687C281.352 179.436 282.377 179.65 283.179 179.183L282.172 177.455ZM282.096 177.696C282.056 177.608 282.089 177.504 282.172 177.455L283.179 179.183C283.983 178.714 284.302 177.712 283.915 176.866L282.096 177.696ZM279.526 172.063L282.096 177.696L283.915 176.866L281.345 171.233L279.526 172.063ZM280.052 170.724L280.014 170.742L280.857 172.555L280.895 172.537L280.052 170.724ZM274.369 160.88L279.567 172.053L281.38 171.209L276.182 160.037L274.369 160.88ZM273.04 160.396C273.541 160.163 274.136 160.38 274.369 160.88L276.182 160.037C275.483 158.535 273.699 157.883 272.197 158.582L273.04 160.396ZM264.733 164.26L273.04 160.396L272.197 158.582L263.89 162.447L264.733 164.26ZM263.386 163.738L263.413 163.792L265.21 162.916L265.184 162.862L263.386 163.738ZM228.695 180.963L264.707 164.207L263.863 162.393L227.851 179.15L228.695 180.963Z" fill="black" fill-opacity="0.25" mask="url(#path-17-inside-4)"/>
<mask id="path-19-inside-5" fill="white">
<path fill-rule="evenodd" clip-rule="evenodd" d="M189.021 126.472C176.71 122.006 163.11 128.366 158.645 140.676L131.35 215.921L175.93 232.092L195.822 177.257L198.092 181.729L221.379 165.047L202.201 138.274C199.59 132.978 195.009 128.644 189.021 126.472Z"/>
</mask>
<path fill-rule="evenodd" clip-rule="evenodd" d="M189.021 126.472C176.71 122.006 163.11 128.366 158.645 140.676L131.35 215.921L175.93 232.092L195.822 177.257L198.092 181.729L221.379 165.047L202.201 138.274C199.59 132.978 195.009 128.644 189.021 126.472Z" fill="#212121"/>
<path d="M158.645 140.676L159.585 141.017L158.645 140.676ZM189.021 126.472L189.362 125.532L189.021 126.472ZM131.35 215.921L130.41 215.58L130.069 216.52L131.009 216.861L131.35 215.921ZM175.93 232.092L175.589 233.032L176.529 233.373L176.87 232.433L175.93 232.092ZM195.822 177.257L196.713 176.804L195.668 174.747L194.881 176.916L195.822 177.257ZM198.092 181.729L197.201 182.181L197.728 183.22L198.675 182.541L198.092 181.729ZM221.379 165.047L221.962 165.859L222.775 165.277L222.192 164.464L221.379 165.047ZM202.201 138.274L201.304 138.716L201.34 138.79L201.388 138.856L202.201 138.274ZM159.585 141.017C163.862 129.226 176.888 123.135 188.68 127.412L189.362 125.532C176.532 120.878 162.359 127.505 157.705 140.335L159.585 141.017ZM132.29 216.262L159.585 141.017L157.705 140.335L130.41 215.58L132.29 216.262ZM176.271 231.152L131.691 214.981L131.009 216.861L175.589 233.032L176.271 231.152ZM194.881 176.916L174.99 231.751L176.87 232.433L196.762 177.598L194.881 176.916ZM198.984 181.276L196.713 176.804L194.93 177.71L197.201 182.181L198.984 181.276ZM220.797 164.234L197.51 180.916L198.675 182.541L221.962 165.859L220.797 164.234ZM201.388 138.856L220.567 165.629L222.192 164.464L203.014 137.692L201.388 138.856ZM188.68 127.412C194.416 129.493 198.802 133.643 201.304 138.716L203.098 137.832C200.377 132.314 195.603 127.796 189.362 125.532L188.68 127.412Z" fill="black" fill-opacity="0.25" mask="url(#path-19-inside-5)"/>
<circle cx="206.217" cy="98.7" r="23.75" fill="#633333" fill-opacity="0.8"/>
<circle cx="206.217" cy="98.7" r="23.25" stroke="black" stroke-opacity="0.25"/>
<mask id="path-23-inside-6" fill="white">
<path fill-rule="evenodd" clip-rule="evenodd" d="M204.074 86.0727L198.822 93.95H182.942C184.761 82.6396 194.566 74 206.39 74C219.465 74 230.073 84.5668 230.139 97.627L224.266 95.1255L204.703 85.8978L204.313 85.7138L204.074 86.0727Z"/>
</mask>
<path fill-rule="evenodd" clip-rule="evenodd" d="M204.074 86.0727L198.822 93.95H182.942C184.761 82.6396 194.566 74 206.39 74C219.465 74 230.073 84.5668 230.139 97.627L224.266 95.1255L204.703 85.8978L204.313 85.7138L204.074 86.0727Z" fill="black" fill-opacity="0.9"/>
<path d="M198.822 93.95V94.95H199.357L199.654 94.5047L198.822 93.95ZM204.074 86.0727L204.906 86.6274L204.074 86.0727ZM182.942 93.95L181.955 93.7912L181.768 94.95H182.942V93.95ZM230.139 97.627L229.748 98.547L231.147 99.143L231.139 97.6219L230.139 97.627ZM224.266 95.1255L223.839 96.0299L223.856 96.038L223.874 96.0455L224.266 95.1255ZM204.703 85.8978L204.276 86.8022H204.276L204.703 85.8978ZM204.313 85.7138L204.739 84.8094L203.959 84.4413L203.481 85.1591L204.313 85.7138ZM199.654 94.5047L204.906 86.6274L203.242 85.518L197.99 93.3953L199.654 94.5047ZM182.942 94.95H198.822V92.95H182.942V94.95ZM206.39 73C194.068 73 183.85 82.0038 181.955 93.7912L183.929 94.1088C185.671 83.2754 195.065 75 206.39 75V73ZM231.139 97.6219C231.07 84.0117 220.016 73 206.39 73V75C218.915 75 229.076 85.1219 229.139 97.632L231.139 97.6219ZM223.874 96.0455L229.748 98.547L230.531 96.7069L224.657 94.2054L223.874 96.0455ZM204.276 86.8022L223.839 96.0299L224.692 94.221L205.13 84.9934L204.276 86.8022ZM203.886 86.6182L204.276 86.8022L205.13 84.9934L204.739 84.8094L203.886 86.6182ZM204.906 86.6274L205.145 86.2685L203.481 85.1591L203.242 85.518L204.906 86.6274Z" fill="black" fill-opacity="0.25" mask="url(#path-23-inside-6)"/>
<path d="M129.45 241.519L139.661 236.45L181.996 321.721L178.252 323.58L129.45 241.519Z" fill="#3C3D4E"/>
<path d="M145.541 250.7L156.223 254.681L123.182 323.75L118.909 322.158L145.541 250.7Z" fill="#3C3D4E"/>
<path d="M100.695 164.713C100.311 162.538 101.764 160.463 103.939 160.08L119.45 157.345C121.626 156.961 123.7 158.414 124.084 160.589L135.927 227.753L112.537 231.877L100.695 164.713Z" fill="#3C3D4E"/>
<path d="M103.8 210.467C103.8 207.79 106.378 205.869 108.943 206.633L204.493 235.123C206.188 235.629 207.35 237.187 207.35 238.956V272.35C207.35 274.559 205.559 276.35 203.35 276.35H107.8C105.591 276.35 103.8 274.559 103.8 272.35V210.467Z" fill="#3C3D4E"/>
<path d="M104.3 210.467C104.3 208.125 106.556 206.443 108.8 207.113L204.35 235.602C205.833 236.045 206.85 237.409 206.85 238.956V272.35C206.85 274.283 205.283 275.85 203.35 275.85H107.8C105.867 275.85 104.3 274.283 104.3 272.35V210.467Z" stroke="black" stroke-opacity="0.25"/>
<path d="M440 322.9H60" stroke="black" stroke-width="2" stroke-linecap="round"/>
</svg>
