<svg width="500" height="400" viewBox="0 0 500 400" fill="none" xmlns="http://www.w3.org/2000/svg">
<rect width="500" height="400" fill="#F3F5FF"/>
<mask id="path-1-inside-1" fill="white">
<path fill-rule="evenodd" clip-rule="evenodd" d="M224.136 252.272C219.327 255.218 217.619 261.618 220.321 266.568L250.634 322.095H266.433L268.62 320.842L237.998 256.415C235.473 251.103 229.138 249.209 224.136 252.272Z"/>
</mask>
<path fill-rule="evenodd" clip-rule="evenodd" d="M224.136 252.272C219.327 255.218 217.619 261.618 220.321 266.568L250.634 322.095H266.433L268.62 320.842L237.998 256.415C235.473 251.103 229.138 249.209 224.136 252.272Z" fill="#4255B9"/>
<path d="M220.321 266.568L221.199 266.089L220.321 266.568ZM224.136 252.272L223.614 251.42L224.136 252.272ZM250.634 322.095L249.757 322.574L250.041 323.095H250.634V322.095ZM266.433 322.095V323.095H266.699L266.93 322.963L266.433 322.095ZM268.62 320.842L269.117 321.71L269.921 321.25L269.523 320.413L268.62 320.842ZM237.998 256.415L238.901 255.985L237.998 256.415ZM221.199 266.089C218.752 261.606 220.304 255.792 224.658 253.125L223.614 251.42C218.35 254.643 216.486 261.629 219.443 267.047L221.199 266.089ZM251.512 321.616L221.199 266.089L219.443 267.047L249.757 322.574L251.512 321.616ZM250.634 323.095H266.433V321.095H250.634V323.095ZM268.123 319.975L265.936 321.227L266.93 322.963L269.117 321.71L268.123 319.975ZM237.095 256.844L267.717 321.272L269.523 320.413L238.901 255.985L237.095 256.844ZM224.658 253.125C229.151 250.374 234.824 252.066 237.095 256.844L238.901 255.985C236.123 250.14 229.125 248.045 223.614 251.42L224.658 253.125Z" fill="black" fill-opacity="0.25" mask="url(#path-1-inside-1)"/>
<mask id="path-3-inside-2" fill="white">
<path fill-rule="evenodd" clip-rule="evenodd" d="M198.139 241.638L229.672 239.433C234.043 239.127 238.027 241.228 240.326 244.607C240.892 245.22 241.39 245.913 241.804 246.683L282.345 322.052L280.789 322.914V322.054H263.689V322.376L228.245 263.341L199.795 265.33L198.139 241.638Z"/>
</mask>
<path fill-rule="evenodd" clip-rule="evenodd" d="M198.139 241.638L229.672 239.433C234.043 239.127 238.027 241.228 240.326 244.607C240.892 245.22 241.39 245.913 241.804 246.683L282.345 322.052L280.789 322.914V322.054H263.689V322.376L228.245 263.341L199.795 265.33L198.139 241.638Z" fill="#4255B9"/>
<path d="M229.672 239.433L229.742 240.431H229.742L229.672 239.433ZM198.139 241.638L198.069 240.641L197.071 240.71L197.141 241.708L198.139 241.638ZM240.326 244.607L239.5 245.17L239.541 245.231L239.592 245.286L240.326 244.607ZM241.804 246.683L240.924 247.156V247.156L241.804 246.683ZM282.345 322.052L282.83 322.927L283.694 322.448L283.226 321.578L282.345 322.052ZM280.789 322.914H279.789V324.611L281.273 323.789L280.789 322.914ZM280.789 322.054H281.789V321.054H280.789V322.054ZM263.689 322.054V321.054H262.689V322.054H263.689ZM263.689 322.376L262.831 322.891L264.689 325.984V322.376H263.689ZM228.245 263.341L229.102 262.826L228.786 262.301L228.175 262.343L228.245 263.341ZM199.795 265.33L198.798 265.4L198.868 266.398L199.865 266.328L199.795 265.33ZM229.603 238.436L198.069 240.641L198.208 242.636L229.742 240.431L229.603 238.436ZM241.153 244.045C238.662 240.383 234.343 238.104 229.603 238.436L229.742 240.431C233.744 240.151 237.392 242.073 239.5 245.17L241.153 244.045ZM242.685 246.209C242.231 245.365 241.683 244.603 241.061 243.929L239.592 245.286C240.1 245.837 240.55 246.461 240.924 247.156L242.685 246.209ZM283.226 321.578L242.685 246.209L240.924 247.156L281.465 322.526L283.226 321.578ZM281.273 323.789L282.83 322.927L281.861 321.177L280.304 322.039L281.273 323.789ZM279.789 322.054V322.914H281.789V322.054H279.789ZM263.689 323.054H280.789V321.054H263.689V323.054ZM264.689 322.376V322.054H262.689V322.376H264.689ZM227.387 263.856L262.831 322.891L264.546 321.861L229.102 262.826L227.387 263.856ZM199.865 266.328L228.314 264.339L228.175 262.343L199.726 264.333L199.865 266.328ZM197.141 241.708L198.798 265.4L200.793 265.261L199.136 241.568L197.141 241.708Z" fill="black" fill-opacity="0.25" mask="url(#path-3-inside-2)"/>
<mask id="path-5-inside-3" fill="white">
<path fill-rule="evenodd" clip-rule="evenodd" d="M190.066 153.895L231.508 184.089L271.662 187.395L271.667 187.327L288.078 188.394C289.18 188.466 290.015 189.418 289.944 190.52L289.233 201.444L270.826 200.246L270.962 198.164L226.654 199.293C225.285 199.328 224.04 198.812 223.121 197.955C223.069 197.92 223.017 197.884 222.966 197.847L180.556 166.948L190.066 153.895Z"/>
</mask>
<path fill-rule="evenodd" clip-rule="evenodd" d="M190.066 153.895L231.508 184.089L271.662 187.395L271.667 187.327L288.078 188.394C289.18 188.466 290.015 189.418 289.944 190.52L289.233 201.444L270.826 200.246L270.962 198.164L226.654 199.293C225.285 199.328 224.04 198.812 223.121 197.955C223.069 197.92 223.017 197.884 222.966 197.847L180.556 166.948L190.066 153.895Z" fill="#633333" fill-opacity="0.8"/>
<path d="M231.508 184.089L230.919 184.897L231.146 185.062L231.426 185.085L231.508 184.089ZM190.066 153.895L190.655 153.087L189.847 152.498L189.258 153.306L190.066 153.895ZM271.662 187.395L271.58 188.392L272.594 188.475L272.66 187.46L271.662 187.395ZM271.667 187.327L271.732 186.329L270.734 186.264L270.669 187.262L271.667 187.327ZM288.078 188.394L288.013 189.392L288.013 189.392L288.078 188.394ZM289.944 190.52L290.941 190.585L290.941 190.585L289.944 190.52ZM289.233 201.444L289.168 202.442L290.166 202.507L290.231 201.509L289.233 201.444ZM270.826 200.246L269.828 200.182L269.763 201.179L270.761 201.244L270.826 200.246ZM270.962 198.164L271.96 198.229L272.031 197.136L270.936 197.164L270.962 198.164ZM226.654 199.293L226.629 198.293L226.654 199.293ZM223.121 197.955L223.802 197.223L223.745 197.17L223.679 197.126L223.121 197.955ZM222.966 197.847L222.377 198.655L222.377 198.655L222.966 197.847ZM180.556 166.948L179.748 166.359L179.159 167.167L179.967 167.756L180.556 166.948ZM232.097 183.28L190.655 153.087L189.477 154.703L230.919 184.897L232.097 183.28ZM271.744 186.398L231.59 183.092L231.426 185.085L271.58 188.392L271.744 186.398ZM272.66 187.46L272.665 187.392L270.669 187.262L270.665 187.33L272.66 187.46ZM271.602 188.324L288.013 189.392L288.143 187.397L271.732 186.329L271.602 188.324ZM288.013 189.392C288.564 189.428 288.981 189.904 288.946 190.455L290.941 190.585C291.049 188.932 289.796 187.504 288.143 187.397L288.013 189.392ZM288.946 190.455L288.235 201.379L290.231 201.509L290.941 190.585L288.946 190.455ZM289.298 200.446L270.891 199.249L270.761 201.244L289.168 202.442L289.298 200.446ZM271.824 200.311L271.96 198.229L269.964 198.099L269.828 200.182L271.824 200.311ZM226.68 200.293L270.987 199.164L270.936 197.164L226.629 198.293L226.68 200.293ZM222.439 198.687C223.542 199.714 225.037 200.335 226.68 200.293L226.629 198.293C225.532 198.321 224.539 197.91 223.802 197.223L222.439 198.687ZM222.377 198.655C222.438 198.7 222.5 198.743 222.562 198.785L223.679 197.126C223.637 197.098 223.596 197.069 223.555 197.039L222.377 198.655ZM179.967 167.756L222.377 198.655L223.555 197.039L181.145 166.14L179.967 167.756ZM189.258 153.306L179.748 166.359L181.364 167.537L190.874 154.484L189.258 153.306Z" fill="black" fill-opacity="0.25" mask="url(#path-5-inside-3)"/>
<mask id="path-7-inside-4" fill="white">
<path fill-rule="evenodd" clip-rule="evenodd" d="M197.324 160.147L241.988 185.332L282.254 183.961L282.251 183.892L298.675 183.05C299.778 182.993 300.718 183.842 300.775 184.945L301.335 195.878L282.914 196.822L282.807 194.738L238.929 200.997C237.573 201.19 236.277 200.822 235.264 200.078C235.209 200.049 235.153 200.019 235.098 199.988L189.392 174.215L197.324 160.147Z"/>
</mask>
<path fill-rule="evenodd" clip-rule="evenodd" d="M197.324 160.147L241.988 185.332L282.254 183.961L282.251 183.892L298.675 183.05C299.778 182.993 300.718 183.842 300.775 184.945L301.335 195.878L282.914 196.822L282.807 194.738L238.929 200.997C237.573 201.19 236.277 200.822 235.264 200.078C235.209 200.049 235.153 200.019 235.098 199.988L189.392 174.215L197.324 160.147Z" fill="#805A5C"/>
<path d="M241.988 185.332L241.496 186.203L241.741 186.341L242.022 186.332L241.988 185.332ZM197.324 160.147L197.815 159.276L196.944 158.785L196.453 159.656L197.324 160.147ZM282.254 183.961L282.289 184.96L283.305 184.925L283.253 183.909L282.254 183.961ZM282.251 183.892L282.2 182.893L281.201 182.945L281.252 183.943L282.251 183.892ZM298.675 183.05L298.726 184.049L298.726 184.049L298.675 183.05ZM300.775 184.945L301.773 184.894L301.773 184.894L300.775 184.945ZM301.335 195.878L301.386 196.876L302.385 196.825L302.334 195.827L301.335 195.878ZM282.914 196.822L281.915 196.874L281.966 197.872L282.965 197.821L282.914 196.822ZM282.807 194.738L283.806 194.687L283.75 193.594L282.666 193.748L282.807 194.738ZM238.929 200.997L238.788 200.007L238.929 200.997ZM235.264 200.078L235.857 199.272L235.793 199.225L235.723 199.189L235.264 200.078ZM235.098 199.988L234.607 200.859L234.607 200.859L235.098 199.988ZM189.392 174.215L188.521 173.724L188.03 174.595L188.901 175.086L189.392 174.215ZM242.479 184.461L197.815 159.276L196.833 161.018L241.496 186.203L242.479 184.461ZM282.22 182.961L241.953 184.333L242.022 186.332L282.289 184.96L282.22 182.961ZM283.253 183.909L283.25 183.841L281.252 183.943L281.256 184.012L283.253 183.909ZM282.302 184.891L298.726 184.049L298.624 182.051L282.2 182.893L282.302 184.891ZM298.726 184.049C299.278 184.02 299.748 184.445 299.776 184.996L301.773 184.894C301.688 183.239 300.278 181.966 298.624 182.051L298.726 184.049ZM299.776 184.996L300.336 195.929L302.334 195.827L301.773 184.894L299.776 184.996ZM301.284 194.879L282.863 195.824L282.965 197.821L301.386 196.876L301.284 194.879ZM283.913 196.771L283.806 194.687L281.808 194.789L281.915 196.874L283.913 196.771ZM239.071 201.987L282.948 195.728L282.666 193.748L238.788 200.007L239.071 201.987ZM234.672 200.883C235.887 201.776 237.444 202.219 239.071 201.987L238.788 200.007C237.702 200.162 236.668 199.868 235.857 199.272L234.672 200.883ZM234.607 200.859C234.673 200.896 234.739 200.932 234.806 200.966L235.723 199.189C235.678 199.166 235.634 199.142 235.59 199.117L234.607 200.859ZM188.901 175.086L234.607 200.859L235.59 199.117L189.883 173.344L188.901 175.086ZM196.453 159.656L188.521 173.724L190.263 174.706L198.195 160.638L196.453 159.656Z" fill="black" fill-opacity="0.25" mask="url(#path-7-inside-4)"/>
<mask id="path-9-inside-5" fill="white">
<path fill-rule="evenodd" clip-rule="evenodd" d="M169.942 138.555C157.912 138.293 147.948 147.833 147.686 159.863L145.903 241.81L189.468 242.758L190.767 183.02L194.472 186.747L211.184 163.481L185.237 144.842C184.802 144.529 184.353 144.252 183.892 144.008C180.168 140.714 175.302 138.672 169.942 138.555Z"/>
</mask>
<path fill-rule="evenodd" clip-rule="evenodd" d="M169.942 138.555C157.912 138.293 147.948 147.833 147.686 159.863L145.903 241.81L189.468 242.758L190.767 183.02L194.472 186.747L211.184 163.481L185.237 144.842C184.802 144.529 184.353 144.252 183.892 144.008C180.168 140.714 175.302 138.672 169.942 138.555Z" fill="#212121"/>
<path d="M147.686 159.863L146.686 159.842L147.686 159.863ZM169.942 138.555L169.92 139.555L169.942 138.555ZM145.903 241.81L144.903 241.788L144.882 242.788L145.881 242.81L145.903 241.81ZM189.468 242.758L189.446 243.758L190.446 243.779L190.468 242.78L189.468 242.758ZM190.767 183.02L191.477 182.315L189.819 180.648L189.768 182.999L190.767 183.02ZM194.472 186.747L193.763 187.452L194.595 188.289L195.284 187.33L194.472 186.747ZM211.184 163.481L211.997 164.065L212.58 163.253L211.768 162.669L211.184 163.481ZM185.237 144.842L184.653 145.654L184.653 145.654L185.237 144.842ZM183.892 144.008L183.23 144.757L183.319 144.835L183.424 144.891L183.892 144.008ZM148.686 159.885C148.935 148.407 158.442 139.305 169.92 139.555L169.964 137.555C157.382 137.281 146.96 147.259 146.686 159.842L148.686 159.885ZM146.903 241.832L148.686 159.885L146.686 159.842L144.903 241.788L146.903 241.832ZM189.49 241.758L145.925 240.81L145.881 242.81L189.446 243.758L189.49 241.758ZM189.768 182.999L188.468 242.736L190.468 242.78L191.767 183.042L189.768 182.999ZM195.181 186.042L191.477 182.315L190.058 183.725L193.763 187.452L195.181 186.042ZM210.372 162.898L193.66 186.163L195.284 187.33L211.997 164.065L210.372 162.898ZM184.653 145.654L210.601 164.294L211.768 162.669L185.82 144.03L184.653 145.654ZM183.424 144.891C183.845 145.114 184.255 145.368 184.653 145.654L185.82 144.03C185.348 143.691 184.861 143.389 184.361 143.124L183.424 144.891ZM169.92 139.555C175.035 139.666 179.676 141.614 183.23 144.757L184.555 143.258C180.66 139.814 175.569 137.677 169.964 137.555L169.92 139.555Z" fill="black" fill-opacity="0.25" mask="url(#path-9-inside-5)"/>
<circle cx="175.408" cy="106.695" r="23.75" transform="rotate(-18.6919 175.408 106.695)" fill="#633333" fill-opacity="0.8"/>
<circle cx="175.408" cy="106.695" r="23.25" transform="rotate(-18.6919 175.408 106.695)" stroke="black" stroke-opacity="0.25"/>
<mask id="path-13-inside-6" fill="white">
<path fill-rule="evenodd" clip-rule="evenodd" d="M169.33 95.4207L166.88 104.566L151.838 109.655C149.936 98.358 156.456 87.0317 167.655 83.2425C180.042 79.052 193.476 85.6619 197.724 98.012L191.358 97.5248L169.871 95.0533L169.442 95.004L169.33 95.4207Z"/>
</mask>
<path fill-rule="evenodd" clip-rule="evenodd" d="M169.33 95.4207L166.88 104.566L151.838 109.655C149.936 98.358 156.456 87.0317 167.655 83.2425C180.042 79.052 193.476 85.6619 197.724 98.012L191.358 97.5248L169.871 95.0533L169.442 95.004L169.33 95.4207Z" fill="black" fill-opacity="0.9"/>
<path d="M166.88 104.566L167.201 105.513L167.708 105.341L167.846 104.824L166.88 104.566ZM169.33 95.4207L168.365 95.1619L169.33 95.4207ZM151.838 109.655L150.852 109.821L151.047 110.978L152.159 110.602L151.838 109.655ZM197.724 98.012L197.648 99.0091L199.165 99.1251L198.67 97.6867L197.724 98.012ZM191.358 97.5248L191.244 98.5182L191.263 98.5204L191.282 98.5218L191.358 97.5248ZM169.871 95.0533L169.985 94.0599L169.985 94.0599L169.871 95.0533ZM169.442 95.004L169.556 94.0106L168.699 93.912L168.476 94.7452L169.442 95.004ZM167.846 104.824L170.296 95.6794L168.365 95.1619L165.914 104.307L167.846 104.824ZM152.159 110.602L167.201 105.513L166.56 103.618L151.518 108.708L152.159 110.602ZM167.335 82.2953C155.663 86.2443 148.87 98.0476 150.852 109.821L152.824 109.489C151.003 98.6685 157.249 87.8191 167.976 84.1898L167.335 82.2953ZM198.67 97.6867C194.243 84.8165 180.243 77.9283 167.335 82.2953L167.976 84.1898C179.84 80.1757 192.709 86.5073 196.779 98.3373L198.67 97.6867ZM191.282 98.5218L197.648 99.0091L197.801 97.0149L191.434 96.5277L191.282 98.5218ZM169.756 96.0468L191.244 98.5182L191.472 96.5313L169.985 94.0599L169.756 96.0468ZM169.328 95.9975L169.756 96.0468L169.985 94.0599L169.556 94.0106L169.328 95.9975ZM170.296 95.6794L170.408 95.2628L168.476 94.7452L168.365 95.1619L170.296 95.6794Z" fill="black" fill-opacity="0.25" mask="url(#path-13-inside-6)"/>
<mask id="path-15-inside-7" fill="white">
<path fill-rule="evenodd" clip-rule="evenodd" d="M322.988 203.986H268.914C267.602 203.986 266.539 202.923 266.539 201.611C266.539 200.3 267.602 199.236 268.914 199.236H321L334.606 160.247C335.038 159.008 336.393 158.355 337.631 158.787C338.869 159.219 339.523 160.574 339.091 161.812L324.223 204.417L322.988 203.986Z"/>
</mask>
<path fill-rule="evenodd" clip-rule="evenodd" d="M322.988 203.986H268.914C267.602 203.986 266.539 202.923 266.539 201.611C266.539 200.3 267.602 199.236 268.914 199.236H321L334.606 160.247C335.038 159.008 336.393 158.355 337.631 158.787C338.869 159.219 339.523 160.574 339.091 161.812L324.223 204.417L322.988 203.986Z" fill="#989EBC"/>
<path d="M322.988 203.986L323.318 203.042L323.158 202.986H322.988V203.986ZM321 199.236V200.236H321.711L321.945 199.566L321 199.236ZM334.606 160.247L333.662 159.917V159.917L334.606 160.247ZM337.631 158.787L337.961 157.843V157.843L337.631 158.787ZM339.091 161.812L338.147 161.482V161.482L339.091 161.812ZM324.223 204.417L323.894 205.362L324.838 205.691L325.168 204.747L324.223 204.417ZM322.988 202.986H268.914V204.986H322.988V202.986ZM268.914 202.986C268.154 202.986 267.539 202.371 267.539 201.611H265.539C265.539 203.475 267.05 204.986 268.914 204.986V202.986ZM267.539 201.611C267.539 200.852 268.154 200.236 268.914 200.236V198.236C267.05 198.236 265.539 199.747 265.539 201.611H267.539ZM268.914 200.236H321V198.236H268.914V200.236ZM321.945 199.566L335.55 160.576L333.662 159.917L320.056 198.907L321.945 199.566ZM335.55 160.576C335.801 159.859 336.585 159.481 337.302 159.731L337.961 157.843C336.201 157.229 334.276 158.158 333.662 159.917L335.55 160.576ZM337.302 159.731C338.019 159.981 338.397 160.765 338.147 161.482L340.035 162.141C340.649 160.382 339.72 158.457 337.961 157.843L337.302 159.731ZM338.147 161.482L323.279 204.088L325.168 204.747L340.035 162.141L338.147 161.482ZM324.553 203.473L323.318 203.042L322.659 204.93L323.894 205.362L324.553 203.473Z" fill="black" fill-opacity="0.25" mask="url(#path-15-inside-7)"/>
<path d="M350.197 172.558C350.093 171.956 350.496 171.381 351.097 171.273C351.699 171.165 352.271 171.566 352.376 172.168L355.26 188.778L353.081 189.168L350.197 172.558Z" fill="#212121"/>
<path d="M357.087 173.005C357.087 172.394 357.582 171.899 358.193 171.899C358.804 171.899 359.299 172.394 359.299 173.005V189.872H357.087V173.005Z" fill="#212121"/>
<path d="M366.306 172.043C366.512 171.467 367.145 171.172 367.719 171.384C368.293 171.596 368.591 172.235 368.384 172.812L362.705 188.657L360.626 187.889L366.306 172.043Z" fill="#212121"/>
<path d="M348.238 184.682C348.238 183.578 349.134 182.682 350.238 182.682H366.591C367.695 182.682 368.591 183.578 368.591 184.682V204.25H348.238V184.682Z" fill="#5770F5"/>
<path d="M348.738 184.682C348.738 183.854 349.41 183.182 350.238 183.182H366.591C367.419 183.182 368.091 183.854 368.091 184.682V203.75H348.738V184.682Z" stroke="black" stroke-opacity="0.25"/>
<path d="M348.238 193.8H368.663" stroke="black"/>
<path d="M235.188 203.304H387.188V207.1C387.188 209.861 384.95 212.1 382.188 212.1H240.188C237.427 212.1 235.188 209.861 235.188 207.1V203.304Z" fill="#3C3D4E"/>
<path d="M235.688 203.804H386.688V207.1C386.688 209.585 384.674 211.6 382.188 211.6H240.188C237.703 211.6 235.688 209.585 235.688 207.1V203.804Z" stroke="black" stroke-opacity="0.25"/>
<path d="M244.055 212.1H263.055L251.655 322.054H244.055V212.1Z" fill="#3C3D4E"/>
<path d="M358.055 212.1H377.055V322.054H370.089L358.055 212.1Z" fill="#3C3D4E"/>
<path d="M128.789 265.054H140.189L133.349 322.054H128.789V265.054Z" fill="#3C3D4E"/>
<path d="M207.638 266.004H219.038V323.004H214.858L207.638 266.004Z" fill="#3C3D4E"/>
<mask id="path-29-inside-8" fill="white">
<path fill-rule="evenodd" clip-rule="evenodd" d="M126.899 155.949C124.69 155.921 122.876 157.689 122.849 159.898L122.249 207.728C122.177 208.029 122.138 208.344 122.138 208.67V216.523L121.988 228.529L122.138 228.531V270.554C122.138 272.763 123.929 274.554 126.138 274.554H221.688C223.898 274.554 225.688 272.763 225.688 270.554V237.16C225.688 235.391 224.527 233.832 222.831 233.327L147.749 210.94L148.435 156.219L126.899 155.949Z"/>
</mask>
<path fill-rule="evenodd" clip-rule="evenodd" d="M126.899 155.949C124.69 155.921 122.876 157.689 122.849 159.898L122.249 207.728C122.177 208.029 122.138 208.344 122.138 208.67V216.523L121.988 228.529L122.138 228.531V270.554C122.138 272.763 123.929 274.554 126.138 274.554H221.688C223.898 274.554 225.688 272.763 225.688 270.554V237.16C225.688 235.391 224.527 233.832 222.831 233.327L147.749 210.94L148.435 156.219L126.899 155.949Z" fill="#3C3D4E"/>
<path d="M122.849 159.898L123.849 159.911L122.849 159.898ZM126.899 155.949L126.911 154.949L126.899 155.949ZM122.249 207.728L123.221 207.961L123.247 207.853L123.249 207.741L122.249 207.728ZM122.138 216.523L123.138 216.536V216.523H122.138ZM121.988 228.529L120.988 228.516L120.975 229.516L121.975 229.529L121.988 228.529ZM122.138 228.531H123.138V227.543L122.151 227.531L122.138 228.531ZM222.831 233.327L222.546 234.285L222.831 233.327ZM147.749 210.94L146.749 210.927L146.739 211.682L147.463 211.898L147.749 210.94ZM148.435 156.219L149.435 156.232L149.448 155.232L148.448 155.219L148.435 156.219ZM123.849 159.911C123.869 158.254 125.229 156.928 126.886 156.949L126.911 154.949C124.15 154.914 121.883 157.125 121.849 159.886L123.849 159.911ZM123.249 207.741L123.849 159.911L121.849 159.886L121.249 207.716L123.249 207.741ZM123.138 208.67C123.138 208.423 123.167 208.186 123.221 207.961L121.276 207.495C121.186 207.872 121.138 208.265 121.138 208.67H123.138ZM123.138 216.523V208.67H121.138V216.523H123.138ZM122.988 228.541L123.138 216.536L121.138 216.51L120.988 228.516L122.988 228.541ZM122.151 227.531L122 227.529L121.975 229.529L122.126 229.531L122.151 227.531ZM123.138 270.554V228.531H121.138V270.554H123.138ZM126.138 273.554C124.482 273.554 123.138 272.211 123.138 270.554H121.138C121.138 273.315 123.377 275.554 126.138 275.554V273.554ZM221.688 273.554H126.138V275.554H221.688V273.554ZM224.688 270.554C224.688 272.211 223.345 273.554 221.688 273.554V275.554C224.45 275.554 226.688 273.315 226.688 270.554H224.688ZM224.688 237.16V270.554H226.688V237.16H224.688ZM222.546 234.285C223.817 234.664 224.688 235.833 224.688 237.16H226.688C226.688 234.949 225.236 233 223.117 232.369L222.546 234.285ZM147.463 211.898L222.546 234.285L223.117 232.369L148.035 209.982L147.463 211.898ZM147.435 156.207L146.749 210.927L148.749 210.952L149.435 156.232L147.435 156.207ZM126.886 156.949L148.423 157.219L148.448 155.219L126.911 154.949L126.886 156.949Z" fill="#0F0F0F" fill-opacity="0.25" mask="url(#path-29-inside-8)"/>
<path d="M440 322.054H60" stroke="black" stroke-width="2" stroke-linecap="round"/>
</svg>
