<svg width="500" height="400" viewBox="0 0 500 400" fill="none" xmlns="http://www.w3.org/2000/svg">
<rect width="500" height="400" fill="#ECF0F3"/>
<path d="M225.693 105.788C224.175 107.423 222.141 113.769 221.314 116.737C222.015 118.489 220.341 121.555 219.416 122.869" stroke="black" stroke-width="0.8"/>
<path d="M233.285 93.9635C231.767 95.2482 230.511 97.1265 230.073 97.9051L228.029 102.723" stroke="black" stroke-width="0.8"/>
<path d="M225.109 105.496C227.328 102.81 230.414 102.528 231.679 102.723C234.014 101.905 235.669 99.9489 236.204 99.073C237.839 97.2044 242.141 95.6667 244.087 95.1314" stroke="black" stroke-width="0.8"/>
<path d="M260.729 127.978L262.919 129.438" stroke="black" stroke-width="0.8"/>
<path d="M245.256 121.701C248.176 126.255 253.48 129.827 255.767 131.044L264.088 125.204" stroke="black" stroke-width="0.8"/>
<path d="M239.416 73.0876C240.35 72.2701 241.752 72.747 242.336 73.0876" stroke="black" stroke-width="0.8"/>
<path d="M243.357 72.5036C245.109 73.3211 248.662 72.5523 250.219 72.0657C250.803 71.7153 250.851 70.4598 250.803 69.8759C250.803 69.0584 248.272 68.9513 247.007 69C246.423 69 243.941 70.3625 242.773 71.0438" stroke="black" stroke-width="0.8"/>
<path d="M234.307 68.708V70.1679" stroke="black" stroke-width="0.8"/>
<path d="M229.489 70.1679C229.489 71.6862 232.409 71.6764 233.869 71.4818" stroke="black" stroke-width="0.8"/>
<path d="M229.928 65.7883H228.614C228.03 67.1898 228.662 68.6107 229.052 69.146" stroke="black" stroke-width="0.8"/>
<path d="M231.533 66.2263C231.533 67.0438 234.161 68.708 235.475 69.4379" stroke="black" stroke-width="0.8"/>
<path d="M233.285 66.6642L235.037 68.4161" stroke="black" stroke-width="0.8"/>
<path d="M246.131 67.3942L241.021 70.0219" stroke="black" stroke-width="0.8"/>
<path d="M244.818 81.2628C244.818 81.8467 242.579 83.1606 241.46 83.7445C240.409 84.4452 237.032 84.0365 235.475 83.7445C234.891 83.3941 235.231 82.8199 235.475 82.5766" stroke="black" stroke-width="0.8"/>
<path d="M233.723 81.8467C235.124 82.8978 240.049 83.0633 242.336 83.0146" stroke="black" stroke-width="0.8"/>
<path d="M232.555 81.9927C235.241 81.1752 242.336 81.0681 245.547 81.1168" stroke="black" stroke-width="0.8"/>
<path d="M238.54 78.927C238.54 78.2263 239.416 78.3431 239.854 78.489" stroke="black" stroke-width="0.8"/>
<path d="M235.036 77.6132C235.036 78.4307 236.204 79.0244 236.788 79.219" stroke="black" stroke-width="0.8"/>
<path d="M263.212 76.0073C265.081 76.9416 277.227 86.9076 283.066 91.7737" stroke="black" stroke-width="0.8"/>
<path d="M259.708 67.5402C266.949 70.3431 278.491 85.1557 283.358 92.2117C284.409 97.8175 288.856 109.146 290.949 114.11C292.701 114.11 297.713 120.241 300 123.307C296.263 120.62 291.825 121.993 290.073 123.015L286.277 115.277C282.19 113.058 278.443 95.2774 277.08 86.6642" stroke="black" stroke-width="0.8"/>
<path d="M274.014 110.46C273.197 118.869 279.805 126.032 283.212 128.562C281.343 129.73 280.584 135.472 280.438 138.197C276.233 135.277 272.457 124.62 271.095 119.657" stroke="black" stroke-width="0.8"/>
<path d="M258.54 74.9854L262.628 82.2847L264.233 87.9781" stroke="black" stroke-width="0.8"/>
<path d="M236.642 58.927L234.891 60.9708C234.891 61.6715 236.448 61.8467 237.226 61.8467" stroke="black" stroke-width="0.8"/>
<path d="M247.445 56.5913L247.737 57.9051L248.905 55.8613" stroke="black" stroke-width="0.8"/>
<circle cx="229.635" cy="60.3869" r="0.4" stroke="black" stroke-width="0.367883"/>
<circle cx="229.343" cy="56.8832" r="0.4" stroke="black" stroke-width="0.367883"/>
<circle cx="247.445" cy="63.8905" r="0.4" stroke="black" stroke-width="0.367883"/>
<circle cx="248.321" cy="60.6789" r="0.4" stroke="black" stroke-width="0.367883"/>
<path d="M240.584 58.1971L242.044 56.5912" stroke="black" stroke-width="0.8"/>
<path d="M231.679 52.9416C234.715 54.343 242.774 55.0827 246.423 55.2774" stroke="black" stroke-width="0.8"/>
<path d="M228.759 53.9635C228.292 55.365 228.564 59.6083 228.759 61.5547C232.029 64.4744 242.871 65.399 247.883 65.4963C249.168 65.146 249.489 59.5109 249.489 56.7372" stroke="black" stroke-width="0.8"/>
<path d="M228.029 80.0949C228.613 78.8102 230.219 78.1971 230.949 78.0511" stroke="black" stroke-width="0.8"/>
<path d="M227.007 76.8832C227.591 75.4817 229.489 75.2287 230.365 75.2774" stroke="black" stroke-width="0.8"/>
<path d="M226.569 73.6715C227.27 73.0876 229.294 72.9416 230.219 72.9416" stroke="black" stroke-width="0.8"/>
<path d="M247.591 77.1752C248.992 77.1752 250.413 78.4404 250.948 79.073" stroke="black" stroke-width="0.8"/>
<path d="M246.569 78.927C247.62 78.927 249.051 80.3869 249.635 81.1168" stroke="black" stroke-width="0.8"/>
<path d="M255.474 70.3138C256.058 70.8978 255.036 72.4063 254.452 73.0876" stroke="black" stroke-width="0.8"/>
<path d="M256.35 68.562C258.102 69.9635 257.956 70.9951 257.664 71.3357L255.036 73.9635" stroke="black" stroke-width="0.8"/>
<path d="M257.519 67.5402L258.248 69" stroke="black" stroke-width="0.8"/>
<path d="M231.387 150.606H233.431C234.482 151.657 236.496 156.494 237.372 158.781" stroke="black" stroke-width="0.8"/>
<path d="M238.395 288.708C239.329 293.38 238.784 297.272 238.395 298.635" stroke="black" stroke-width="0.8"/>
<path d="M253.723 281.263L258.978 307.686" stroke="black" stroke-width="0.8"/>
<path d="M247.445 274.547C250.015 275.599 254.258 280.241 256.058 282.431" stroke="black" stroke-width="0.8"/>
<path d="M243.065 242.577C245.284 246.664 247.591 259.17 248.467 264.912C251.153 266.664 252.311 274.11 252.554 277.613" stroke="black" stroke-width="0.8"/>
<path d="M238.54 217.029C240.292 218.314 240.049 222.333 239.708 224.182C241.226 226.518 242.092 235.959 242.336 240.387" stroke="black" stroke-width="0.8"/>
<path d="M241.313 216.591C247.386 216.591 254.841 219.803 257.81 221.409" stroke="black" stroke-width="0.8"/>
<path d="M218.54 181.847C218.54 184.416 223.796 188.854 226.423 190.752C228.058 190.752 232.068 192.601 233.869 193.526" stroke="black" stroke-width="0.8"/>
<path d="M221.168 181.263C221.985 183.365 225.499 187.297 227.153 189L235.912 192.212M235.912 192.212V180.387M235.912 192.212C235.912 195.015 236.691 201.944 237.08 205.058C237.781 209.263 237.372 213.039 237.08 214.401" stroke="black" stroke-width="0.8"/>
<path d="M242.92 177.613C245.372 177.613 249.003 176.348 250.511 175.715" stroke="black" stroke-width="0.8"/>
<path d="M232.117 178.635H238.833" stroke="black" stroke-width="0.8"/>
<path d="M229.927 123.453C227.592 124.737 226.424 122.723 226.132 121.555C224.73 120.971 220.974 121.993 219.271 122.577C216.234 126.08 214.015 140.192 213.285 146.81" stroke="black" stroke-width="0.8"/>
<path d="M245.694 121.993H231.241" stroke="black" stroke-width="0.8"/>
<path d="M247.007 134.401L249.781 144.474" stroke="black" stroke-width="0.8"/>
<path d="M247.737 107.394C244.467 114.051 245.304 127.102 246.131 132.796" stroke="black" stroke-width="0.8"/>
<path d="M248.613 91.6277C247.445 91.9781 240.633 98.0024 237.372 100.971C237.022 102.723 234.599 105.302 233.431 106.372C231.095 107.657 229.44 110.898 228.905 112.358C228.905 113.993 226.959 115.083 225.985 115.423C225.051 115.423 221.606 120.192 220 122.577" stroke="black" stroke-width="0.8"/>
<path d="M236.935 90.0219L236.643 97.7591" stroke="black" stroke-width="0.8"/>
<path d="M233.139 97.7591V92.7956C232.789 91.6278 234.356 89.9733 235.183 89.292" stroke="black" stroke-width="0.8"/>
<path d="M240.876 90.0219V96.2993" stroke="black" stroke-width="0.8"/>
<path d="M244.817 88.4161V94.2555" stroke="black" stroke-width="0.8"/>
<path d="M248.76 87.6861C248.059 86.5183 246.91 86.6156 246.424 86.8102" stroke="black" stroke-width="0.8"/>
<path d="M252.117 87.6861V84.0365H250.219L248.613 86.2263V91.7737C249.314 90.8394 250.462 90.5085 250.949 90.4599" stroke="black" stroke-width="0.8" stroke-linejoin="round"/>
<path d="M247.738 105.642C246.687 110.898 252.069 115.521 254.891 117.175C256.643 118.226 261.168 114.693 263.212 112.796" stroke="black" stroke-width="0.8"/>
<path d="M265.11 105.642C263.708 110.314 258.686 113.331 256.351 114.255C253.664 114.839 251.046 109.633 250.073 106.956" stroke="black" stroke-width="0.8"/>
<path d="M259.271 88.4161C260.789 89 265.353 90.8978 267.446 91.7737" stroke="black" stroke-width="0.8"/>
<path d="M260.292 101.555L260.876 100.825" stroke="black" stroke-width="0.8"/>
<path d="M258.395 96.8832L258.832 96.4453" stroke="black" stroke-width="0.8"/>
<path d="M260.584 99.6569H261.314" stroke="black" stroke-width="0.8"/>
<path d="M257.956 95.8613H258.54" stroke="black" stroke-width="0.8"/>
<path d="M256.935 97.6132H257.519" stroke="black" stroke-width="0.8"/>
<path d="M256.204 99.5109L256.934 98.927" stroke="black" stroke-width="0.8"/>
<path d="M256.935 96.7372L257.664 96.4453" stroke="black" stroke-width="0.8"/>
<path d="M264.088 93.0876V94.9854" stroke="black" stroke-width="0.8"/>
<path d="M260 89.8759L259.708 91.9197" stroke="black" stroke-width="0.8"/>
<path d="M250.657 99.8029C251.358 100.153 251.825 101.603 251.971 102.285" stroke="black" stroke-width="0.8"/>
<path d="M251.825 97.3212L254.161 102.723" stroke="black" stroke-width="0.8"/>
<path d="M253.868 93.6715C253.868 94.6058 255.036 94.5474 255.62 94.4014" stroke="black" stroke-width="0.8"/>
<path d="M252.555 91.9197L255.474 91.6277" stroke="black" stroke-width="0.8"/>
<path d="M256.204 107.248C257.138 107.599 257.761 107.978 257.956 108.124C257.956 108.474 257.275 109.243 256.934 109.584" stroke="black" stroke-width="0.8"/>
<path d="M252.847 107.394C253.664 106.226 254.842 107.394 255.328 108.124" stroke="black" stroke-width="0.8"/>
<path d="M250.073 101.409C252.526 101.759 253.139 104.377 253.139 105.642C252.205 107.628 250.706 107.443 250.073 107.102M250.073 107.102V104.328L249.343 103.891L249.197 105.934L250.073 107.102Z" stroke="black" stroke-width="0.8"/>
<path d="M253.285 87.8321C254.219 86.6642 255.523 87.3455 256.058 87.8321C256.642 88.8832 255.815 90.2165 255.328 90.7518C254.745 92.0365 253.139 90.8978 252.409 90.1679H251.679C251.679 91.3358 250.219 96.2993 249.489 98.635L246.861 100.971C246.161 101.555 246.375 103.453 246.569 104.328C246.569 105.496 248.224 105.788 249.051 105.788" stroke="black" stroke-width="0.8"/>
<path d="M255.328 90.7518C255.795 92.0365 255.523 96.1533 255.328 98.0511L253.284 105.496C252.35 106.898 252.895 108.124 253.284 108.562C253.985 108.796 254.744 108.659 255.036 108.562" stroke="black" stroke-width="0.8"/>
<path d="M261.898 90.3139C260.963 88.2117 257.713 87.9781 256.204 88.1241" stroke="black" stroke-width="0.8"/>
<path d="M265.109 94.8394C268.73 99.1606 265.937 103.55 264.088 105.204C263.62 104.854 262.141 106.421 261.46 107.248C261.226 108.066 260.195 107.589 259.708 107.248" stroke="black" stroke-width="0.8"/>
<path d="M261.751 90.3138C263.386 90.3138 264.574 92.455 264.963 93.5255C265.43 95.0438 264.671 96.3966 264.233 96.8832C263.883 97.2336 263.406 99.8516 263.211 101.117C263.678 102.401 260.194 106.518 258.394 108.416C257.693 110.635 255.863 109.341 255.036 108.416C257.255 106.314 258.88 101.409 259.416 99.219C258.949 98.4014 260.486 93.8175 261.314 91.6277" stroke="black" stroke-width="0.8"/>
<path d="M266.861 99.5109C267.211 100.328 267.007 102.09 266.861 102.869C266.861 104.27 262.384 108.221 260.146 110.022C258.744 110.606 256.545 110.265 255.62 110.022L254.16 108.854" stroke="black" stroke-width="0.8"/>
<path d="M266.57 88.2701L266.132 87.5402L265.256 88.2701L265.84 89" stroke="black" stroke-width="0.8"/>
<path d="M271.533 93.8175C272.701 94.4014 272.604 95.8126 272.409 96.4452" stroke="black" stroke-width="0.8"/>
<path d="M265.548 89.5839C265.548 88.6496 266.521 88.3187 267.008 88.2701L271.679 93.8175C271.095 93.8175 270.365 94.5961 270.073 94.9854" stroke="black" stroke-width="0.8"/>
<path d="M268.759 94.4015C267.824 90.4307 263.309 87.9781 261.167 87.2482H257.81C257.81 86.3139 255.766 85.8857 254.744 85.7883" stroke="black" stroke-width="0.8"/>
<path d="M271.387 96.5913C270.336 94.6059 266.472 93.6229 264.672 93.3796" stroke="black" stroke-width="0.8"/>
<path d="M259.416 118.197C261.752 123.686 264.38 125.448 265.401 125.642C267.153 124.708 268.37 122.431 268.759 121.409C271.328 121.409 273.431 110.898 274.161 105.642C276.146 105.642 276.448 100.582 276.35 98.0511C276.35 95.8321 271.289 96.4453 268.759 97.0292M268.759 97.0292C269.693 97.8467 270.414 99.3163 270.657 99.9489L268.759 97.0292ZM268.759 97.0292C268.292 96.0949 265.937 94.3042 264.817 93.5256" stroke="black" stroke-width="0.8"/>
<path d="M213.285 339.949C213.869 338.314 222.482 332.552 226.716 329.876C227.767 330.343 229.295 324.523 229.927 321.555C229.927 320.62 231.29 319.998 231.971 319.803V312.65C231.504 312.65 231.29 307.783 231.241 305.35" stroke="black" stroke-width="0.8"/>
<path d="M201.752 342.577C202.579 341.895 204.35 340.737 204.818 341.555C205.402 340.971 206.861 339.949 208.029 340.533L207.737 344.329C207.007 344.62 205.402 345.204 204.818 345.204C203.212 345.058 200.35 344.329 201.752 342.577ZM201.752 342.577C201.363 342.49 200.835 342.142 201.46 341.411M208.175 338.635C206.307 338.401 203.114 340.192 201.752 341.117C201.635 341.221 201.538 341.319 201.46 341.411M208.175 337.613C206.19 337.029 205.402 337.37 205.256 337.613C205.256 338.08 204.185 338.684 203.65 338.927C203.437 338.927 203.243 338.96 203.066 339.018M201.46 341.411C201.544 340.699 201.98 339.375 203.066 339.018M208.613 336.445C207.293 335.584 206.107 335.807 205.156 336.445M203.066 339.018C203.437 338.21 204.171 337.106 205.156 336.445M208.905 335.423C207.621 334.839 205.87 335.861 205.156 336.445M200.876 340.971C201.022 340.679 201.411 340.533 201.606 340.533" stroke="black" stroke-width="0.8"/>
<path d="M214.16 334.255L213.373 335.131M213.373 335.131C213.454 334.538 213.568 334.038 213.722 333.672C212.311 333.915 209.343 334.606 208.759 335.423C208.223 338.197 207.328 344.241 208.029 346.226H213.722C213.397 343.505 212.964 338.126 213.373 335.131Z" stroke="black" stroke-width="0.8"/>
<path d="M242.336 342.285C243.036 344.854 242.044 346.956 241.46 347.686L239.416 348.562V347.686H238.102V349H233.577C233.577 347.949 232.701 348.27 232.263 348.562H228.467V347.102H225.547L225.109 348.27L223.358 347.686V348.562L220.584 347.686L219.27 349L216.496 347.686L215.474 349.73L212.555 348.562L211.095 349.73L208.613 348.562L207.007 349.73L205.255 348.27L203.504 349C200.934 349 200.097 345.496 200 343.745" stroke="black" stroke-width="0.8"/>
<path d="M228.905 311.482C228.905 312.766 228.321 312.601 228.029 312.358V319.073C234.336 321.409 241.363 320.046 244.088 319.073V311.482" stroke="black" stroke-width="0.8"/>
<path d="M228.613 302.723L227.299 303.745V309.876C229.635 314.314 239.854 312.504 244.671 311.044V306.664" stroke="black" stroke-width="0.8"/>
<path d="M227.591 360.387C228.292 360.504 228.759 360.922 228.905 361.117" stroke="black" stroke-width="0.8"/>
<path d="M229.343 360.825C230.044 361.292 230.122 361.603 230.073 361.701C229.84 362.051 229.587 362.333 229.489 362.431C229.139 362.431 228.759 362.139 228.613 361.993" stroke="black" stroke-width="0.8"/>
<path d="M235.912 364.766C236.846 365.117 237.177 365.594 237.226 365.788C236.876 365.788 236.496 366.372 236.35 366.664" stroke="black" stroke-width="0.8" stroke-linejoin="round"/>
<path d="M233.431 363.453C234.248 363.686 234.647 364.134 234.745 364.328L234.307 365.496" stroke="black" stroke-width="0.8" stroke-linejoin="round"/>
<path d="M230.803 362.139C232.087 362.723 232.214 363.355 232.117 363.599C231.649 364.066 230.462 363.793 229.927 363.599" stroke="black" stroke-width="0.8"/>
<path d="M232.701 356.737C230.365 357.321 229.684 358.538 229.635 359.073C227.533 359.307 227.202 361.117 227.299 361.993C227.766 362.46 228.272 362.382 228.467 362.285" stroke="black" stroke-width="0.8"/>
<path d="M233.576 358.781L233.382 358.431C233.255 358.502 233.176 358.636 233.176 358.781H233.576ZM232.116 359.073L232.156 358.675L232.136 358.673H232.116V359.073ZM230.803 360.241V360.641H231.024L231.142 360.453L230.803 360.241ZM228.467 362.577L228.068 362.552L228.057 362.714L228.163 362.837L228.467 362.577ZM234.696 357.701L233.382 358.431L233.771 359.131L235.084 358.401L234.696 357.701ZM233.176 358.781C233.176 358.641 233.286 358.6 233.243 358.621C233.204 358.64 233.12 358.663 232.983 358.679C232.718 358.71 232.384 358.698 232.156 358.675L232.077 359.471C232.335 359.497 232.732 359.514 233.075 359.474C233.242 359.455 233.431 359.418 233.59 359.342C233.745 359.267 233.976 359.097 233.976 358.781H233.176ZM232.116 358.673C231.893 358.673 231.693 358.764 231.536 358.862C231.374 358.963 231.223 359.096 231.091 359.23C230.826 359.499 230.596 359.816 230.463 360.029L231.142 360.453C231.252 360.277 231.446 360.009 231.661 359.792C231.768 359.683 231.87 359.596 231.961 359.54C232.056 359.48 232.106 359.473 232.116 359.473V358.673ZM230.803 359.841C229.787 359.841 229.101 360.301 228.674 360.879C228.26 361.441 228.096 362.103 228.068 362.552L228.866 362.602C228.887 362.272 229.014 361.766 229.318 361.354C229.609 360.959 230.066 360.641 230.803 360.641V359.841ZM228.163 362.837C228.608 363.356 229.14 363.488 229.619 363.405C230.066 363.328 230.437 363.07 230.647 362.859L230.082 362.294C229.952 362.424 229.724 362.575 229.482 362.617C229.273 362.653 229.027 362.615 228.77 362.316L228.163 362.837Z" fill="black"/>
<path d="M241.314 366.226C239.328 365.759 238.151 366.032 237.81 366.226C237.46 366.81 236.399 366.762 235.912 366.664L235.036 365.496M235.036 365.496C236.321 364.095 237.421 363.939 237.81 364.037C238.394 364.037 239.416 363.258 239.854 362.869L238.394 360.971C237.927 360.971 237.323 361.457 237.08 361.701C234.511 361.117 232.895 363.696 232.408 365.058C232.408 365.759 234.16 365.642 235.036 365.496ZM236.642 359.365C232.321 359.365 230.17 362.479 229.635 364.037" stroke="black" stroke-width="0.8"/>
<path d="M229.635 364.036C230.102 364.854 231.776 364.864 232.554 364.766" stroke="black" stroke-width="0.8"/>
<path d="M210.511 184.766C209.927 186.752 209.781 191.336 209.781 193.38C209.781 194.781 209.489 196.007 209.343 196.445C207.824 199.015 207.347 202.187 207.299 203.453M207.299 203.453C209.868 203.453 211.97 205.01 212.7 205.788C211.649 203.92 208.661 203.453 207.299 203.453ZM207.299 203.453C207.766 204.504 209.148 205.058 209.781 205.204C208.846 210.343 209.391 216.591 209.781 219.073C210.365 220.358 210.802 224.474 210.948 226.372L215.182 230.022H216.204" stroke="black" stroke-width="0.8"/>
<path d="M224.233 61.1168C224.817 70.2262 225.839 73.0876 226.277 73.3795" stroke="black" stroke-width="0.8"/>
<path d="M253.139 66.9562V76.5912M253.139 76.5912L255.326 69.7299M253.139 76.5912C254.376 76.5912 256.285 75.9197 257.648 73.8175M253.139 76.5912C253.285 76.7859 253.226 77.7591 251.825 80.0949M256.35 66.5182L255.326 69.7299M255.326 69.7299C257.664 66.8102 258.929 66.0803 259.27 66.0803C259.317 67.2132 259.28 68.2317 259.175 69.146M259.175 69.146L259.854 76.5912L257.648 73.8175M259.175 69.146C258.942 71.1821 258.372 72.7015 257.648 73.8175M257.648 73.8175L258.102 81.8467L256.35 78.781L255.912 83.7445L254.015 80.6788L251.825 83.7445V80.0949M251.825 80.0949C246.452 89.5547 240.049 90.6545 237.518 90.0219C233.314 90.0219 229.538 83.6959 228.175 80.5328C226.306 77.3796 225.742 67.6375 225.693 63.1606" stroke="black" stroke-width="0.8"/>
<path d="M248.759 53.2336L248.097 54.8394M248.097 54.8394L246.715 58.1971L245.985 51.3358L232.408 49.5839L230.656 58.1971L229.197 53.2336L223.941 59.564M248.097 54.8394L253.576 62.2847V54.8394M253.576 51.3358V54.8394M253.576 54.8394L257.956 62.2847L257.274 57.3212M256.934 54.8394L257.274 57.3212M257.274 57.3212C259.183 58.2497 259.93 59.6567 260.146 60.8119M223.941 59.564L222.773 60.9708L223.941 54.8394L220.438 57.3212L224.817 49.5839L220.438 47.2482L225.693 44.9124L222.773 36.8832L229.197 39.365L233.868 30.6058L236.934 36.0073C241.489 30.635 245.352 29.0973 246.715 29L247.299 37.3212L257.274 33.5255L255.182 41.8467C259.153 41.2628 263.941 42.7713 265.839 43.5985L262.043 47.2482L266.569 49.5839L261.021 52.2117L264.963 57.3212L261.021 58.1971L262.043 60.9708L260.146 60.8119M223.941 59.564C223.941 63.5366 230.744 70.6058 259.708 65.9343L260.146 62.2847C260.228 61.9234 260.255 61.4003 260.146 60.8119" stroke="black" stroke-width="0.8"/>
<path d="M234.306 89.5839H231.971V92.7956C229.635 95.1314 228.856 97.7591 228.759 98.781C226.89 99.5985 225.158 103.793 224.525 105.788C224.525 106.839 223.066 108.562 222.336 109.292C219.299 111.861 217.567 119.219 217.08 122.577C211.825 127.365 209.538 141.993 209.051 148.708C201.46 155.949 204.525 165.934 207.007 170.022C206.073 174.343 206.229 175.91 206.423 176.153C206.423 176.971 206.131 178.927 205.985 179.803V182.869C207.737 184.62 210.997 185.01 211.971 184.62" stroke="black" stroke-width="0.8"/>
<path d="M208.029 183.015C209.571 182.568 211.08 182.146 212.555 181.747M257.08 175.698C258.597 175.85 259.764 176.064 260.584 176.299L257.08 175.698ZM257.08 175.698C256.496 176.996 257.324 178.197 257.81 178.635V181.555C264.818 201.058 261.606 216.056 259.124 221.117L261.168 223.015V226.956L259.124 232.212C258.774 233.38 259.367 235.229 259.708 236.007C262.161 247.569 261.703 262.917 261.168 269.146M257.08 175.698C249.971 174.985 235.19 175.627 212.555 181.747M261.168 269.146L256.496 266.956M261.168 269.146L264.38 271.482L263.942 279.073C270.131 292.971 271.484 302.285 271.387 305.204C266.365 309.175 252.555 309.779 246.277 309.584C242.657 304.445 240.584 294.109 240 289.584C233.927 281.175 230.462 267.297 229.489 261.409C222.482 247.044 217.032 228.562 215.183 221.117C211.329 203.015 211.825 187.328 212.555 181.747" stroke="black" stroke-width="0.8"/>
<path d="M264.233 125.496L260.146 135.423M255.036 147.832L260.146 135.423M260.146 135.423C262.949 143.365 263.357 148.173 263.211 149.584C263.211 152.854 264.768 155.715 265.547 156.737V160.095C265.547 161.496 262.919 163.696 261.605 164.62C264.292 165.788 263.211 173.574 262.335 177.321L257.81 179.219" stroke="black" stroke-width="0.8"/>
<path d="M241.46 298.197C230.249 300.65 225.207 299.219 224.088 298.197C221.869 296.562 222.385 284.864 222.92 279.219C223.854 278.401 223.309 276.445 222.92 275.569C221.635 273.117 221.412 261.409 221.46 255.861C218.891 249.438 216.691 233.526 215.913 226.372C214.862 225.438 213.82 222.09 213.431 220.533C213.781 219.832 213.577 217.808 213.431 216.883L212.409 213.526" stroke="black" stroke-width="0.8"/>
<path d="M250.657 309.876L251.798 313.526M266.278 308.124V310.387M266.278 310.387V312.65C263.845 314.304 257.606 317 252.117 314.547L251.798 313.526M266.278 310.387C269.548 312.197 269.003 317.808 268.321 320.387C268.127 320.472 267.932 320.553 267.737 320.631M250.657 321.263C250.424 320.562 250.365 319.122 250.365 318.489C250.015 317.788 249.83 315.569 249.781 314.547C250.482 313.847 251.417 313.574 251.798 313.526M250.657 321.263C253.451 322.257 260.678 323.473 267.737 320.631M250.657 321.263C250.56 321.555 250.57 322.255 251.387 322.723C251.046 324.28 250.652 328.445 251.798 332.65M267.737 320.631C268.205 322.772 268.321 328.367 268.321 330.898M268.321 330.898V331.774C262.365 337.263 254.824 334.645 251.798 332.65M268.321 330.898C269.606 331.599 269.635 336.445 269.489 338.781M251.798 332.65C250.931 333.039 249.314 334.285 249.781 336.153C249.781 336.786 249.898 338.343 250.365 339.511C253.09 341.019 260.73 342.985 269.489 338.781M269.489 338.781C268.555 340.066 268.711 341.36 268.905 341.847C269.84 345.701 269.295 353.769 268.905 357.321M268.905 357.321C264.117 360.124 259.708 360.338 258.102 360.095C245.723 366.869 236.789 367.978 233.869 367.686C230.015 367.686 227.883 364.085 227.299 362.285C224.847 364.971 226.278 367.881 227.299 369C228.935 371.336 232.75 371.822 234.453 371.774L235.767 371.19L238.248 371.774L239.854 370.752L242.482 371.19L243.504 370.168H246.716L247.737 368.562H250.365L251.533 366.956C252.467 367.54 254.258 366.616 255.037 366.08H256.789C257.372 364.912 258.492 364.815 258.978 364.912V366.518H262.336V365.35C263.037 364.299 263.601 364.912 263.796 365.35C267.066 365.584 268.565 363.404 268.905 362.285V357.321Z" stroke="black" stroke-width="0.8"/>
<path d="M250.511 339.511C245.957 344.766 244.526 348.319 244.38 349.438C241.927 350.372 239.854 352.65 239.125 353.672M239.125 353.672C244.847 357.642 246.959 362.82 247.3 364.912L241.46 366.81C240.643 361.788 235.28 358.002 232.701 356.737C233.869 354.285 237.47 353.672 239.125 353.672ZM269.198 351.336C265.577 353.672 262.434 353.866 261.314 353.672C260.73 355.657 261.071 358.684 261.314 359.949" stroke="black" stroke-width="0.8"/>
<path d="M228.175 299.657L228.905 303.599C232.525 307.336 240.048 305.156 243.357 303.599" stroke="black" stroke-width="0.8"/>
<path d="M228.029 318.343C225.693 318.343 225.596 322.723 225.839 324.912C233.43 329.35 241.07 327.929 243.941 326.664V319.219" stroke="black" stroke-width="0.8"/>
<path d="M242.336 327.394C242.92 332.182 242.579 339.414 242.336 342.431C240.351 345.818 231.582 344.815 227.445 343.891C226.044 342.723 219.173 344.766 215.913 345.934C212.993 346.752 205.256 345.983 201.752 345.496C199.183 344.679 200.098 342.139 200.876 340.971" stroke="black" stroke-width="0.8"/>
<path d="M225.839 324.766C224.555 325.117 222.774 327.54 222.044 328.708C221.577 330.109 219.124 331.141 217.956 331.482C216.204 332.066 214.599 333.672 214.015 334.401" stroke="black" stroke-width="0.8"/>
<path d="M213.723 333.818C213.956 333.701 214.307 333.769 214.453 333.818" stroke="black" stroke-width="0.8"/>
<path d="M204.818 341.701C204.818 342.635 202.579 343.355 201.46 343.599" stroke="black" stroke-width="0.8"/>
<path d="M202.773 340.533C203.124 340.766 202.919 341.506 202.773 341.847" stroke="black" stroke-width="0.8"/>
<path d="M202.92 339.073C203.27 339.774 202.871 340.338 202.628 340.533" stroke="black" stroke-width="0.8"/>
<path d="M233.576 344.912C233.576 342.81 234.452 340.533 234.89 339.657C236.175 340.825 240.486 338.684 242.481 337.467" stroke="black" stroke-width="0.8"/>
<path d="M210.073 343.745C209.586 343.015 209.051 341.496 210.803 341.263C211.241 341.36 212.117 341.759 212.117 342.577C211.971 343.209 211.357 344.329 210.073 343.745Z" stroke="black" stroke-width="0.8"/>
<path d="M219.708 180.095C227.65 181.73 247.737 178.927 256.788 177.321" stroke="black" stroke-width="0.8"/>
<path d="M270.511 95.4233C271.211 94.489 272.068 95.4233 272.409 96.0073" stroke="black" stroke-width="0.8"/>
<path d="M255.474 87.5401C255.825 85.6715 253.771 85.7883 252.701 86.0803C251.883 86.6642 251.679 89.0486 251.679 90.1679" stroke="black" stroke-width="0.8"/>
<path d="M264.526 89.7299C264.059 88.9124 260.633 88.2214 258.979 87.9781" stroke="black" stroke-width="0.8"/>
<path d="M264.672 92.6497C265.139 91.8321 267.397 93.1849 268.467 93.9635" stroke="black" stroke-width="0.8"/>
<path d="M256.935 117.321C257.752 118.372 262.823 118.927 265.256 119.073" stroke="black" stroke-width="0.8"/>
<path d="M249.489 119.219C249.489 123.307 258.735 124.426 263.358 124.474" stroke="black" stroke-width="0.8"/>
<path d="M254.452 85.9343V83.1606H252.555" stroke="black" stroke-width="0.8"/>
<path d="M239.854 110.606C238.452 110.606 237.42 113.234 237.08 114.547C235.795 117.467 231.873 121.701 230.073 123.453C227.036 124.387 217.81 139.511 213.576 146.956" stroke="black" stroke-width="0.8"/>
<path d="M213.576 146.664C211.357 148.533 211.484 150.752 211.824 151.628C210.54 154.781 209.148 156.445 208.613 156.883C204.876 159.92 207.737 165.837 209.635 168.416V170.168C213.606 171.102 220.73 169.389 223.795 168.416C228.817 167.248 235.912 167.929 238.832 168.416L248.759 165.642L252.408 160.095L250.219 161.117" stroke="black" stroke-width="0.8"/>
<path d="M225.256 211.482C226.19 213.467 234.015 215.229 237.811 215.861" stroke="black" stroke-width="0.8"/>
<path d="M219.416 162.723C223.036 161.321 229.294 153.282 231.971 149.438" stroke="black" stroke-width="0.8"/>
<path d="M247.445 74.9854C248.964 74.5182 251.095 75.472 251.971 76.0073" stroke="black" stroke-width="0.8"/>
<path d="M231.825 53.5256C233.811 55.1606 242.482 55.8613 246.57 56.0073" stroke="black" stroke-width="0.8"/>
<path d="M240 57.1752C239.532 56.5913 238.053 56.9319 237.372 57.1752C236.204 57.7592 236.691 60.3382 237.08 61.5548C237.897 62.9562 239.367 62.4307 240 61.9927C240.583 61.1752 240.243 59.8029 240 59.219C239.182 58.0511 238.394 58.7324 238.102 59.219C237.751 61.0876 238.734 60.6789 239.27 60.2409" stroke="black" stroke-width="0.8"/>
<path d="M259.124 70.3138C264.379 75.8029 266.472 84.0851 266.861 87.5401" stroke="black" stroke-width="0.8"/>
<path d="M249.343 165.496C253.314 165.496 259.27 164.718 261.752 164.328" stroke="black" stroke-width="0.8"/>
<path d="M233.431 80.9708C232.146 81.438 232.409 82.9173 232.701 83.5985C234.102 85.3504 239.416 85.5937 241.898 85.4964C243.533 85.4964 245.012 83.6472 245.548 82.7226C246.599 81.3212 245.012 80.2895 244.088 79.9489" stroke="black" stroke-width="0.8"/>
<path d="M235.62 67.9781C234.686 67.9781 235.231 69.5353 235.62 70.3139V73.0876" stroke="black" stroke-width="0.8"/>
<path d="M248.759 67.3942C247.824 68.3285 243.601 69.9246 241.605 70.6058" stroke="black" stroke-width="0.8"/>
<path d="M245.547 69.7299C245.08 70.781 245.839 71.2385 246.277 71.3358C247.795 71.6861 248.467 70.0219 248.613 69.146" stroke="black" stroke-width="0.8"/>
<path d="M231.678 66.8102C230.511 67.2774 230.608 68.3674 230.803 68.854C231.854 70.1387 232.992 69 233.43 68.2701" stroke="black" stroke-width="0.8"/>
<path d="M246.569 69.292C246.336 69.8759 246.764 70.0219 247.007 70.0219C247.475 70.0219 247.494 69.438 247.445 69.146" stroke="black" stroke-width="0.8"/>
<path d="M232.101 67.2482C231.517 67.7153 231.663 68.1241 231.809 68.2701C232.393 68.5036 232.637 67.9781 232.685 67.6861" stroke="black" stroke-width="0.8"/>
<path d="M242.335 70.7518L240.438 71.7737" stroke="black" stroke-width="0.8"/>
</svg>
