<svg width="500" height="400" viewBox="0 0 500 400" fill="none" xmlns="http://www.w3.org/2000/svg">
<rect width="500" height="400" fill="#20222C"/>
<rect x="68" y="165" width="70" height="70" rx="25" fill="#6D6DD6"/>
<path fill-rule="evenodd" clip-rule="evenodd" d="M86 185C82.6863 185 80 187.686 80 191V208C80 211.314 82.6863 214 86 214H95.4319C96.4426 210.904 99.4486 208.658 103 208.658C106.551 208.658 109.557 210.904 110.568 214H120C123.314 214 126 211.314 126 208V191C126 187.686 123.314 185 120 185H86ZM114.052 201.007C114.052 202.526 112.821 203.757 111.302 203.757C109.783 203.757 108.552 202.526 108.552 201.007C108.552 199.488 109.783 198.257 111.302 198.257C112.821 198.257 114.052 199.488 114.052 201.007ZM117.75 195.5C119.269 195.5 120.5 194.269 120.5 192.75C120.5 191.231 119.269 190 117.75 190C116.231 190 115 191.231 115 192.75C115 194.269 116.231 195.5 117.75 195.5Z" fill="white"/>
<rect x="90.4136" y="192" width="3.17241" height="14" rx="1.58621" fill="#3939AE"/>
<rect x="85" y="200.586" width="3.17241" height="14" rx="1.58621" transform="rotate(-90 85 200.586)" fill="#3939AE"/>
<rect x="166" y="165" width="70" height="70" rx="25" fill="#FF0C47"/>
<path fill-rule="evenodd" clip-rule="evenodd" d="M186 185C182.686 185 180 187.686 180 191V208C180 211.314 182.686 214 186 214H216C219.314 214 222 211.314 222 208V191C222 187.686 219.314 185 216 185H186ZM214.294 195.5C216.089 195.5 217.544 194.045 217.544 192.25C217.544 190.455 216.089 189 214.294 189C212.499 189 211.044 190.455 211.044 192.25C211.044 194.045 212.499 195.5 214.294 195.5Z" fill="white"/>
<circle cx="201" cy="200" r="7" fill="#BD0025"/>
<rect x="264" y="164" width="70" height="70" rx="25" fill="#0096D6"/>
<path d="M278 189C278 185.686 280.686 183 284 183H314C317.314 183 320 185.686 320 189V206C320 209.314 317.314 212 314 212H284C280.686 212 278 209.314 278 206V189Z" fill="white"/>
<circle cx="288.5" cy="197.5" r="3.5" fill="#004AB8"/>
<circle cx="299" cy="197.5" r="3.5" fill="#004AB8"/>
<circle cx="309.5" cy="197.5" r="3.5" fill="#004AB8"/>
<path d="M285.854 218.146C285.539 218.461 285 218.238 285 217.793L285 208H296L285.854 218.146Z" fill="white"/>
<rect x="362" y="164" width="70" height="70" rx="25" fill="#FF5B29"/>
<path fill-rule="evenodd" clip-rule="evenodd" d="M379.336 183.014C380.156 180.676 382.382 179 385 179H409C412.314 179 415 181.686 415 185V213C415 213.024 415 213.049 415 213.073L415 207L403 219L385 219C382.97 219 381.176 217.992 380.09 216.45C381.769 215.975 383 214.431 383 212.6C383 210.391 381.209 208.6 379 208.6V203.8C381.209 203.8 383 202.009 383 199.8C383 197.591 381.209 195.8 379 195.8V191C381.209 191 383 189.209 383 187C383 184.904 381.388 183.185 379.336 183.014Z" fill="white"/>
<path d="M403 219L403 212C403 209.239 405.239 207 408 207H415L403 219Z" fill="#DF4200"/>
</svg>
