<svg width="500" height="400" viewBox="0 0 500 400" fill="none" xmlns="http://www.w3.org/2000/svg">
<rect width="500" height="400" fill="#F3F5FF"/>
<circle cx="250.553" cy="88.3421" r="24.3421" fill="#633333" fill-opacity="0.8"/>
<circle cx="250.553" cy="88.3421" r="23.8421" stroke="black" stroke-opacity="0.25"/>
<mask id="path-3-inside-1" fill="white">
<path fill-rule="evenodd" clip-rule="evenodd" d="M273.279 97.08C274.323 94.3679 274.895 91.4218 274.895 88.3421C274.895 74.8983 263.996 64 250.553 64C237.109 64 226.211 74.8983 226.211 88.3421C226.211 91.3062 226.74 94.1465 227.71 96.7736L234.927 91.2632L234.942 91.2829V78.6053H235.755V78.5921H265.663V78.6053H266.163V91.3627L272.951 96.7126L272.894 96.7854L273.279 97.08Z"/>
</mask>
<path fill-rule="evenodd" clip-rule="evenodd" d="M273.279 97.08C274.323 94.3679 274.895 91.4218 274.895 88.3421C274.895 74.8983 263.996 64 250.553 64C237.109 64 226.211 74.8983 226.211 88.3421C226.211 91.3062 226.74 94.1465 227.71 96.7736L234.927 91.2632L234.942 91.2829V78.6053H235.755V78.5921H265.663V78.6053H266.163V91.3627L272.951 96.7126L272.894 96.7854L273.279 97.08Z" fill="black"/>
<path d="M273.279 97.08L272.673 97.8747L273.733 98.685L274.213 97.4391L273.279 97.08ZM227.71 96.7736L226.772 97.12L227.241 98.3901L228.317 97.5684L227.71 96.7736ZM234.927 91.2632L235.722 90.6563L235.115 89.8615L234.32 90.4684L234.927 91.2632ZM234.942 91.2829L234.147 91.8898L235.942 94.2403V91.2829H234.942ZM234.942 78.6053V77.6053H233.942V78.6053H234.942ZM235.755 78.6053V79.6053H236.755V78.6053H235.755ZM235.755 78.5921V77.5921H234.755V78.5921H235.755ZM265.663 78.5921H266.663V77.5921H265.663V78.5921ZM265.663 78.6053H264.663V79.6053H265.663V78.6053ZM266.163 78.6053H267.163V77.6053H266.163V78.6053ZM266.163 91.3627H265.163V91.8478L265.544 92.1481L266.163 91.3627ZM272.951 96.7126L273.737 97.3316L274.356 96.5462L273.57 95.9272L272.951 96.7126ZM272.894 96.7854L272.108 96.1665L271.48 96.9639L272.287 97.5802L272.894 96.7854ZM273.895 88.3421C273.895 91.2971 273.346 94.1216 272.346 96.7209L274.213 97.4391C275.3 94.6142 275.895 91.5465 275.895 88.3421H273.895ZM250.553 65C263.444 65 273.895 75.4506 273.895 88.3421H275.895C275.895 74.346 264.549 63 250.553 63V65ZM227.211 88.3421C227.211 75.4506 237.661 65 250.553 65V63C236.557 63 225.211 74.346 225.211 88.3421H227.211ZM228.648 96.4272C227.719 93.9094 227.211 91.1862 227.211 88.3421H225.211C225.211 91.4262 225.762 94.3837 226.772 97.12L228.648 96.4272ZM234.32 90.4684L227.104 95.9789L228.317 97.5684L235.534 92.0579L234.32 90.4684ZM235.737 90.676L235.722 90.6563L234.132 91.87L234.147 91.8898L235.737 90.676ZM233.942 78.6053V91.2829H235.942V78.6053H233.942ZM235.755 77.6053H234.942V79.6053H235.755V77.6053ZM234.755 78.5921V78.6053H236.755V78.5921H234.755ZM265.663 77.5921H235.755V79.5921H265.663V77.5921ZM266.663 78.6053V78.5921H264.663V78.6053H266.663ZM266.163 77.6053H265.663V79.6053H266.163V77.6053ZM267.163 91.3627V78.6053H265.163V91.3627H267.163ZM273.57 95.9272L266.782 90.5773L265.544 92.1481L272.332 97.498L273.57 95.9272ZM273.679 97.4044L273.737 97.3316L272.166 96.0936L272.108 96.1665L273.679 97.4044ZM272.287 97.5802L272.673 97.8747L273.886 96.2853L273.501 95.9907L272.287 97.5802Z" fill="black" fill-opacity="0.25" mask="url(#path-3-inside-1)"/>
<mask id="path-5-inside-2" fill="white">
<path fill-rule="evenodd" clip-rule="evenodd" d="M271 220.763H227.184V228.553H227.184V325.921H244.711V234.395H253.474V325.921H271V234.395H271V220.763Z"/>
</mask>
<path fill-rule="evenodd" clip-rule="evenodd" d="M271 220.763H227.184V228.553H227.184V325.921H244.711V234.395H253.474V325.921H271V234.395H271V220.763Z" fill="#4255B9"/>
<path d="M227.184 220.763V219.763H226.184V220.763H227.184ZM271 220.763H272V219.763H271V220.763ZM227.184 228.553V229.553H228.184V228.553H227.184ZM227.184 228.553V227.553H226.184V228.553H227.184ZM227.184 325.921H226.184V326.921H227.184V325.921ZM244.711 325.921V326.921H245.711V325.921H244.711ZM244.711 234.395V233.395H243.711V234.395H244.711ZM253.474 234.395H254.474V233.395H253.474V234.395ZM253.474 325.921H252.474V326.921H253.474V325.921ZM271 325.921V326.921H272V325.921H271ZM271 234.395V233.395H270V234.395H271ZM271 234.395V235.395H272V234.395H271ZM227.184 221.763H271V219.763H227.184V221.763ZM228.184 228.553V220.763H226.184V228.553H228.184ZM227.184 227.553H227.184V229.553H227.184V227.553ZM226.184 228.553V325.921H228.184V228.553H226.184ZM227.184 326.921H244.711V324.921H227.184V326.921ZM245.711 325.921V234.395H243.711V325.921H245.711ZM253.474 233.395H244.711V235.395H253.474V233.395ZM252.474 234.395V325.921H254.474V234.395H252.474ZM253.474 326.921H271V324.921H253.474V326.921ZM272 325.921V234.395H270V325.921H272ZM271 233.395H271V235.395H271V233.395ZM270 220.763V234.395H272V220.763H270Z" fill="black" fill-opacity="0.25" mask="url(#path-5-inside-2)"/>
<path d="M234.149 131.184L246.658 139.521L216.369 181.01L236.733 195.422L227.654 207.132L199.058 186.893C196.802 185.296 196.328 182.254 197.999 180.099L204.051 172.292L204.109 172.333L234.149 131.184Z" fill="#805A5C"/>
<path d="M234.27 131.866L245.946 139.647L215.965 180.715L215.666 181.125L216.08 181.418L236.017 195.529L227.552 206.447L199.347 186.485C197.318 185.049 196.901 182.33 198.394 180.405L204.153 172.977L204.222 173.026L204.512 172.628L234.27 131.866Z" stroke="black" stroke-opacity="0.25"/>
<path d="M264.016 131.184L251.526 139.521L281.768 181.01L261.436 195.422L270.501 207.132L298.877 187.018C301.197 185.373 301.68 182.127 299.939 179.878L294.067 172.292L294.01 172.333L264.016 131.184Z" fill="#805A5C"/>
<path d="M262.151 195.529L282.058 181.418L282.471 181.125L282.173 180.716L252.237 139.647L263.895 131.866L293.606 172.628L293.897 173.026L293.965 172.978L299.544 180.184C301.111 182.208 300.676 185.13 298.588 186.61L270.603 206.446L262.151 195.529Z" stroke="black" stroke-opacity="0.25"/>
<mask id="path-11-inside-3" fill="white">
<path fill-rule="evenodd" clip-rule="evenodd" d="M213.306 154.218L227.304 164.034V221.213H271.12V164.207L285.364 154.219L266.374 127.135C266.276 126.996 266.15 126.889 266.008 126.817C261.989 122.024 255.957 118.976 249.212 118.976C240.816 118.976 233.522 123.699 229.845 130.634L213.306 154.218Z"/>
</mask>
<path fill-rule="evenodd" clip-rule="evenodd" d="M213.306 154.218L227.304 164.034V221.213H271.12V164.207L285.364 154.219L266.374 127.135C266.276 126.996 266.15 126.889 266.008 126.817C261.989 122.024 255.957 118.976 249.212 118.976C240.816 118.976 233.522 123.699 229.845 130.634L213.306 154.218Z" fill="#212121"/>
<path d="M227.304 164.034H228.304V163.514L227.878 163.215L227.304 164.034ZM213.306 154.218L212.488 153.644L211.913 154.463L212.732 155.037L213.306 154.218ZM227.304 221.213H226.304V222.213H227.304V221.213ZM271.12 221.213V222.213H272.12V221.213H271.12ZM271.12 164.207L270.546 163.388L270.12 163.686V164.207H271.12ZM285.364 154.219L285.938 155.038L286.757 154.464L286.183 153.645L285.364 154.219ZM266.374 127.135L267.192 126.56L267.192 126.56L266.374 127.135ZM266.008 126.817L265.242 127.459L265.373 127.616L265.556 127.709L266.008 126.817ZM229.845 130.634L230.663 131.208L230.699 131.157L230.728 131.103L229.845 130.634ZM227.878 163.215L213.881 153.399L212.732 155.037L226.73 164.853L227.878 163.215ZM228.304 221.213V164.034H226.304V221.213H228.304ZM271.12 220.213H227.304V222.213H271.12V220.213ZM270.12 164.207V221.213H272.12V164.207H270.12ZM284.79 153.4L270.546 163.388L271.694 165.025L285.938 155.038L284.79 153.4ZM265.555 127.709L284.545 154.793L286.183 153.645L267.192 126.56L265.555 127.709ZM265.556 127.709L265.555 127.709L267.192 126.56C266.998 126.284 266.745 126.069 266.46 125.925L265.556 127.709ZM249.212 119.976C255.648 119.976 261.405 122.883 265.242 127.459L266.774 126.175C262.574 121.164 256.265 117.976 249.212 117.976V119.976ZM230.728 131.103C234.239 124.482 241.2 119.976 249.212 119.976V117.976C240.431 117.976 232.805 122.917 228.961 130.165L230.728 131.103ZM214.125 154.792L230.663 131.208L229.026 130.06L212.488 153.644L214.125 154.792Z" fill="black" fill-opacity="0.25" mask="url(#path-11-inside-3)"/>
<mask id="path-13-inside-4" fill="white">
<path d="M244.711 325.921C244.711 323.339 243.787 320.862 242.144 319.036C240.501 317.21 238.272 316.184 235.947 316.184C233.623 316.184 231.394 317.21 229.751 319.036C228.108 320.862 227.184 323.339 227.184 325.921L235.947 325.921H244.711Z"/>
</mask>
<path d="M244.711 325.921C244.711 323.339 243.787 320.862 242.144 319.036C240.501 317.21 238.272 316.184 235.947 316.184C233.623 316.184 231.394 317.21 229.751 319.036C228.108 320.862 227.184 323.339 227.184 325.921L235.947 325.921H244.711Z" fill="#212121" stroke="black" stroke-opacity="0.25" stroke-width="2" mask="url(#path-13-inside-4)"/>
<mask id="path-14-inside-5" fill="white">
<path d="M271 325.921C271 323.339 270.077 320.862 268.433 319.036C266.79 317.21 264.561 316.184 262.237 316.184C259.913 316.184 257.684 317.21 256.04 319.036C254.397 320.862 253.474 323.339 253.474 325.921L262.237 325.921H271Z"/>
</mask>
<path d="M271 325.921C271 323.339 270.077 320.862 268.433 319.036C266.79 317.21 264.561 316.184 262.237 316.184C259.913 316.184 257.684 317.21 256.04 319.036C254.397 320.862 253.474 323.339 253.474 325.921L262.237 325.921H271Z" fill="#212121" stroke="black" stroke-opacity="0.25" stroke-width="2" mask="url(#path-14-inside-5)"/>
<path d="M435 325.921H65" stroke="black" stroke-width="2" stroke-linecap="round"/>
</svg>
