<svg width="27" height="26" viewBox="0 0 27 26" fill="none" xmlns="http://www.w3.org/2000/svg">
<g clip-path="url(#clip0)">
<path d="M13.9375 0.40625C6.99327 0.40625 1.34375 6.05577 1.34375 13C1.34375 19.9442 6.99327 25.5938 13.9375 25.5938C20.8817 25.5938 26.5312 19.9442 26.5312 13C26.5312 6.05577 20.8817 0.40625 13.9375 0.40625ZM22.2641 6.2139C23.7623 8.04436 24.6696 10.3758 24.6932 12.9147C24.3386 12.8397 20.7822 12.1184 17.2029 12.5685C16.9108 11.8555 16.6351 11.2282 16.2575 10.4553C20.2347 8.83147 22.0373 6.52067 22.2641 6.2139ZM21.0683 4.96996C20.8748 5.24555 19.2555 7.42198 15.4305 8.85569C13.6677 5.61707 11.714 2.95654 11.4167 2.55841C14.828 1.73611 18.4228 2.6229 21.0683 4.96996ZM9.36419 3.28148C9.6478 3.67042 11.57 6.33425 13.3524 9.50264C8.32064 10.8389 3.8888 10.8196 3.4077 10.8133C4.10523 7.47525 6.35474 4.70097 9.36419 3.28148ZM3.18051 13.0164C3.18051 12.9064 3.18269 12.7969 3.18599 12.6877C3.65663 12.6973 8.86943 12.7645 14.2414 11.1568C14.5493 11.7595 14.8435 12.3713 15.1135 12.9824C11.2237 14.078 7.68958 17.224 5.9459 20.2089C4.22782 18.3018 3.18051 15.7793 3.18051 13.0164ZM7.33477 21.5026C8.45841 19.2056 11.5079 16.2406 15.8446 14.7611C17.3549 18.6856 17.9794 21.9747 18.1394 22.9185C14.6806 24.3918 10.5214 23.9876 7.33477 21.5026ZM19.9478 21.9337C19.8376 21.2793 19.265 18.1303 17.8581 14.264C21.2289 13.7244 24.1905 14.6077 24.5585 14.7239C24.079 17.717 22.361 20.3019 19.9478 21.9337Z" fill="#FAFAFA"/>
</g>
<defs>
<clipPath id="clip0">
<rect width="26" height="26" fill="white" transform="translate(0.9375)"/>
</clipPath>
</defs>
</svg>
