<svg width="100" height="100" viewBox="0 0 100 100" fill="none" xmlns="http://www.w3.org/2000/svg">
<path d="M98.0004 40.1231C97.3468 36.9718 96.3856 33.8973 95.1169 30.8996C93.8866 27.9788 92.3488 25.2118 90.5802 22.5984C88.8117 19.9851 86.8125 17.6024 84.621 15.3733C82.3911 13.1443 79.9306 11.1074 77.3931 9.41647C74.7787 7.64863 71.9337 6.11138 69.0887 4.88157C66.1283 3.61334 63.0526 2.65255 59.8615 1.99922C56.632 1.34588 53.3256 1 49.9808 1C46.6359 1 43.3295 1.34588 40.1 1.99922C36.9474 2.65255 33.8717 3.61334 30.9113 4.88157C27.9894 6.11138 25.2213 7.64863 22.6069 9.41647C19.9925 11.1843 17.5704 13.1827 15.379 15.3733C13.1875 17.5639 11.1499 20.062 9.41977 22.5984C7.65123 25.2118 6.11338 27.9788 4.88309 30.8996C3.61436 33.8588 2.6532 36.9333 1.99961 40.1231C1.34602 43.3514 1 46.6565 1 50C1 53.3435 1.34602 56.6486 1.99961 59.8769C2.6532 63.0282 3.61436 66.1027 4.88309 69.062C6.11338 71.9827 7.65123 74.7498 9.41977 77.4016C11.1883 80.0149 13.1875 82.3977 15.379 84.6267C17.6089 86.8557 20.0694 88.8541 22.6069 90.5835C25.2213 92.3514 28.0663 93.8886 30.9113 95.1184C33.8717 96.3867 36.9474 97.3475 40.1 98.0008C43.3295 98.6541 46.6359 99 49.9808 99C53.3256 99 56.5936 98.6541 59.8615 98.0008C63.0141 97.3475 66.0898 96.3867 69.0887 95.1184C72.0106 93.8886 74.7787 92.3514 77.3931 90.5835C80.0075 88.8157 82.4296 86.8173 84.621 84.6267C86.8509 82.3977 88.8501 79.938 90.5802 77.4016C92.3488 74.7882 93.8866 71.9827 95.1169 69.062C96.3856 66.1027 97.3468 63.0282 98.0004 59.8769C98.654 56.6486 99 53.3435 99 50C99 46.6565 98.654 43.3514 98.0004 40.1231ZM49.9808 8.14824C60.592 8.14824 70.2421 12.1067 77.6238 18.6016C77.5084 18.7553 71.5877 27.8251 55.7477 33.7435C48.5967 20.6 40.7152 10.1467 40.0616 9.30118C43.2527 8.57098 46.559 8.14824 49.9808 8.14824ZM39.8694 9.37803C39.9078 9.3396 39.8694 9.3396 39.8694 9.37803ZM32.1032 12.1451C32.6799 12.8753 40.4076 23.4055 47.674 36.28C27.5665 41.5835 10.1118 41.3914 9.03531 41.3529C11.6881 28.4016 20.4155 17.6408 32.1032 12.1451ZM18.8007 77.9396C12.1495 70.5608 8.07414 60.7608 8.07414 50C8.07414 49.5388 8.11259 49.1161 8.11259 48.6933C8.84308 48.6933 29.5273 49.1929 51.0957 42.7365C52.2876 45.0808 53.441 47.502 54.5175 49.8463C53.9792 50 53.4025 50.1537 52.8643 50.3459C30.2577 57.6478 18.8007 77.9396 18.8007 77.9396ZM49.9808 91.8518C40.2154 91.8518 31.3342 88.5082 24.2217 82.9741C24.3754 82.6667 32.4876 65.411 57.0934 56.8408C57.1703 56.8023 57.2856 56.7639 57.3625 56.7639C63.2448 72.0596 65.6669 84.8573 66.2821 88.5467C61.284 90.6604 55.7477 91.8518 49.9808 91.8518ZM73.3562 84.7035C72.9333 82.1671 70.7034 69.9075 65.2056 54.8039C78.7387 52.6518 90.4649 56.3412 91.3107 56.6486C89.4653 68.2933 82.7372 78.3623 73.3562 84.7035ZM62.6681 48.1937C62.3605 47.4635 62.053 46.7718 61.7454 46.0416C60.8611 43.9663 59.9384 41.9678 58.9388 39.9694C75.4708 33.2439 82.1989 23.5208 82.2758 23.4055C88.1197 30.5537 91.6952 39.662 91.8105 49.5773C91.2338 49.462 77.0471 46.3874 62.6681 48.1937Z" fill="#F4F6FB"/>
</svg>
