<svg width="26" height="26" viewBox="0 0 26 26" fill="none" xmlns="http://www.w3.org/2000/svg">
<g clip-path="url(#clip0)">
<path d="M9.17461 20.1805C9.17461 20.282 9.05781 20.3633 8.91055 20.3633C8.74297 20.3785 8.62617 20.2973 8.62617 20.1805C8.62617 20.0789 8.74297 19.9977 8.89023 19.9977C9.04258 19.9824 9.17461 20.0637 9.17461 20.1805ZM7.59531 19.952C7.55977 20.0535 7.66133 20.1703 7.81367 20.2008C7.9457 20.2516 8.09805 20.2008 8.12852 20.0992C8.15898 19.9977 8.0625 19.8809 7.91016 19.8352C7.77812 19.7996 7.63086 19.8504 7.59531 19.952ZM9.83984 19.8656C9.69258 19.9012 9.59101 19.9977 9.60625 20.1145C9.62148 20.216 9.75352 20.282 9.90586 20.2465C10.0531 20.2109 10.1547 20.1145 10.1395 20.0129C10.1242 19.9164 9.98711 19.8504 9.83984 19.8656ZM13.1813 0.40625C6.13789 0.40625 0.75 5.75352 0.75 12.7969C0.75 18.4285 4.29453 23.2477 9.35742 24.9438C10.0074 25.0605 10.2359 24.6594 10.2359 24.3293C10.2359 24.0145 10.2207 22.2777 10.2207 21.2113C10.2207 21.2113 6.66602 21.973 5.91953 19.698C5.91953 19.698 5.34062 18.2203 4.50781 17.8395C4.50781 17.8395 3.34492 17.0422 4.58906 17.0574C4.58906 17.0574 5.85352 17.159 6.54922 18.3676C7.66133 20.3277 9.525 19.7641 10.2512 19.4289C10.368 18.6164 10.698 18.0527 11.0637 17.7176C8.225 17.4027 5.36094 16.9914 5.36094 12.1062C5.36094 10.7098 5.74688 10.009 6.55938 9.11523C6.42734 8.78516 5.9957 7.42422 6.69141 5.66719C7.75273 5.33711 10.1953 7.03828 10.1953 7.03828C11.2109 6.75391 12.3027 6.60664 13.3844 6.60664C14.466 6.60664 15.5578 6.75391 16.5734 7.03828C16.5734 7.03828 19.016 5.33203 20.0773 5.66719C20.773 7.4293 20.3414 8.78516 20.2094 9.11523C21.0219 10.0141 21.5195 10.7148 21.5195 12.1062C21.5195 17.0066 18.5285 17.3977 15.6898 17.7176C16.157 18.1187 16.5531 18.8805 16.5531 20.0738C16.5531 21.7852 16.5379 23.9027 16.5379 24.3191C16.5379 24.6492 16.7715 25.0504 17.4164 24.9336C22.4945 23.2477 25.9375 18.4285 25.9375 12.7969C25.9375 5.75352 20.2246 0.40625 13.1813 0.40625ZM5.68594 17.9207C5.61992 17.9715 5.63516 18.0883 5.72148 18.1848C5.80273 18.266 5.91953 18.3016 5.98555 18.2355C6.05156 18.1848 6.03633 18.068 5.95 17.9715C5.86875 17.8902 5.75195 17.8547 5.68594 17.9207ZM5.1375 17.5094C5.10195 17.5754 5.15273 17.6566 5.2543 17.7074C5.33555 17.7582 5.43711 17.743 5.47266 17.6719C5.5082 17.6059 5.45742 17.5246 5.35586 17.4738C5.2543 17.4434 5.17305 17.4586 5.1375 17.5094ZM6.78281 19.3172C6.70156 19.3832 6.73203 19.5355 6.84883 19.632C6.96562 19.7488 7.11289 19.7641 7.17891 19.6828C7.24492 19.6168 7.21445 19.4645 7.11289 19.368C7.00117 19.2512 6.84883 19.2359 6.78281 19.3172ZM6.20391 18.5707C6.12266 18.6215 6.12266 18.7535 6.20391 18.8703C6.28516 18.9871 6.42227 19.0379 6.48828 18.9871C6.56953 18.9211 6.56953 18.7891 6.48828 18.6723C6.41719 18.5555 6.28516 18.5047 6.20391 18.5707Z" fill="#FAFAFA"/>
</g>
<defs>
<clipPath id="clip0">
<rect width="25.1875" height="26" fill="white" transform="translate(0.75)"/>
</clipPath>
</defs>
</svg>
