<svg width="100" height="100" viewBox="0 0 100 100" fill="none" xmlns="http://www.w3.org/2000/svg">
<path d="M42.4395 72.3848C29.8066 70.8535 20.9062 61.7617 20.9062 49.9902C20.9062 45.2051 22.6289 40.0371 25.5 36.5918C24.2559 33.4336 24.4473 26.7344 25.8828 23.959C29.7109 23.4805 34.8789 25.4902 37.9414 28.2656C41.5781 27.1172 45.4062 26.543 50.0957 26.543C54.7852 26.543 58.6133 27.1172 62.0586 28.1699C65.0254 25.4902 70.2891 23.4805 74.1172 23.959C75.457 26.543 75.6484 33.2422 74.4043 36.4961C77.4668 40.1328 79.0937 45.0137 79.0937 49.9902C79.0937 61.7617 70.1934 70.6621 57.3691 72.2891C60.623 74.3945 62.8242 78.9883 62.8242 84.252V94.2051C62.8242 97.0762 65.2168 98.7031 68.0879 97.5547C85.4102 90.9512 99 73.6289 99 52.1914C99 25.1074 76.9883 3 49.9043 3C22.8203 3 1 25.1074 1 52.1914C1 73.4375 14.4941 91.0469 32.6777 97.6504C35.2617 98.6074 37.75 96.8848 37.75 94.3008V86.6445C36.4102 87.2188 34.6875 87.6016 33.1562 87.6016C26.8398 87.6016 23.1074 84.1563 20.4277 77.7441C19.375 75.1602 18.2266 73.6289 16.0254 73.3418C14.877 73.2461 14.4941 72.7676 14.4941 72.1934C14.4941 71.0449 16.4082 70.1836 18.3223 70.1836C21.0977 70.1836 23.4902 71.9063 25.9785 75.4473C27.8926 78.2227 29.9023 79.4668 32.2949 79.4668C34.6875 79.4668 36.2187 78.6055 38.4199 76.4043C40.0469 74.7773 41.291 73.3418 42.4395 72.3848Z" fill="#F4F6FB"/>
</svg>
