<svg width="100" height="100" viewBox="0 0 100 100" fill="none" xmlns="http://www.w3.org/2000/svg">
<path d="M22.6205 34.5436H3.52558V95H22.6205V34.5436Z" fill="#F4F6FB"/>
<path d="M12.6712 6C5.63022 6 1 10.5049 1 16.4862C1 22.3539 5.47716 26.9723 12.4034 26.9723H12.5564C19.7505 26.9723 24.2276 22.316 24.1894 16.4862C24.0363 10.5049 19.7122 6 12.6712 6Z" fill="#F4F6FB"/>
<path d="M74.7774 33.9758C63.8333 33.9758 56.9836 39.8813 55.7208 44.0455V34.5436H34.2534C34.5213 39.5785 34.2534 95 34.2534 95H55.7208V62.3301C55.7208 60.4751 55.6443 58.658 56.18 57.3709C57.6341 53.7367 60.8102 49.9511 66.5119 49.9511C73.9738 49.9511 77.3413 55.5538 77.3413 63.7308V95H99V61.3837C99 42.6827 88.362 33.9758 74.7774 33.9758Z" fill="#F4F6FB"/>
</svg>
