<svg width="23" height="26" viewBox="0 0 23 26" fill="none" xmlns="http://www.w3.org/2000/svg">
<g clip-path="url(#clip0)">
<path d="M5.09234 22.7502H0.375781V7.56155H5.09234V22.7502ZM2.73152 5.48968C1.22332 5.48968 0 4.24046 0 2.73226C1.07951e-08 2.00781 0.287785 1.31304 0.800045 0.800777C1.3123 0.288517 2.00708 0.000732422 2.73152 0.000732422C3.45597 0.000732422 4.15074 0.288517 4.663 0.800777C5.17526 1.31304 5.46305 2.00781 5.46305 2.73226C5.46305 4.24046 4.23922 5.48968 2.73152 5.48968ZM22.7449 22.7502H18.0385V15.3565C18.0385 13.5944 18.003 11.3346 15.5863 11.3346C13.1341 11.3346 12.7583 13.2491 12.7583 15.2295V22.7502H8.0468V7.56155H12.5704V9.63343H12.6364C13.2661 8.44007 14.8043 7.18069 17.0991 7.18069C21.8725 7.18069 22.75 10.3241 22.75 14.4069V22.7502H22.7449Z" fill="#FAFAFA"/>
</g>
<defs>
<clipPath id="clip0">
<rect width="22.75" height="26" fill="white"/>
</clipPath>
</defs>
</svg>
