<svg width="100" height="100" viewBox="0 0 100 100" fill="none" xmlns="http://www.w3.org/2000/svg">
<path d="M8.35 18C7.38719 18 6.47324 18.2032 5.63203 18.5385L47.2055 55.0385C49.0025 56.6159 50.9167 56.617 52.718 55.0385L94.368 18.5385C93.5268 18.2032 92.6128 18 91.65 18H8.35ZM1.07656 24.3461C1.03022 24.6826 1 25.035 1 25.3846V74.6154C1 78.7063 4.27817 82 8.35 82H91.65C95.7218 82 99 78.7063 99 74.6154V25.3846C99 25.035 98.9697 24.6826 98.9234 24.3461L57.5414 60.6154C53.2239 64.3989 46.6993 64.4049 42.382 60.6154L1.07656 24.3461Z" fill="#F4F6FB"/>
</svg>
