<svg width="32" height="32" viewBox="0 0 32 32" fill="none" xmlns="http://www.w3.org/2000/svg">
<path d="M26.66 8.91749C27.8552 8.20294 28.7496 7.07781 29.176 5.75215C28.0529 6.41855 26.824 6.88799 25.5427 7.14015C23.7661 5.26086 20.9513 4.80351 18.6712 6.02369C16.3911 7.24386 15.21 9.83947 15.788 12.3602C11.1875 12.1292 6.9013 9.95603 3.99602 6.38149C2.47981 8.99671 3.25462 12.3399 5.76669 14.0215C4.8583 13.9923 3.97005 13.7463 3.17602 13.3042C3.17602 13.3282 3.17602 13.3522 3.17602 13.3762C3.17654 16.1003 5.09651 18.447 7.76669 18.9868C6.9241 19.216 6.04029 19.2498 5.18269 19.0855C5.93362 21.4152 8.08075 23.0112 10.528 23.0588C8.50113 24.6496 5.99798 25.5124 3.42135 25.5082C2.96465 25.5088 2.5083 25.4826 2.05469 25.4295C4.67121 27.1108 7.7165 28.0032 10.8267 28.0002C15.1537 28.0299 19.312 26.324 22.3716 23.2642C25.4312 20.2043 27.1368 16.0458 27.1067 11.7188C27.1067 11.4708 27.1009 11.2242 27.0893 10.9788C28.21 10.169 29.1771 9.16569 29.9453 8.01615C28.9013 8.4789 27.794 8.78271 26.66 8.91749Z" fill="#FAFAFA"/>
</svg>
