<svg width="32" height="32" viewBox="0 0 32 32" fill="none" xmlns="http://www.w3.org/2000/svg">
<path fill-rule="evenodd" clip-rule="evenodd" d="M20.9619 1.7282C22.8455 1.85444 24.5387 2.0843 25.6355 2.47139C25.9693 2.58917 26.0128 2.90783 26.0183 2.99275C26.0254 3.10304 26.0049 3.20582 25.9888 3.27243C25.9539 3.41745 25.8882 3.59311 25.8104 3.77795C25.6511 4.15635 25.3981 4.67264 25.0877 5.27085C24.4646 6.47164 23.5854 8.04925 22.6927 9.61471C21.7993 11.1816 20.8891 12.7419 20.2026 13.9102C19.8593 14.4944 19.5718 14.9808 19.37 15.3212C19.2692 15.4914 19.1897 15.6251 19.1355 15.7163L19.0525 15.8558C19.0525 15.8558 19.0521 15.8564 18.594 15.5832C18.136 15.31 18.1361 15.3099 18.1361 15.3099L18.2187 15.1711C18.2727 15.0803 18.3518 14.947 18.4524 14.7773C18.6536 14.4379 18.9404 13.9527 19.283 13.3698C19.9682 12.2037 20.8758 10.6477 21.7661 9.08634C22.6573 7.52351 23.5279 5.96086 24.1409 4.77954C24.4486 4.1867 24.6853 3.70148 24.8272 3.36417C24.8306 3.35615 24.8339 3.34827 24.8371 3.34052C23.878 3.08036 22.4974 2.90017 20.8905 2.79248C19.0314 2.66788 16.9196 2.64306 14.9109 2.68647C12.9021 2.72987 11.006 2.8413 9.5795 2.98727C8.86467 3.06042 8.2779 3.14123 7.85737 3.22425C7.76953 3.24159 7.69124 3.25859 7.62225 3.27506C7.72769 3.46334 7.87789 3.70747 8.07122 4.00456C8.55423 4.74679 9.2727 5.76844 10.1359 6.96507C11.0805 8.27436 12.1863 9.77675 13.3346 11.3368C14.2892 12.6338 15.2732 13.9706 16.2182 15.2694C17.3636 16.8437 18.5621 18.4664 19.7112 20.0213L19.8595 20.2219C20.9542 21.7033 22.0002 23.1185 22.9049 24.3624C23.8492 25.6608 24.6453 26.7802 25.1845 27.5971C25.4526 28.0034 25.6661 28.3481 25.8029 28.6082C25.8695 28.7347 25.9306 28.8648 25.9672 28.9835C25.9847 29.0406 26.0066 29.1263 26.0074 29.2235C26.008 29.3116 25.991 29.5145 25.8149 29.673C25.7114 29.7662 25.5901 29.8128 25.5241 29.8358C25.4429 29.8642 25.3524 29.8871 25.2607 29.9065C25.0761 29.9455 24.8416 29.9794 24.5722 30.0096C24.0308 30.0704 23.304 30.1211 22.4588 30.1621C20.7658 30.2442 18.5666 30.2888 16.3583 30.293C14.15 30.2972 11.9251 30.2612 10.1809 30.1812C9.3099 30.1413 8.55138 30.0901 7.97206 30.0265C7.68315 29.9947 7.42994 29.959 7.2257 29.918C7.04638 29.882 6.82832 29.8286 6.66882 29.7289C6.52714 29.6404 6.46039 29.5132 6.43095 29.4237C6.40285 29.3383 6.39948 29.2622 6.40005 29.2155C6.40117 29.1224 6.42054 29.0348 6.43681 28.9727C6.47141 28.8405 6.53145 28.6807 6.60243 28.511C6.74718 28.165 6.97207 27.6968 7.246 27.1563C7.79574 26.0715 8.56421 24.6538 9.34207 23.2497C10.1207 21.8443 10.9116 20.4473 11.5076 19.4019C11.8057 18.8792 12.0552 18.4442 12.2301 18.1398C12.3176 17.9876 12.3865 17.8681 12.4335 17.7865L12.5055 17.6618C12.5055 17.6618 12.5058 17.6613 12.9675 17.9283C13.4292 18.1953 13.4291 18.1954 13.4291 18.1954L13.3575 18.3194C13.3107 18.4006 13.2421 18.5197 13.1549 18.6714C12.9804 18.9749 12.7316 19.4088 12.4342 19.9303C11.8394 20.9735 11.0508 22.3664 10.2751 23.7666C9.49869 25.1682 8.738 26.5719 8.19746 27.6385C7.93253 28.1613 7.72549 28.5933 7.59558 28.901C7.73211 28.9233 7.89668 28.9451 8.08851 28.9662C8.63514 29.0262 9.36798 29.0762 10.2298 29.1157C11.9514 29.1946 14.1582 29.2306 16.3563 29.2263C18.5543 29.2221 20.736 29.1777 22.4071 29.0967C23.2439 29.0561 23.9449 29.0067 24.4532 28.9496C24.5639 28.9372 24.6633 28.9246 24.7516 28.9121C24.6397 28.7197 24.4867 28.4764 24.2942 28.1847C23.7695 27.3897 22.986 26.2874 22.0423 24.9898C21.1399 23.7491 20.0961 22.3368 19.0002 20.8539L18.8533 20.6552C17.7045 19.1007 16.5037 17.4749 15.3556 15.897C14.4202 14.6112 13.4375 13.2761 12.482 11.9779C11.3285 10.4107 10.2145 8.89717 9.27088 7.58912C8.40662 6.39108 7.67522 5.35167 7.17719 4.58635C6.92955 4.20581 6.73105 3.88005 6.60233 3.63086C6.53948 3.50918 6.48194 3.38434 6.44666 3.26962C6.42943 3.21357 6.4095 3.1349 6.40611 3.04652C6.40314 2.96895 6.40924 2.79482 6.53873 2.63657M12.9675 17.9283L13.4291 18.1954C13.5766 17.9405 13.4895 17.6141 13.2345 17.4666C12.9796 17.3191 12.6533 17.4063 12.5058 17.6613L12.9675 17.9283ZM20.9619 1.7282C19.0628 1.60093 16.9181 1.57618 14.8878 1.62005ZM14.8878 1.62005C12.8577 1.66392 10.9323 1.77661 9.47092 1.92615ZM9.47092 1.92615C8.74179 2.00075 8.11797 2.08554 7.65077 2.17778ZM7.65077 2.17778C7.41852 2.22364 7.21152 2.27391 7.04456 2.33019ZM7.04456 2.33019C6.96125 2.35828 6.87655 2.39161 6.79897 2.43228ZM6.79897 2.43228C6.72944 2.46875 6.62424 2.53207 6.53873 2.63657ZM18.0193 5.17822C16.3197 5.13126 14.2145 5.16567 12.5587 5.37408C12.2664 5.41086 11.9997 5.20377 11.9629 4.91152C11.9261 4.61927 12.1332 4.35254 12.4255 4.31576C14.1581 4.09768 16.3242 4.0643 18.0487 4.11196C18.9127 4.13583 19.6757 4.18031 20.2277 4.23384C20.5014 4.26037 20.7354 4.29027 20.9075 4.32348C20.9897 4.33935 21.0809 4.36021 21.161 4.38988C21.1977 4.40348 21.264 4.43025 21.3308 4.47825C21.3753 4.5102 21.5678 4.65619 21.5678 4.93246C21.5678 5.02406 21.5442 5.11411 21.4993 5.19394L17.8387 11.7017C17.6943 11.9585 17.3691 12.0495 17.1124 11.9051C16.8556 11.7607 16.7646 11.4355 16.909 11.1788L20.2134 5.3044C20.1848 5.30143 20.1552 5.29847 20.1248 5.29552C19.6046 5.24508 18.8674 5.20165 18.0193 5.17822ZM18.3209 16.0412C18.0679 15.8904 17.9852 15.5628 18.1361 15.3099L18.594 15.5832L19.0521 15.8564C18.9012 16.1094 18.5738 16.1921 18.3209 16.0412ZM15.0613 19.9728C15.3173 20.1184 15.4069 20.444 15.2614 20.7001L11.966 26.4975C12.0128 26.5013 12.062 26.505 12.1134 26.5087C12.6772 26.549 13.4622 26.5763 14.3305 26.589C16.0698 26.6143 18.1 26.5801 19.2944 26.4806C19.5879 26.4561 19.8457 26.6743 19.8702 26.9678C19.8946 27.2613 19.6765 27.5191 19.383 27.5436C18.137 27.6474 16.0664 27.681 14.315 27.6555C13.4379 27.6428 12.6301 27.615 12.0374 27.5727C11.7437 27.5517 11.4887 27.5262 11.3006 27.4944C11.2107 27.4792 11.1104 27.4586 11.0224 27.427C10.9816 27.4124 10.9094 27.3838 10.8376 27.3309C10.7785 27.2874 10.6037 27.1405 10.6037 26.8765C10.6037 26.7841 10.6278 26.6933 10.6734 26.613L14.3341 20.173C14.4796 19.9169 14.8052 19.8273 15.0613 19.9728Z" fill="#FD5531"/>
<path d="M6.53873 2.63657L20.9619 1.7282L14.8878 1.62005L9.47092 1.92615L7.65077 2.17778L7.04456 2.33019L6.79897 2.43228L6.53873 2.63657Z" fill="#FD5531"/>
</svg>
