<svg width="60" height="60" viewBox="0 0 60 60" fill="none" xmlns="http://www.w3.org/2000/svg">
<path d="M24.7465 5C24.2991 5 23.9008 5.28385 23.7549 5.70683L7.03491 54.1754C6.89393 54.5842 7.19751 55.01 7.62983 55.01H15.8618C16.3118 55.01 16.7117 54.7229 16.8556 54.2966L20.2396 44.2696H20.2354L22.9037 36.2143H22.8534L28.1616 20.3401L32.9688 5.8272C33.1037 5.41991 32.8005 5 32.3714 5H24.7465Z" fill="#0F1221"/>
<path d="M38.2448 12.0487C38.081 11.5738 37.4075 11.5788 37.2508 12.0561L26.9424 43.4439C26.8088 43.8509 27.112 44.2696 27.5404 44.2696H39.5724L42.8919 54.291C43.0342 54.7202 43.4355 55.01 43.8876 55.01H52.1822C52.6145 55.01 52.9181 54.5842 52.7771 54.1754L38.2448 12.0487Z" fill="#0F1221"/>
</svg>
