<svg width="32" height="32" viewBox="0 0 32 32" fill="none" xmlns="http://www.w3.org/2000/svg">
<mask id="mask0" mask-type="alpha" maskUnits="userSpaceOnUse" x="4" y="3" width="24" height="27">
<path d="M14.6551 3.027C14.2932 3.04929 13.9332 3.10411 13.5813 3.19342C13.26 3.27492 12.9418 3.36992 12.6215 3.45598C9.63825 4.22933 7.35999 5.95157 5.74219 8.57665C4.28089 10.9471 3.78457 13.5163 4.08291 16.2565C4.34205 18.6363 5.41245 20.6549 6.93525 22.4531C8.28951 24.0524 9.88551 25.3762 11.6354 26.5258C13.4505 27.7182 15.3834 28.6512 17.4562 29.2973C17.968 29.4567 18.4938 29.5534 19.0189 29.6534C19.1311 29.6747 19.2533 29.6952 19.3307 29.5805C19.3943 29.4865 19.3693 29.3894 19.327 29.2999C19.2816 29.2041 19.2178 29.118 19.15 29.0362C18.8019 28.6167 18.5476 28.1435 18.3335 27.6454C18.0814 27.0583 18.1718 26.4108 19.0036 26.1948C21.1728 25.6311 22.9702 24.4348 24.4405 22.762C26.5562 20.3546 27.545 17.5224 27.3774 14.3303C27.1998 10.9478 25.8265 8.09806 23.2634 5.8699C21.0256 3.9248 18.4251 3 15.5245 3C15.2375 3 14.9479 3.00911 14.6551 3.027Z" fill="white"/>
</mask>
<g mask="url(#mask0)">
<path d="M28.2088 2.18666L28.2083 14.1375L24.8574 14.1123L24.8232 14.1121C24.0308 14.1121 23.2529 14.3265 22.5716 14.7332L21.7539 15.2217L20.9016 14.2616C20.833 14.1847 20.7562 14.1147 20.6727 14.0535C20.3573 13.8221 19.9708 13.7275 19.5844 13.7871C19.1979 13.8466 18.8576 14.0531 18.6263 14.3685L18.0917 15.0973L17.3704 12.4636C17.2439 12.0007 16.8749 11.6461 16.4067 11.5383C16.0681 11.4608 15.7193 11.5191 15.4245 11.7037C15.1297 11.8882 14.9248 12.1764 14.8469 12.5151L14.1963 15.3444L13.7958 13.5475C13.6805 13.0313 13.2943 12.6161 12.7882 12.4644C12.4132 12.3516 12.0175 12.3917 11.6732 12.5771C11.3289 12.7624 11.0772 13.0705 10.9646 13.4451L10.4873 15.034L10.1706 14.076C9.97166 13.4752 9.4132 13.0718 8.78056 13.0718H7.90407C7.45493 13.0718 7.0907 13.4359 7.0907 13.8852C7.0907 14.3345 7.45493 14.6985 7.90407 14.6985H8.66295L9.59052 17.5034C9.7597 18.0137 10.313 18.2922 10.8241 18.123C11.1258 18.0231 11.3606 17.7814 11.4518 17.4772L12.3435 14.5094L13.2338 18.503C13.2906 18.7574 13.4428 18.9746 13.6631 19.1145C13.8214 19.2152 14.0013 19.2669 14.1846 19.2669C14.2559 19.2669 14.3279 19.2591 14.3992 19.2432C14.7632 19.1618 15.0531 18.8744 15.1377 18.5094L16.1427 14.1391L16.7009 16.1764C16.7924 16.5117 17.0095 16.7912 17.3114 16.9635C17.6133 17.1354 17.9642 17.1795 18.2995 17.0881C18.5815 17.011 18.8322 16.8384 19.0053 16.6025L19.819 15.4929L20.5374 16.3019C21.0558 16.8851 21.9177 17.0181 22.5877 16.6183L23.4055 16.1299C23.8405 15.8701 24.33 15.7354 24.8448 15.739L28.2083 15.7643L28.2088 30.4834H3.18654V2.18666H28.2088Z" fill="#00BF69"/>
</g>
</svg>
