<svg width="190" height="191" viewBox="0 0 190 191" fill="none" xmlns="http://www.w3.org/2000/svg">
<path d="M96.9372 18.7325C60.1227 18.7325 29.6875 48.1702 29.6875 84.5911C29.6875 102.944 36.3542 119.983 47.3482 134.425C59.3642 150.355 74.3024 164.234 91.2126 175.129C95.4362 177.837 98.9092 177.647 102.758 175.129C119.572 164.234 134.51 150.355 146.63 134.425C157.616 119.983 164.291 102.944 164.291 84.5911C164.291 48.1702 133.855 18.7325 96.9372 18.7325Z" fill="#0075FF"/>
<path d="M117.991 72.9286C115.821 70.7578 109.641 73.4071 104.215 78.8327L96.5065 86.5413C88.1713 94.8767 80.2237 104.229 74.3185 112.395C73.9178 112.949 73.9784 113.711 74.4617 114.194L76.7258 116.458C77.209 116.942 77.9711 117.002 78.5256 116.602C86.6907 110.696 96.0434 102.749 104.379 94.4134L112.087 86.7048C117.513 81.2792 120.162 75.0994 117.991 72.9286Z" fill="white"/>
<path d="M89.3699 119.262L91.338 117.294C91.6839 116.949 91.8232 116.446 91.7041 115.971L90.4112 110.825C88.2455 112.632 86.1182 114.337 84.0627 115.923L87.4019 119.262C87.9459 119.806 88.8261 119.806 89.3699 119.262Z" fill="white"/>
<path d="M71.6578 103.518L74.9972 106.858C76.5833 104.802 78.2881 102.675 80.0949 100.509L74.9491 99.2162C74.4745 99.097 73.9719 99.2364 73.626 99.5823L71.6578 101.55C71.1141 102.094 71.1141 102.974 71.6578 103.518Z" fill="white"/>
<path d="M90.4392 74.8967L88.314 77.022L93.2328 79.9751L94.3754 78.8326C94.9191 78.2887 94.9191 77.4086 94.3754 76.8646L92.4072 74.8967C91.8635 74.3528 90.9831 74.3528 90.4392 74.8967Z" fill="white"/>
<path d="M116.023 98.5129L114.055 96.5449C113.511 96.001 112.631 96.001 112.087 96.5449L110.946 97.6866L113.898 102.606L116.023 100.481C116.567 99.9371 116.567 99.0568 116.023 98.5129Z" fill="white"/>
<path d="M117.216 113.541L106.701 96.0269L106.346 96.3821C103.697 99.031 100.909 101.63 98.0801 104.186L112.087 118.193C112.631 118.737 113.511 118.737 114.055 118.193L117.007 115.241C117.459 114.79 117.546 114.088 117.216 113.541Z" fill="white"/>
<path d="M72.727 78.8325L86.7342 92.8398C89.2901 90.0112 91.8892 87.2226 94.5382 84.5736L94.8936 84.2181L77.3791 73.7039C76.8322 73.3744 76.1308 73.4609 75.6792 73.9126L72.7271 76.8646C72.1831 77.4085 72.1831 78.2886 72.727 78.8325Z" fill="white"/>
</svg>
