<svg width="32" height="32" viewBox="0 0 32 32" fill="none" xmlns="http://www.w3.org/2000/svg">
<path fill-rule="evenodd" clip-rule="evenodd" d="M5 14.092C5 7.95792 10.1259 3 16.3263 3C22.5441 3 27.67 7.95792 27.67 14.092C27.67 17.183 26.5458 20.0527 24.6956 22.485C22.6543 25.1679 20.1384 27.5056 17.3065 29.3404C16.6584 29.7645 16.0735 29.7965 15.3621 29.3404C12.5141 27.5056 9.99818 25.1679 7.97444 22.485C6.12281 20.0527 5 17.183 5 14.092ZM13.3839 18.0618V19.2246H19.2301V17.6031H15.6776L19.1661 12.813V11.6502H13.4372V13.2717H16.8618L13.3839 18.0618Z" fill="white"/>
</svg>
