<svg width="32" height="32" viewBox="0 0 32 32" fill="none" xmlns="http://www.w3.org/2000/svg">
<path d="M12.8488 1.60001C12.5921 1.60001 12.3636 1.76286 12.2798 2.00555L2.6867 29.8145C2.60581 30.049 2.78 30.2933 3.02804 30.2933H7.75113C8.00932 30.2933 8.23875 30.1286 8.32132 29.884L10.2629 24.131H10.2605L11.7914 19.5093H11.7626L14.8082 10.4014L17.5663 2.07461C17.6437 1.84093 17.4697 1.60001 17.2235 1.60001H12.8488Z" fill="#FD5531"/>
<path d="M20.5934 5.64422C20.4994 5.37172 20.113 5.3746 20.0231 5.64846L14.1087 23.6573C14.032 23.8908 14.206 24.131 14.4518 24.131H21.3551L23.2597 29.8808C23.3413 30.1271 23.5716 30.2933 23.831 30.2933H28.59C28.8381 30.2933 29.0122 30.049 28.9314 29.8145L20.5934 5.64422Z" fill="#FD5531"/>
</svg>
