<svg width="32" height="32" viewBox="0 0 32 32" fill="none" xmlns="http://www.w3.org/2000/svg">
<path d="M13.1981 2.66667C12.9595 2.66667 12.7471 2.81806 12.6693 3.04365L3.75196 28.8936C3.67677 29.1116 3.83868 29.3387 4.06925 29.3387H8.45961C8.69962 29.3387 8.91289 29.1856 8.98963 28.9582L10.7945 23.6105H10.7922L12.2153 19.3143H12.1885L15.0195 10.8481L17.5834 3.10784C17.6553 2.89063 17.4936 2.66667 17.2647 2.66667H13.1981Z" fill="#FD5531"/>
<path d="M20.3972 6.42599C20.3099 6.17269 19.9507 6.17536 19.8671 6.42992L14.3693 23.1701C14.298 23.3871 14.4598 23.6105 14.6882 23.6105H21.1053L22.8757 28.9552C22.9516 29.1841 23.1656 29.3387 23.4067 29.3387H27.8305C28.0611 29.3387 28.223 29.1116 28.1478 28.8936L20.3972 6.42599Z" fill="#FD5531"/>
</svg>
