<svg width="60" height="60" viewBox="0 0 60 60" fill="none" xmlns="http://www.w3.org/2000/svg">
<path d="M24.0914 3C23.6101 3 23.1816 3.30536 23.0247 3.76039L5.03756 55.9022C4.88589 56.3419 5.21248 56.8 5.67756 56.8H14.5334C15.0175 56.8 15.4476 56.4912 15.6025 56.0325L19.243 45.2456H19.2385L22.1089 36.5799H22.0549L27.7654 19.5027L32.9368 3.88989C33.082 3.45174 32.7557 3 32.2941 3H24.0914Z" fill="#FD5531"/>
<path d="M38.6127 10.5829C38.4365 10.072 37.7119 10.0774 37.5434 10.5908L26.4538 44.3574C26.31 44.7952 26.6362 45.2456 27.097 45.2456H40.0409L43.612 56.0265C43.765 56.4882 44.1967 56.8 44.6831 56.8H53.6063C54.0714 56.8 54.3979 56.3419 54.2463 55.9022L38.6127 10.5829Z" fill="#FD5531"/>
</svg>
