<svg width="36" height="36" viewBox="0 0 36 36" fill="none" xmlns="http://www.w3.org/2000/svg">
<path fill-rule="evenodd" clip-rule="evenodd" d="M32.213 33.4763H4.74704C2.68619 33.4763 1 31.7901 1 29.7293V12.2431C1 10.1822 2.68619 8.49606 4.74704 8.49606H9.18114L10.4302 5.71073C11.0297 4.37427 12.3786 3.5 13.8525 3.5H23.1075C24.5814 3.5 25.9178 4.3618 26.5298 5.71073L27.7789 8.49606H32.213C34.2738 8.49606 35.96 10.1822 35.96 12.2431V29.7293C35.96 31.7901 34.2738 33.4763 32.213 33.4763ZM4.74704 10.9941C4.06006 10.9941 3.49803 11.5561 3.49803 12.2431V29.7293C3.49803 30.4163 4.06006 30.9783 4.74704 30.9783H32.2253C32.9123 30.9783 33.4744 30.4163 33.4744 29.7293V12.2431C33.4744 11.5561 32.9123 10.9941 32.2253 10.9941H26.9795C26.4924 10.9941 26.0427 10.7068 25.8429 10.2571L24.2566 6.73493C24.0568 6.28528 23.6071 5.99799 23.12 5.99799H13.8649C13.3777 5.99799 12.9281 6.28526 12.7283 6.73493L11.142 10.2571C10.9422 10.7068 10.4925 10.9941 10.0054 10.9941H4.74704ZM18.4862 28.4803C14.3519 28.4803 10.9921 25.1205 10.9921 20.9862C10.9921 16.8519 14.3519 13.4921 18.4862 13.4921C22.6204 13.4921 25.9803 16.8519 25.9803 20.9862C25.9803 25.1205 22.6204 28.4803 18.4862 28.4803ZM18.4862 15.9901C15.7259 15.9901 13.4901 18.2259 13.4901 20.9862C13.4901 23.7465 15.7259 25.9823 18.4862 25.9823C21.2465 25.9823 23.4822 23.7465 23.4822 20.9862C23.4822 18.2259 21.2465 15.9901 18.4862 15.9901Z" fill="#F4F6FB"/>
</svg>
