<svg width="35" height="30" viewBox="0 0 35 30" fill="none" xmlns="http://www.w3.org/2000/svg">
<path d="M7.3284 28.299C7.3284 26.3079 7.3284 24.3168 7.3284 22.3257C7.3284 21.8478 6.92133 21.4407 6.44346 21.4407C5.81516 21.4407 5.18685 21.4407 4.55855 21.4407C4.16033 21.4407 3.75326 21.4407 3.35504 21.4407C3.09841 21.4407 2.85947 21.4584 2.61169 21.3699C1.54092 20.9806 1.8064 19.5735 1.8064 18.6709C1.8064 15.5648 1.8064 12.4498 1.8064 9.34367C1.8064 8.94545 1.77985 8.55607 2.01879 8.21095C2.29312 7.81273 2.70904 7.67114 3.1692 7.67114C3.97449 7.67114 4.77093 7.67114 5.57623 7.67114C8.87703 7.67114 12.1778 7.67114 15.4787 7.67114C18.3989 7.67114 21.3192 7.67114 24.2307 7.67114C24.8944 7.67114 25.7616 7.5384 26.2306 8.1136C26.5226 8.46758 26.5049 8.8658 26.5049 9.29057C26.5049 9.83923 26.5049 10.3879 26.5049 10.9454C26.5049 14.0338 26.5049 17.1222 26.5049 20.2018C26.5049 20.6266 26.5138 21.0248 26.2306 21.3788C25.9209 21.7682 25.4696 21.8213 25.0183 21.8213C23.7616 21.8213 22.5139 21.8213 21.2573 21.8213C18.3901 21.8213 15.5141 21.7239 12.6557 21.8213C12.2398 21.839 11.9743 22.0425 11.6911 22.308C11.2133 22.7416 10.7442 23.1752 10.2664 23.6088C9.03632 24.7415 7.79741 25.8654 6.56735 26.9981C6.31957 27.2194 6.08064 27.4494 5.83286 27.6707C4.99217 28.4406 6.24878 29.6883 7.08062 28.9184C8.85934 27.2902 10.6469 25.653 12.4256 24.0247C12.6734 23.7947 12.93 23.5646 13.1778 23.3345C12.9654 23.423 12.7619 23.5115 12.5495 23.5911C14.8769 23.5911 17.2043 23.5911 19.5317 23.5911C21.0007 23.5911 22.4696 23.5911 23.9386 23.5911C25.0183 23.5911 26.1244 23.6973 27.0448 23.0071C27.8412 22.4142 28.266 21.5115 28.2748 20.5204C28.2748 20.1753 28.2748 19.8213 28.2748 19.4762C28.2748 18.016 28.2748 16.5559 28.2748 15.0957C28.2748 13.556 28.2748 12.0162 28.2748 10.4764C28.2748 9.44101 28.4076 8.28174 27.8589 7.36141C27.3102 6.44108 26.328 5.91897 25.266 5.89242C25.0891 5.89242 24.9209 5.89242 24.7439 5.89242C23.8059 5.89242 22.8767 5.89242 21.9387 5.89242C18.806 5.89242 15.6733 5.89242 12.5318 5.89242C9.79737 5.89242 7.07177 5.89242 4.33732 5.89242C3.82405 5.89242 3.30194 5.85702 2.78868 5.91012C1.43473 6.04286 0.293161 7.05168 0.0807768 8.41448C0.0276807 8.76846 0.0365301 9.11358 0.0365301 9.45871C0.0365301 12.3878 0.0365301 15.317 0.0365301 18.2373C0.0365301 19.1311 -0.10506 20.2372 0.16927 21.1045C0.576341 22.3611 1.71791 23.1752 3.03646 23.2106C3.62937 23.2283 4.23112 23.2106 4.82403 23.2106C5.36384 23.2106 5.90365 23.2106 6.44346 23.2106C6.15143 22.9186 5.85056 22.6177 5.55853 22.3257C5.55853 24.3168 5.55853 26.3079 5.55853 28.299C5.55853 29.4317 7.3284 29.4405 7.3284 28.299Z" fill="#F4F6FB"/>
<path d="M8.4877 6.77762C8.4877 5.94578 8.4877 5.12279 8.4877 4.29095C8.4877 3.53876 8.30186 2.53878 8.97441 2.03437C9.31069 1.77774 9.68236 1.78659 10.0806 1.78659C10.5761 1.78659 11.0806 1.78659 11.5761 1.78659C15.6026 1.78659 19.6202 1.78659 23.6466 1.78659C25.5581 1.78659 27.4696 1.78659 29.381 1.78659C30.2394 1.78659 31.0978 1.75119 31.9562 1.78659C32.7261 1.81313 33.1862 2.39719 33.1862 3.14054C33.1862 3.73344 33.1862 4.3352 33.1862 4.92811C33.1862 7.0431 33.1862 9.1581 33.1862 11.2731C33.1862 12.1315 33.1862 12.9987 33.1862 13.8571C33.1862 14.2642 33.257 14.7863 33.1066 15.1668C32.7703 16.0163 31.9119 15.9456 31.142 15.9456C30.1155 15.9456 29.0978 15.9456 28.0713 15.9456C27.8412 15.9456 27.62 15.9456 27.3899 15.9456C26.2484 15.9456 26.2484 17.7154 27.3899 17.7154C28.1952 17.7154 29.0005 17.7154 29.8058 17.7154C30.6288 17.7154 31.496 17.7862 32.3102 17.6889C33.8588 17.4942 34.9296 16.1933 34.9561 14.6624C34.965 14.1137 34.9561 13.5562 34.9561 13.0076C34.9561 10.8129 34.9561 8.61829 34.9561 6.42365C34.9561 5.53871 34.9561 4.66263 34.9561 3.77769C34.9561 3.06089 34.9738 2.38834 34.6552 1.71579C34.142 0.62732 33.0358 0.0167154 31.85 0.00786609C31.4606 0.00786609 31.0624 0.00786609 30.673 0.00786609C28.9297 0.00786609 27.1864 0.00786609 25.4431 0.00786609C21.0803 0.00786609 16.7176 0.00786609 12.3549 0.00786609C11.4788 0.00786609 10.5938 -0.00983262 9.71776 0.00786609C8.02753 0.0521129 6.74438 1.37067 6.71783 3.05204C6.70013 3.99892 6.71783 4.95465 6.71783 5.90154C6.71783 6.19356 6.71783 6.48559 6.71783 6.77762C6.71783 7.91034 8.4877 7.91919 8.4877 6.77762Z" fill="#F4F6FB"/>
</svg>
