<svg width="36" height="36" viewBox="0 0 36 36" fill="none" xmlns="http://www.w3.org/2000/svg">
<path d="M27.7526 34.9477C27.3111 34.9477 26.8695 34.8373 26.5383 34.6165L18.7008 30.5321C18.5904 30.4218 18.48 30.4218 18.2592 30.5321L10.4216 34.7269C9.53854 35.1685 8.43466 35.1685 7.66194 34.5061C6.88922 33.9542 6.44767 32.9607 6.66844 31.9672L8.21388 23.2465C8.21388 23.1361 8.21388 22.9153 8.10349 22.9153L1.81135 16.7336C1.03864 16.0713 0.817859 14.9674 1.14902 14.0843C1.48019 13.0908 2.25291 12.4285 3.2464 12.3181L11.9671 11.1038C12.0775 11.1038 12.1879 10.9934 12.2983 10.883L16.1618 2.93505C16.6034 2.05194 17.4865 1.5 18.48 1.5C19.4735 1.5 20.3566 2.05194 20.7982 2.93505L24.6617 10.883C24.7721 10.9934 24.8825 11.1038 24.9929 11.1038L33.7136 12.3181C34.7071 12.4285 35.4798 13.2012 35.811 14.0843C36.1421 15.0778 35.9214 16.0713 35.1486 16.7336L28.8565 22.9153C28.7461 23.0257 28.7461 23.1361 28.7461 23.2465L30.2916 31.9672C30.5123 32.9607 30.0708 33.9542 29.2981 34.5061C28.7461 34.8373 28.3046 34.9477 27.7526 34.9477ZM18.48 28.3244C18.9216 28.3244 19.3631 28.4348 19.6943 28.6555L27.5318 32.7399C27.7526 32.8503 27.863 32.7399 27.9734 32.7399C28.0838 32.6295 28.1942 32.5191 28.1942 32.2984L26.6487 23.5777C26.5383 22.6946 26.7591 21.8115 27.4215 21.2595L33.7136 15.0778C33.824 14.9674 33.824 14.7466 33.824 14.6362C33.824 14.5258 33.7136 14.4154 33.4928 14.3051L24.7721 13.0908C23.889 12.9804 23.2267 12.4285 22.7851 11.6557L18.8112 3.81816C18.7008 3.59738 18.48 3.59738 18.48 3.59738C18.48 3.59738 18.1488 3.59738 18.1488 3.81816L14.2852 11.7661C13.9541 12.5388 13.1814 13.0908 12.2983 13.2012L3.57757 14.4154C3.35679 14.4154 3.2464 14.6362 3.2464 14.7466C3.2464 14.857 3.13602 14.9674 3.35679 15.1882L9.64893 21.3699C10.3113 21.9219 10.532 22.805 10.4216 23.6881L8.87621 32.4088C8.87621 32.6295 8.9866 32.7399 9.09699 32.8503C9.20738 32.9607 9.31776 32.9607 9.53854 32.8503L17.3761 28.7659C17.5969 28.4348 18.0384 28.3244 18.48 28.3244Z" fill="#F4F6FB"/>
</svg>
