<svg width="36" height="36" viewBox="0 0 36 36" fill="none" xmlns="http://www.w3.org/2000/svg">
<g clip-path="url(#clip0_2005_609)">
<path d="M6.85306 10.3009C6.44933 10.3009 6.12183 10.6285 6.12183 11.0322C6.12183 11.4359 6.44934 11.7618 6.85306 11.7618C7.25516 11.7618 7.58267 11.4359 7.58267 11.0322C7.58267 10.6284 7.25516 10.3009 6.85306 10.3009ZM9.84125 10.3009V10.3026C9.43752 10.3009 9.11001 10.6285 9.11001 11.0322C9.11001 11.4343 9.43753 11.7618 9.84125 11.7618H21.032C21.4341 11.7618 21.7616 11.4359 21.7616 11.0322C21.7616 10.6284 21.4341 10.3009 21.032 10.3009L9.84125 10.3009ZM9.84125 17.6602V17.6618C9.43752 17.6602 9.11001 17.9877 9.11001 18.3914C9.11001 18.7951 9.43753 19.121 9.84125 19.121H15.4738C15.8775 19.121 16.205 18.7951 16.205 18.3914C16.205 17.9877 15.8775 17.6618 15.4738 17.6618L9.84125 17.6602ZM6.85306 17.6602V17.6618C6.44933 17.6602 6.12183 17.9877 6.12183 18.3914C6.12183 18.7951 6.44934 19.121 6.85306 19.121C7.25516 19.121 7.58267 18.7951 7.58267 18.3914C7.58267 17.9877 7.25516 17.6602 6.85306 17.6602ZM9.84125 25.0211C9.43752 25.0211 9.11001 25.3486 9.11001 25.7507C9.11001 26.1544 9.43753 26.4819 9.84125 26.4819H13.1197C13.5234 26.4819 13.8509 26.1544 13.8509 25.7507C13.8509 25.3486 13.5234 25.0211 13.1197 25.0211H9.84125ZM6.85306 25.0211C6.44933 25.0211 6.12183 25.347 6.12183 25.7507C6.12183 26.1544 6.44934 26.4819 6.85306 26.4819C7.25516 26.4819 7.58267 26.1544 7.58267 25.7507C7.58267 25.3469 7.25516 25.0211 6.85306 25.0211ZM26.4685 20.173V20.1746C26.0648 20.173 25.7389 20.5005 25.7389 20.9043V26.2935C25.7389 26.5757 25.8946 26.8189 26.1281 26.9421L30.2933 29.3466C30.4084 29.4115 30.5349 29.4439 30.6581 29.4439C30.9111 29.4439 31.1559 29.3126 31.2904 29.0791C31.4931 28.7289 31.3731 28.283 31.0245 28.0803L27.1997 25.8736L27.1981 20.904C27.1981 20.5003 26.8723 20.173 26.4685 20.173ZM26.4685 18.263C30.9048 18.263 34.501 21.8576 34.501 26.2938C34.501 30.73 30.9048 34.3263 26.4685 34.3263C22.0323 34.3263 18.4377 30.7301 18.4377 26.2938C18.4377 21.8576 22.0323 18.263 26.4685 18.263ZM4.73079 1.00182C2.67328 1.01966 1.00809 2.68967 1 4.74881V32.0365C1.00811 34.0972 2.67324 35.7835 4.73079 35.7851C18.6747 35.8013 18.6781 35.7851 18.6781 35.7851C19.0818 35.7851 19.4093 35.4592 19.4093 35.0555C19.4093 34.6517 19.0818 34.3242 18.6781 34.3242C18.6651 34.3242 4.7391 34.3259 4.7391 34.3259C3.48417 34.3113 2.46267 33.2995 2.46267 32.0446L2.46105 4.75524C2.46592 3.49707 3.4825 2.47558 4.73909 2.46101H23.1691C24.4176 2.48696 25.418 3.50517 25.4245 4.75524C25.4261 5.02601 25.4245 14.5725 25.4245 14.5725C25.4245 14.9763 25.7504 15.3038 26.1541 15.3038C26.5578 15.3038 26.8853 14.9762 26.8853 14.5725V4.7486C26.8756 2.68947 25.2169 1.01943 23.1578 1L4.73079 1.00182ZM26.4685 16.802C21.2266 16.802 16.9771 21.0515 16.9771 26.2934C16.9771 31.5354 21.2266 35.7849 26.4685 35.7849C31.7105 35.7849 35.96 31.5354 35.96 26.2934C35.96 21.0515 31.7105 16.802 26.4685 16.802Z" fill="#F4F6FB" stroke="#F4F6FB" stroke-width="0.5"/>
</g>
<defs>
<clipPath id="clip0_2005_609">
<rect width="36" height="36" fill="white"/>
</clipPath>
</defs>
</svg>
