<svg width="36" height="36" viewBox="0 0 36 36" fill="none" xmlns="http://www.w3.org/2000/svg">
<path d="M18.2809 23.3989C14.4115 23.3989 11.2671 20.2546 11.2671 16.3851V7.57631C11.2671 3.70693 14.4114 0.5625 18.2809 0.5625C22.1505 0.5625 25.2947 3.70676 25.2947 7.57631V16.3851C25.2947 20.2501 22.1505 23.3989 18.2809 23.3989ZM18.2809 2.8125C15.653 2.8125 13.5172 4.95045 13.5172 7.5762V16.3849C13.5172 19.0129 15.6552 21.1486 18.2809 21.1486C20.9088 21.1486 23.0446 19.0107 23.0446 16.3849V7.5762C23.0446 4.94826 20.9067 2.8125 18.2809 2.8125Z" fill="#F4F6FB"/>
<path d="M18.2812 28.1289C11.9244 28.1289 6.75 22.9544 6.75 16.5977C6.75 15.978 7.25537 15.4727 7.875 15.4727C8.49463 15.4727 9 15.978 9 16.5977C9 21.7173 13.1616 25.8789 18.2812 25.8789C23.4009 25.8789 27.5625 21.7173 27.5625 16.5977C27.5625 15.978 28.0679 15.4727 28.6875 15.4727C29.3071 15.4727 29.8125 15.978 29.8125 16.5977C29.8125 22.9545 24.638 28.1289 18.2812 28.1289Z" fill="#F4F6FB"/>
<path d="M18.2812 35.5247C17.6616 35.5247 17.1562 35.0193 17.1562 34.3997V27.0039C17.1562 26.3843 17.6616 25.8789 18.2812 25.8789C18.9009 25.8789 19.4062 26.3843 19.4062 27.0039V34.3997C19.4062 35.0193 18.9009 35.5247 18.2812 35.5247Z" fill="#F4F6FB"/>
<path d="M22.1115 35.5254H14.4497C13.8301 35.5254 13.3247 35.02 13.3247 34.4004C13.3247 33.7808 13.8301 33.2754 14.4497 33.2754H22.1115C22.7312 33.2754 23.2365 33.7808 23.2365 34.4004C23.2365 35.02 22.7311 35.5254 22.1115 35.5254Z" fill="#F4F6FB"/>
</svg>
