<svg width="36" height="36" viewBox="0 0 36 36" fill="none" xmlns="http://www.w3.org/2000/svg">
<path d="M7.57715 12.6396C7.05974 13.1178 6.56054 13.6285 6.08398 14.1729C5.47321 14.8705 4.41255 14.9408 3.71484 14.3301C3.01715 13.7193 2.94686 12.6586 3.55762 11.9609C4.08173 11.3622 4.6309 10.7966 5.20117 10.2637L7.57715 12.6396Z" fill="#F4F6FB" stroke="#0F1221" stroke-width="0.5"/>
<path d="M19.4258 4.47656C25.4264 4.47656 31.1282 7.20149 35.2939 11.96C35.9048 12.6576 35.8345 13.7183 35.1367 14.3291C34.439 14.9398 33.3785 14.8696 32.7676 14.1719C29.1863 10.0811 24.3808 7.83496 19.4258 7.83496C16.1747 7.83504 12.9876 8.80318 10.168 10.625L7.74902 8.20605C11.2186 5.79905 15.2485 4.47664 19.4258 4.47656Z" fill="#F4F6FB" stroke="#0F1221" stroke-width="0.5"/>
<path d="M12.9854 18.0479C12.2071 18.6207 11.4753 19.3019 10.8066 20.0869C10.2053 20.7926 9.14531 20.8776 8.43945 20.2764C7.73376 19.6751 7.64891 18.615 8.25 17.9092C8.96743 17.0669 9.75261 16.3123 10.5908 15.6523L12.9854 18.0479Z" fill="#F4F6FB" stroke="#0F1221" stroke-width="0.5"/>
<path d="M19.4258 12.5068C23.6779 12.5068 27.6894 14.4924 30.6006 17.9102C31.2019 18.616 31.117 19.6751 30.4111 20.2764C29.7053 20.8776 28.6462 20.7928 28.0449 20.0869C25.7065 17.3415 22.5976 15.8652 19.4258 15.8652C18.2625 15.8652 17.1076 16.0654 15.9951 16.4531L13.4258 13.8838C15.2988 12.9883 17.3325 12.5069 19.4258 12.5068Z" fill="#F4F6FB" stroke="#0F1221" stroke-width="0.5"/>
<path d="M22.3115 27.3721C21.6004 28.1621 20.5717 28.6591 19.4258 28.6592C17.2811 28.6592 15.5422 26.9209 15.542 24.7764C15.542 23.6304 16.0381 22.5998 16.8281 21.8887L22.3115 27.3721Z" fill="#F4F6FB" stroke="#0F1221" stroke-width="0.5"/>
<path d="M19.8545 20.666C21.7944 20.8663 23.3363 22.4081 23.5365 24.3479L19.8545 20.666Z" fill="#F4F6FB"/>
<path d="M1.74219 1.74219C2.39787 1.08651 3.46056 1.08651 4.11621 1.74219L33.3232 30.9492C33.979 31.605 33.9789 32.6678 33.3232 33.3232C32.6675 33.9789 31.605 33.979 30.9492 33.3232L1.74219 4.11621C1.08652 3.46053 1.08653 2.39784 1.74219 1.74219Z" fill="#F4F6FB" stroke="#0F1221" stroke-width="0.5"/>
</svg>
