<svg width="36" height="36" viewBox="0 0 36 36" fill="none" xmlns="http://www.w3.org/2000/svg">
<path d="M32.4711 8.01328C29.2797 3.75823 24.196 1 18.48 1C12.8238 1 7.78896 3.70275 4.59197 7.88218C4.57459 7.89987 4.56187 7.92072 4.54627 7.94033C2.32259 10.8728 1 14.5244 1 18.48C1 22.4007 2.29783 26.0239 4.48608 28.9431L4.48808 28.9457C7.67934 33.2014 12.7635 35.96 18.48 35.96C24.1471 35.96 29.1907 33.2471 32.3868 29.0539C32.4093 29.029 32.4297 29.0034 32.4487 28.9752C34.6518 26.0504 35.96 22.4153 35.96 18.48C35.96 14.5603 34.6629 10.9379 32.4757 8.01905C32.474 8.01723 32.4728 8.01505 32.4711 8.01328ZM13.5698 3.22932C12.1452 4.63509 10.9494 6.64298 10.0845 9.07275C8.82901 8.78726 7.58149 8.4383 6.34599 8.03292C8.2475 5.82743 10.7365 4.14374 13.5698 3.22932ZM5.39392 9.25065C6.79444 9.72933 8.21216 10.1334 9.63971 10.4622C9.01269 12.651 8.63781 15.1169 8.57935 17.7517H2.47516C2.61715 14.5955 3.67808 11.6763 5.39392 9.25065ZM2.47516 19.2083H8.57935C8.63612 21.7652 8.99015 24.1637 9.5841 26.3038C8.11303 26.6317 6.68095 27.0575 5.29163 27.5656C3.63532 25.1688 2.61434 22.3021 2.47516 19.2083ZM6.21951 28.7811C7.45236 28.3502 8.71907 27.9865 10.0176 27.7014C10.8872 30.2153 12.1088 32.2889 13.5698 33.7307C10.6738 32.796 8.13632 31.0588 6.21951 28.7811ZM17.7517 34.4399C15.1365 34.0147 12.8572 31.3273 11.4652 27.4135C13.5109 27.0546 15.6181 26.8768 17.7517 26.8689V34.4399ZM17.7517 25.4134C15.4667 25.4216 13.2112 25.6213 11.0222 26.0169C10.4442 23.9705 10.0939 21.6606 10.0357 19.2083H17.7517V25.4134ZM17.7517 17.7517H10.0357C10.0955 15.228 10.4647 12.855 11.0732 10.765C13.2969 11.1977 15.5333 11.4519 17.7517 11.5233V17.7517ZM17.7517 10.0666C15.6858 9.99748 13.6032 9.76601 11.5301 9.37179C12.9274 5.55364 15.176 2.9389 17.7517 2.52006V10.0666ZM30.7403 8.17869C29.5075 8.60954 28.2408 8.97321 26.9423 9.25816C26.0727 6.74447 24.8512 4.67096 23.3902 3.22932C26.2861 4.16396 28.8235 5.90105 30.7403 8.17869ZM19.2083 2.52006C21.8234 2.9453 24.1026 5.6325 25.4946 9.54605C23.4489 9.90479 21.3419 10.0826 19.2083 10.0905V2.52006ZM19.2083 11.5489C21.4932 11.5407 23.7489 11.3395 25.938 10.944C26.5159 12.9902 26.8661 15.2997 26.9243 17.7517H19.2083V11.5489ZM19.2083 19.2083H26.9243C26.8645 21.7317 26.4954 24.1044 25.887 26.1943C23.6632 25.7615 21.4268 25.5087 19.2083 25.4372V19.2083ZM19.2083 34.4399V26.8929C21.2742 26.9619 23.3569 27.1934 25.4301 27.5877C24.0328 31.4061 21.7841 34.0211 19.2083 34.4399ZM23.3902 33.7307C24.8149 32.3248 26.0107 30.3168 26.8757 27.8868C28.1312 28.1723 29.3786 28.5214 30.6141 28.9269C28.7126 31.1324 26.2236 32.8162 23.3902 33.7307ZM31.5664 27.7089C30.1658 27.2303 28.7481 26.8255 27.3206 26.4966C27.9474 24.3081 28.3222 21.8426 28.3806 19.2083H34.4848C34.3429 22.3643 33.282 25.2833 31.5664 27.7089ZM28.3806 17.7517C28.3239 15.1939 27.9695 12.7947 27.3753 10.6542C28.8464 10.3263 30.279 9.90208 31.6681 9.3941C33.3246 11.791 34.3457 14.6578 34.4848 17.7517H28.3806Z" fill="#F4F6FB"/>
</svg>
